<?xml version="1.0" encoding="utf-8" standalone="no"?>
<!DOCTYPE svg PUBLIC "-//W3C//DTD SVG 1.1//EN"
  "http://www.w3.org/Graphics/SVG/1.1/DTD/svg11.dtd">
<svg xmlns:xlink="http://www.w3.org/1999/xlink" width="259.6175pt" height="217.649375pt" viewBox="0 0 259.6175 217.649375" xmlns="http://www.w3.org/2000/svg" version="1.1">
 <metadata>
  <rdf:RDF xmlns:dc="http://purl.org/dc/elements/1.1/" xmlns:cc="http://creativecommons.org/ns#" xmlns:rdf="http://www.w3.org/1999/02/22-rdf-syntax-ns#">
   <cc:Work>
    <dc:type rdf:resource="http://purl.org/dc/dcmitype/StillImage"/>
    <dc:date>2025-02-04T12:49:45.994971</dc:date>
    <dc:format>image/svg+xml</dc:format>
    <dc:creator>
     <cc:Agent>
      <dc:title>Matplotlib v3.7.1, https://matplotlib.org/</dc:title>
     </cc:Agent>
    </dc:creator>
   </cc:Work>
  </rdf:RDF>
 </metadata>
 <defs>
  <style type="text/css">*{stroke-linejoin: round; stroke-linecap: butt}</style>
 </defs>
 <g id="figure_1">
  <g id="patch_1">
   <path d="M 0 217.649375 
L 259.6175 217.649375 
L 259.6175 0 
L 0 0 
z
" style="fill: #ffffff"/>
  </g>
  <g id="axes_1">
   <g id="patch_2">
    <path d="M 57.1175 173.52 
L 252.4175 173.52 
L 252.4175 7.2 
L 57.1175 7.2 
z
" style="fill: #ffffff"/>
   </g>
   <g id="matplotlib.axis_1">
    <g id="xtick_1">
     <g id="line2d_1">
      <defs>
       <path id="m8ee38c7373" d="M 0 0 
L 0 6 
" style="stroke: #262626; stroke-width: 1.25"/>
      </defs>
      <g>
       <use xlink:href="#m8ee38c7373" x="58.597045" y="173.52" style="fill: #262626; stroke: #262626; stroke-width: 1.25"/>
      </g>
     </g>
     <g id="text_1">
      <!-- 0 -->
      <g style="fill: #262626" transform="translate(55.407045 191.122188) scale(0.11 -0.11)">
       <defs>
        <path id="Lato-Regular-30" d="M 3520 2291 
Q 3520 1690 3390 1250 
Q 3261 810 3037 522 
Q 2813 234 2507 93 
Q 2202 -48 1853 -48 
Q 1501 -48 1198 93 
Q 896 234 672 522 
Q 448 810 320 1250 
Q 192 1690 192 2291 
Q 192 2893 320 3334 
Q 448 3776 672 4065 
Q 896 4355 1198 4496 
Q 1501 4637 1853 4637 
Q 2202 4637 2507 4496 
Q 2813 4355 3037 4065 
Q 3261 3776 3390 3334 
Q 3520 2893 3520 2291 
z
M 2928 2291 
Q 2928 2816 2840 3173 
Q 2752 3530 2603 3747 
Q 2454 3965 2259 4059 
Q 2064 4154 1853 4154 
Q 1642 4154 1446 4059 
Q 1251 3965 1104 3747 
Q 957 3530 869 3173 
Q 781 2816 781 2291 
Q 781 1766 869 1411 
Q 957 1056 1104 838 
Q 1251 621 1446 526 
Q 1642 432 1853 432 
Q 2064 432 2259 526 
Q 2454 621 2603 838 
Q 2752 1056 2840 1411 
Q 2928 1766 2928 2291 
z
" transform="scale(0.015625)"/>
       </defs>
       <use xlink:href="#Lato-Regular-30"/>
      </g>
     </g>
    </g>
    <g id="xtick_2">
     <g id="line2d_2">
      <g>
       <use xlink:href="#m8ee38c7373" x="132.574318" y="173.52" style="fill: #262626; stroke: #262626; stroke-width: 1.25"/>
      </g>
     </g>
     <g id="text_2">
      <!-- 10 -->
      <g style="fill: #262626" transform="translate(126.194318 191.122188) scale(0.11 -0.11)">
       <defs>
        <path id="Lato-Regular-31" d="M 800 435 
L 1782 435 
L 1782 3562 
Q 1782 3696 1792 3846 
L 976 3146 
Q 934 3110 892 3102 
Q 851 3094 816 3100 
Q 781 3107 750 3126 
Q 720 3146 704 3168 
L 525 3414 
L 1891 4595 
L 2355 4595 
L 2355 435 
L 3258 435 
L 3258 0 
L 800 0 
L 800 435 
z
" transform="scale(0.015625)"/>
       </defs>
       <use xlink:href="#Lato-Regular-31"/>
       <use xlink:href="#Lato-Regular-30" x="58"/>
      </g>
     </g>
    </g>
    <g id="xtick_3">
     <g id="line2d_3">
      <g>
       <use xlink:href="#m8ee38c7373" x="206.551591" y="173.52" style="fill: #262626; stroke: #262626; stroke-width: 1.25"/>
      </g>
     </g>
     <g id="text_3">
      <!-- 20 -->
      <g style="fill: #262626" transform="translate(200.171591 191.122188) scale(0.11 -0.11)">
       <defs>
        <path id="Lato-Regular-32" d="M 1891 4637 
Q 2182 4637 2435 4550 
Q 2688 4464 2873 4299 
Q 3059 4134 3164 3897 
Q 3270 3661 3270 3360 
Q 3270 3104 3193 2885 
Q 3117 2666 2985 2467 
Q 2854 2269 2683 2080 
Q 2512 1891 2320 1699 
L 1110 464 
Q 1238 499 1369 520 
Q 1501 541 1622 541 
L 3158 541 
Q 3251 541 3305 486 
Q 3360 432 3360 346 
L 3360 0 
L 301 0 
L 301 195 
Q 301 256 326 320 
Q 352 384 406 438 
L 1875 1914 
Q 2058 2099 2208 2270 
Q 2358 2442 2464 2614 
Q 2570 2787 2627 2964 
Q 2685 3142 2685 3344 
Q 2685 3546 2621 3698 
Q 2557 3850 2446 3949 
Q 2336 4048 2185 4097 
Q 2035 4147 1862 4147 
Q 1686 4147 1539 4096 
Q 1392 4045 1278 3953 
Q 1165 3862 1088 3737 
Q 1011 3613 979 3462 
Q 941 3350 875 3313 
Q 810 3277 691 3293 
L 394 3344 
Q 438 3658 568 3899 
Q 698 4141 894 4304 
Q 1091 4467 1344 4552 
Q 1597 4637 1891 4637 
z
" transform="scale(0.015625)"/>
       </defs>
       <use xlink:href="#Lato-Regular-32"/>
       <use xlink:href="#Lato-Regular-30" x="58"/>
      </g>
     </g>
    </g>
    <g id="text_4">
     <!-- Lattice parameter $(\AA)$ -->
     <g style="fill: #262626" transform="translate(99.4475 208.289375) scale(0.12 -0.12)">
      <defs>
       <path id="Lato-Regular-4c" d="M 1203 522 
L 3187 522 
L 3187 0 
L 586 0 
L 586 4586 
L 1203 4586 
L 1203 522 
z
" transform="scale(0.015625)"/>
       <path id="Lato-Regular-61" d="M 2512 0 
Q 2429 0 2384 27 
Q 2339 54 2314 134 
L 2250 438 
Q 2122 323 1998 232 
Q 1875 141 1742 78 
Q 1610 16 1458 -17 
Q 1306 -51 1120 -51 
Q 931 -51 764 1 
Q 598 54 475 160 
Q 352 266 280 427 
Q 208 589 208 810 
Q 208 1002 313 1179 
Q 419 1357 656 1494 
Q 893 1632 1273 1720 
Q 1654 1808 2208 1821 
L 2208 2074 
Q 2208 2451 2045 2644 
Q 1882 2838 1568 2838 
Q 1357 2838 1214 2785 
Q 1072 2733 968 2667 
Q 864 2602 789 2549 
Q 714 2496 640 2496 
Q 582 2496 540 2526 
Q 499 2557 470 2602 
L 368 2784 
Q 637 3043 947 3171 
Q 1258 3299 1635 3299 
Q 1907 3299 2118 3209 
Q 2330 3120 2474 2960 
Q 2618 2800 2691 2573 
Q 2765 2346 2765 2074 
L 2765 0 
L 2512 0 
z
M 1290 349 
Q 1440 349 1565 379 
Q 1690 410 1800 466 
Q 1910 522 2011 603 
Q 2112 685 2208 787 
L 2208 1459 
Q 1814 1446 1537 1396 
Q 1261 1347 1086 1267 
Q 912 1187 833 1078 
Q 755 970 755 835 
Q 755 707 796 614 
Q 838 522 910 462 
Q 982 403 1080 376 
Q 1178 349 1290 349 
z
" transform="scale(0.015625)"/>
       <path id="Lato-Regular-74" d="M 1446 -51 
Q 1062 -51 856 163 
Q 650 378 650 781 
L 650 2765 
L 259 2765 
Q 208 2765 173 2795 
Q 138 2826 138 2890 
L 138 3117 
L 669 3184 
L 800 4186 
Q 810 4234 843 4264 
Q 877 4294 931 4294 
L 1219 4294 
L 1219 3178 
L 2157 3178 
L 2157 2765 
L 1219 2765 
L 1219 819 
Q 1219 614 1318 515 
Q 1418 416 1574 416 
Q 1664 416 1729 440 
Q 1795 464 1843 493 
Q 1891 522 1924 546 
Q 1958 570 1984 570 
Q 2029 570 2064 515 
L 2230 243 
Q 2083 106 1875 27 
Q 1667 -51 1446 -51 
z
" transform="scale(0.015625)"/>
       <path id="Lato-Regular-69" d="M 1053 3242 
L 1053 0 
L 483 0 
L 483 3242 
L 1053 3242 
z
M 1174 4259 
Q 1174 4176 1140 4104 
Q 1107 4032 1051 3976 
Q 995 3920 920 3888 
Q 845 3856 762 3856 
Q 678 3856 606 3888 
Q 534 3920 480 3976 
Q 426 4032 394 4104 
Q 362 4176 362 4259 
Q 362 4342 394 4417 
Q 426 4493 480 4549 
Q 534 4605 606 4637 
Q 678 4669 762 4669 
Q 845 4669 920 4637 
Q 995 4605 1051 4549 
Q 1107 4493 1140 4417 
Q 1174 4342 1174 4259 
z
" transform="scale(0.015625)"/>
       <path id="Lato-Regular-63" d="M 2707 2666 
Q 2682 2630 2656 2611 
Q 2630 2592 2586 2592 
Q 2538 2592 2480 2632 
Q 2422 2672 2337 2720 
Q 2253 2768 2129 2808 
Q 2006 2848 1827 2848 
Q 1587 2848 1404 2763 
Q 1222 2678 1099 2518 
Q 976 2358 913 2131 
Q 851 1904 851 1622 
Q 851 1328 918 1099 
Q 986 870 1109 715 
Q 1232 560 1406 478 
Q 1581 397 1798 397 
Q 2006 397 2140 446 
Q 2275 496 2363 557 
Q 2451 618 2510 667 
Q 2570 717 2627 717 
Q 2698 717 2736 662 
L 2896 454 
Q 2790 323 2656 230 
Q 2522 138 2366 75 
Q 2211 13 2041 -16 
Q 1872 -45 1696 -45 
Q 1392 -45 1131 67 
Q 870 179 678 392 
Q 486 605 377 915 
Q 269 1226 269 1622 
Q 269 1984 369 2291 
Q 470 2598 664 2820 
Q 858 3043 1141 3168 
Q 1424 3293 1792 3293 
Q 2134 3293 2395 3182 
Q 2656 3072 2858 2870 
L 2707 2666 
z
" transform="scale(0.015625)"/>
       <path id="Lato-Regular-65" d="M 1779 3293 
Q 2070 3293 2318 3195 
Q 2566 3098 2747 2914 
Q 2928 2730 3030 2459 
Q 3133 2189 3133 1843 
Q 3133 1709 3104 1664 
Q 3075 1619 2995 1619 
L 829 1619 
Q 835 1312 912 1085 
Q 989 858 1123 706 
Q 1258 554 1443 478 
Q 1629 403 1859 403 
Q 2074 403 2229 452 
Q 2384 502 2496 560 
Q 2608 618 2683 667 
Q 2758 717 2813 717 
Q 2883 717 2922 662 
L 3082 454 
Q 2976 326 2829 232 
Q 2682 138 2514 77 
Q 2346 16 2166 -14 
Q 1987 -45 1811 -45 
Q 1475 -45 1192 68 
Q 909 182 702 401 
Q 496 621 381 944 
Q 266 1267 266 1686 
Q 266 2026 370 2320 
Q 474 2614 669 2830 
Q 864 3046 1145 3169 
Q 1427 3293 1779 3293 
z
M 1792 2874 
Q 1379 2874 1142 2635 
Q 906 2397 848 1974 
L 2621 1974 
Q 2621 2173 2565 2337 
Q 2509 2502 2401 2622 
Q 2294 2742 2140 2808 
Q 1987 2874 1792 2874 
z
" transform="scale(0.015625)"/>
       <path id="Lato-Regular-20" transform="scale(0.015625)"/>
       <path id="Lato-Regular-70" d="M 451 -1098 
L 451 3242 
L 794 3242 
Q 915 3242 944 3123 
L 992 2739 
Q 1200 2992 1469 3145 
Q 1738 3299 2083 3299 
Q 2365 3299 2592 3192 
Q 2819 3085 2979 2875 
Q 3139 2666 3225 2355 
Q 3312 2045 3312 1642 
Q 3312 1283 3216 974 
Q 3120 666 2939 440 
Q 2758 214 2497 84 
Q 2237 -45 1910 -45 
Q 1613 -45 1400 54 
Q 1187 154 1024 336 
L 1024 -1098 
L 451 -1098 
z
M 1898 2838 
Q 1619 2838 1409 2710 
Q 1200 2582 1024 2349 
L 1024 781 
Q 1178 570 1365 483 
Q 1552 397 1782 397 
Q 2237 397 2480 720 
Q 2723 1043 2723 1642 
Q 2723 1958 2667 2185 
Q 2611 2413 2505 2558 
Q 2400 2704 2246 2771 
Q 2093 2838 1898 2838 
z
" transform="scale(0.015625)"/>
       <path id="Lato-Regular-72" d="M 451 0 
L 451 3242 
L 778 3242 
Q 870 3242 905 3206 
Q 941 3171 954 3085 
L 989 2592 
Q 1142 2925 1368 3112 
Q 1594 3299 1917 3299 
Q 2019 3299 2113 3276 
Q 2208 3254 2282 3206 
L 2240 2781 
Q 2221 2701 2144 2701 
Q 2099 2701 2012 2720 
Q 1926 2739 1818 2739 
Q 1664 2739 1542 2692 
Q 1421 2646 1326 2558 
Q 1232 2470 1158 2342 
Q 1085 2214 1024 2048 
L 1024 0 
L 451 0 
z
" transform="scale(0.015625)"/>
       <path id="Lato-Regular-6d" d="M 451 0 
L 451 3242 
L 794 3242 
Q 915 3242 944 3123 
L 986 2790 
Q 1165 3011 1389 3152 
Q 1613 3293 1907 3293 
Q 2234 3293 2437 3110 
Q 2640 2928 2730 2618 
Q 2800 2794 2910 2922 
Q 3021 3050 3158 3133 
Q 3296 3216 3451 3254 
Q 3606 3293 3766 3293 
Q 4022 3293 4222 3211 
Q 4422 3130 4561 2973 
Q 4701 2816 4774 2587 
Q 4848 2358 4848 2064 
L 4848 0 
L 4275 0 
L 4275 2064 
Q 4275 2445 4108 2641 
Q 3942 2838 3629 2838 
Q 3488 2838 3361 2788 
Q 3235 2739 3139 2643 
Q 3043 2547 2987 2401 
Q 2931 2256 2931 2064 
L 2931 0 
L 2358 0 
L 2358 2064 
Q 2358 2454 2201 2646 
Q 2045 2838 1744 2838 
Q 1533 2838 1353 2724 
Q 1174 2611 1024 2416 
L 1024 0 
L 451 0 
z
" transform="scale(0.015625)"/>
       <path id="Lato-Regular-28" d="M 784 2013 
Q 784 1328 958 681 
Q 1133 35 1469 -547 
Q 1520 -646 1494 -699 
Q 1469 -752 1421 -784 
L 1168 -938 
Q 928 -570 760 -208 
Q 592 154 488 518 
Q 384 883 336 1252 
Q 288 1622 288 2013 
Q 288 2400 336 2771 
Q 384 3142 488 3505 
Q 592 3869 760 4230 
Q 928 4592 1168 4963 
L 1421 4806 
Q 1469 4774 1494 4721 
Q 1520 4669 1469 4573 
Q 1133 3990 958 3344 
Q 784 2698 784 2013 
z
" transform="scale(0.015625)"/>
       <path id="Lato-Regular-c5" d="M 19 0 
L 19 0 
z
M 4314 0 
L 3834 0 
Q 3750 0 3699 41 
Q 3648 83 3622 147 
L 3194 1254 
L 1136 1254 
L 707 147 
Q 688 90 633 45 
Q 579 0 499 0 
L 19 0 
L 1853 4586 
L 2480 4586 
L 4314 0 
z
M 1309 1702 
L 3021 1702 
L 2301 3568 
Q 2266 3651 2232 3760 
Q 2198 3869 2163 3994 
Q 2131 3869 2097 3758 
Q 2064 3648 2029 3565 
L 1309 1702 
z
M 1558 5430 
Q 1558 5555 1608 5660 
Q 1658 5766 1739 5840 
Q 1821 5914 1929 5955 
Q 2038 5997 2160 5997 
Q 2285 5997 2397 5955 
Q 2509 5914 2592 5840 
Q 2675 5766 2724 5660 
Q 2774 5555 2774 5430 
Q 2774 5306 2724 5203 
Q 2675 5101 2592 5027 
Q 2509 4954 2397 4912 
Q 2285 4870 2160 4870 
Q 2038 4870 1929 4912 
Q 1821 4954 1739 5027 
Q 1658 5101 1608 5203 
Q 1558 5306 1558 5430 
z
M 1843 5430 
Q 1843 5290 1929 5200 
Q 2016 5110 2170 5110 
Q 2314 5110 2402 5200 
Q 2490 5290 2490 5430 
Q 2490 5574 2402 5664 
Q 2314 5754 2170 5754 
Q 2016 5754 1929 5664 
Q 1843 5574 1843 5430 
z
" transform="scale(0.015625)"/>
       <path id="Lato-Regular-29" d="M 925 2013 
Q 925 2698 750 3344 
Q 576 3990 240 4573 
Q 214 4621 208 4657 
Q 202 4694 211 4721 
Q 221 4749 241 4769 
Q 262 4790 288 4806 
L 541 4963 
Q 781 4592 949 4230 
Q 1117 3869 1221 3505 
Q 1325 3142 1373 2771 
Q 1421 2400 1421 2013 
Q 1421 1622 1373 1252 
Q 1325 883 1221 518 
Q 1117 154 949 -208 
Q 781 -570 541 -938 
L 288 -784 
Q 262 -768 241 -747 
Q 221 -726 211 -699 
Q 202 -672 208 -633 
Q 214 -595 240 -547 
Q 576 35 750 681 
Q 925 1328 925 2013 
z
" transform="scale(0.015625)"/>
      </defs>
      <use xlink:href="#Lato-Regular-4c" transform="translate(0 0.296875)"/>
      <use xlink:href="#Lato-Regular-61" transform="translate(51.350006 0.296875)"/>
      <use xlink:href="#Lato-Regular-74" transform="translate(101.050018 0.296875)"/>
      <use xlink:href="#Lato-Regular-74" transform="translate(136.900024 0.296875)"/>
      <use xlink:href="#Lato-Regular-69" transform="translate(172.750031 0.296875)"/>
      <use xlink:href="#Lato-Regular-63" transform="translate(196.750031 0.296875)"/>
      <use xlink:href="#Lato-Regular-65" transform="translate(244.500031 0.296875)"/>
      <use xlink:href="#Lato-Regular-20" transform="translate(297.300034 0.296875)"/>
      <use xlink:href="#Lato-Regular-70" transform="translate(322.90004 0.296875)"/>
      <use xlink:href="#Lato-Regular-61" transform="translate(378.950043 0.296875)"/>
      <use xlink:href="#Lato-Regular-72" transform="translate(428.650055 0.296875)"/>
      <use xlink:href="#Lato-Regular-61" transform="translate(465.050064 0.296875)"/>
      <use xlink:href="#Lato-Regular-6d" transform="translate(514.750076 0.296875)"/>
      <use xlink:href="#Lato-Regular-65" transform="translate(597.000092 0.296875)"/>
      <use xlink:href="#Lato-Regular-74" transform="translate(649.800095 0.296875)"/>
      <use xlink:href="#Lato-Regular-65" transform="translate(685.650101 0.296875)"/>
      <use xlink:href="#Lato-Regular-72" transform="translate(738.450104 0.296875)"/>
      <use xlink:href="#Lato-Regular-20" transform="translate(774.850113 0.296875)"/>
      <use xlink:href="#Lato-Regular-28" transform="translate(800.450119 0.296875)"/>
      <use xlink:href="#Lato-Regular-c5" transform="translate(826.900116 0.296875)"/>
      <use xlink:href="#Lato-Regular-29" transform="translate(894.600128 0.296875)"/>
     </g>
    </g>
   </g>
   <g id="matplotlib.axis_2">
    <g id="ytick_1">
     <g id="line2d_4">
      <defs>
       <path id="m932bbbe85e" d="M 0 0 
L -6 0 
" style="stroke: #262626; stroke-width: 1.25"/>
      </defs>
      <g>
       <use xlink:href="#m932bbbe85e" x="57.1175" y="173.52" style="fill: #262626; stroke: #262626; stroke-width: 1.25"/>
      </g>
     </g>
     <g id="text_5">
      <!-- 0 -->
      <g style="fill: #262626" transform="translate(41.2375 177.571094) scale(0.11 -0.11)">
       <use xlink:href="#Lato-Regular-30"/>
      </g>
     </g>
    </g>
    <g id="ytick_2">
     <g id="line2d_5">
      <g>
       <use xlink:href="#m932bbbe85e" x="57.1175" y="147.658776" style="fill: #262626; stroke: #262626; stroke-width: 1.25"/>
      </g>
     </g>
     <g id="text_6">
      <!-- 200 -->
      <g style="fill: #262626" transform="translate(28.4775 151.709869) scale(0.11 -0.11)">
       <use xlink:href="#Lato-Regular-32"/>
       <use xlink:href="#Lato-Regular-30" x="58"/>
       <use xlink:href="#Lato-Regular-30" x="116"/>
      </g>
     </g>
    </g>
    <g id="ytick_3">
     <g id="line2d_6">
      <g>
       <use xlink:href="#m932bbbe85e" x="57.1175" y="121.797551" style="fill: #262626; stroke: #262626; stroke-width: 1.25"/>
      </g>
     </g>
     <g id="text_7">
      <!-- 400 -->
      <g style="fill: #262626" transform="translate(28.4775 125.848645) scale(0.11 -0.11)">
       <defs>
        <path id="Lato-Regular-34" d="M 2835 1654 
L 3530 1654 
L 3530 1328 
Q 3530 1277 3499 1241 
Q 3469 1206 3405 1206 
L 2835 1206 
L 2835 0 
L 2336 0 
L 2336 1206 
L 301 1206 
Q 237 1206 190 1243 
Q 144 1280 131 1334 
L 74 1626 
L 2304 4586 
L 2835 4586 
L 2835 1654 
z
M 2336 3546 
Q 2336 3629 2341 3726 
Q 2346 3824 2362 3926 
L 691 1654 
L 2336 1654 
L 2336 3546 
z
" transform="scale(0.015625)"/>
       </defs>
       <use xlink:href="#Lato-Regular-34"/>
       <use xlink:href="#Lato-Regular-30" x="58"/>
       <use xlink:href="#Lato-Regular-30" x="116"/>
      </g>
     </g>
    </g>
    <g id="ytick_4">
     <g id="line2d_7">
      <g>
       <use xlink:href="#m932bbbe85e" x="57.1175" y="95.936327" style="fill: #262626; stroke: #262626; stroke-width: 1.25"/>
      </g>
     </g>
     <g id="text_8">
      <!-- 600 -->
      <g style="fill: #262626" transform="translate(28.4775 99.98742) scale(0.11 -0.11)">
       <defs>
        <path id="Lato-Regular-36" d="M 1517 2867 
Q 1453 2790 1398 2716 
Q 1344 2643 1290 2573 
Q 1453 2685 1649 2747 
Q 1846 2810 2077 2810 
Q 2355 2810 2601 2718 
Q 2848 2627 3032 2452 
Q 3216 2278 3325 2024 
Q 3434 1770 3434 1443 
Q 3434 1126 3318 854 
Q 3203 582 2996 380 
Q 2790 179 2500 64 
Q 2211 -51 1862 -51 
Q 1517 -51 1235 59 
Q 954 170 757 373 
Q 560 576 453 865 
Q 346 1155 346 1514 
Q 346 1814 478 2155 
Q 611 2496 902 2883 
L 2067 4448 
Q 2112 4506 2190 4546 
Q 2269 4586 2371 4586 
L 2877 4586 
L 1517 2867 
z
M 893 1414 
Q 893 1194 957 1011 
Q 1021 829 1144 697 
Q 1267 566 1444 494 
Q 1622 422 1850 422 
Q 2080 422 2267 496 
Q 2454 570 2587 701 
Q 2720 832 2792 1011 
Q 2864 1190 2864 1402 
Q 2864 1626 2793 1806 
Q 2723 1987 2593 2113 
Q 2464 2240 2285 2307 
Q 2106 2374 1891 2374 
Q 1661 2374 1475 2296 
Q 1290 2218 1160 2085 
Q 1030 1952 961 1777 
Q 893 1603 893 1414 
z
" transform="scale(0.015625)"/>
       </defs>
       <use xlink:href="#Lato-Regular-36"/>
       <use xlink:href="#Lato-Regular-30" x="58"/>
       <use xlink:href="#Lato-Regular-30" x="116"/>
      </g>
     </g>
    </g>
    <g id="ytick_5">
     <g id="line2d_8">
      <g>
       <use xlink:href="#m932bbbe85e" x="57.1175" y="70.075102" style="fill: #262626; stroke: #262626; stroke-width: 1.25"/>
      </g>
     </g>
     <g id="text_9">
      <!-- 800 -->
      <g style="fill: #262626" transform="translate(28.4775 74.126196) scale(0.11 -0.11)">
       <defs>
        <path id="Lato-Regular-38" d="M 1856 -51 
Q 1514 -51 1229 40 
Q 944 131 739 300 
Q 534 470 422 712 
Q 310 954 310 1254 
Q 310 1696 540 1982 
Q 771 2269 1200 2390 
Q 838 2525 654 2792 
Q 470 3059 470 3430 
Q 470 3683 569 3904 
Q 669 4125 851 4288 
Q 1034 4451 1288 4544 
Q 1542 4637 1856 4637 
Q 2166 4637 2422 4544 
Q 2678 4451 2860 4288 
Q 3043 4125 3142 3904 
Q 3242 3683 3242 3430 
Q 3242 3059 3056 2792 
Q 2870 2525 2512 2390 
Q 2941 2269 3171 1982 
Q 3402 1696 3402 1254 
Q 3402 954 3288 712 
Q 3174 470 2971 300 
Q 2768 131 2483 40 
Q 2198 -51 1856 -51 
z
M 1856 403 
Q 2080 403 2257 465 
Q 2435 528 2558 641 
Q 2682 755 2747 913 
Q 2813 1072 2813 1264 
Q 2813 1501 2734 1669 
Q 2656 1837 2523 1942 
Q 2390 2048 2217 2097 
Q 2045 2147 1856 2147 
Q 1667 2147 1494 2097 
Q 1322 2048 1189 1942 
Q 1056 1837 977 1669 
Q 899 1501 899 1264 
Q 899 1072 964 913 
Q 1030 755 1153 641 
Q 1277 528 1454 465 
Q 1632 403 1856 403 
z
M 1856 2605 
Q 2080 2605 2238 2673 
Q 2397 2742 2496 2856 
Q 2595 2970 2640 3117 
Q 2685 3264 2685 3421 
Q 2685 3581 2632 3721 
Q 2579 3862 2475 3968 
Q 2371 4074 2216 4134 
Q 2061 4195 1856 4195 
Q 1651 4195 1496 4134 
Q 1341 4074 1237 3968 
Q 1133 3862 1080 3721 
Q 1027 3581 1027 3421 
Q 1027 3264 1072 3117 
Q 1117 2970 1216 2856 
Q 1315 2742 1473 2673 
Q 1632 2605 1856 2605 
z
" transform="scale(0.015625)"/>
       </defs>
       <use xlink:href="#Lato-Regular-38"/>
       <use xlink:href="#Lato-Regular-30" x="58"/>
       <use xlink:href="#Lato-Regular-30" x="116"/>
      </g>
     </g>
    </g>
    <g id="ytick_6">
     <g id="line2d_9">
      <g>
       <use xlink:href="#m932bbbe85e" x="57.1175" y="44.213878" style="fill: #262626; stroke: #262626; stroke-width: 1.25"/>
      </g>
     </g>
     <g id="text_10">
      <!-- 1000 -->
      <g style="fill: #262626" transform="translate(22.0975 48.264971) scale(0.11 -0.11)">
       <use xlink:href="#Lato-Regular-31"/>
       <use xlink:href="#Lato-Regular-30" x="58"/>
       <use xlink:href="#Lato-Regular-30" x="116"/>
       <use xlink:href="#Lato-Regular-30" x="174"/>
      </g>
     </g>
    </g>
    <g id="ytick_7">
     <g id="line2d_10">
      <g>
       <use xlink:href="#m932bbbe85e" x="57.1175" y="18.352653" style="fill: #262626; stroke: #262626; stroke-width: 1.25"/>
      </g>
     </g>
     <g id="text_11">
      <!-- 1200 -->
      <g style="fill: #262626" transform="translate(22.0975 22.403747) scale(0.11 -0.11)">
       <use xlink:href="#Lato-Regular-31"/>
       <use xlink:href="#Lato-Regular-32" x="58"/>
       <use xlink:href="#Lato-Regular-30" x="116"/>
       <use xlink:href="#Lato-Regular-30" x="174"/>
      </g>
     </g>
    </g>
    <g id="text_12">
     <!-- Number of examples -->
     <g style="fill: #262626" transform="translate(16.03875 144.728438) rotate(-90) scale(0.12 -0.12)">
      <defs>
       <path id="Lato-Regular-4e" d="M 906 4586 
Q 947 4586 976 4581 
Q 1005 4576 1027 4565 
Q 1050 4554 1072 4533 
Q 1094 4512 1120 4480 
L 3773 1027 
Q 3766 1110 3761 1188 
Q 3757 1267 3757 1338 
L 3757 4586 
L 4301 4586 
L 4301 0 
L 3990 0 
Q 3917 0 3867 25 
Q 3818 51 3770 112 
L 1117 3565 
Q 1123 3485 1126 3408 
Q 1130 3331 1130 3267 
L 1130 0 
L 586 0 
L 586 4586 
L 906 4586 
L 906 4586 
z
" transform="scale(0.015625)"/>
       <path id="Lato-Regular-75" d="M 989 3242 
L 989 1174 
Q 989 806 1157 604 
Q 1325 403 1670 403 
Q 1920 403 2141 521 
Q 2362 640 2547 851 
L 2547 3242 
L 3117 3242 
L 3117 0 
L 2778 0 
Q 2656 0 2624 118 
L 2579 467 
Q 2368 234 2105 91 
Q 1843 -51 1504 -51 
Q 1238 -51 1035 37 
Q 832 125 694 285 
Q 557 445 488 672 
Q 419 899 419 1174 
L 419 3242 
L 989 3242 
z
" transform="scale(0.015625)"/>
       <path id="Lato-Regular-62" d="M 451 0 
L 451 4714 
L 1024 4714 
L 1024 2771 
Q 1226 3011 1485 3152 
Q 1744 3293 2080 3293 
Q 2365 3293 2593 3184 
Q 2822 3075 2982 2868 
Q 3142 2662 3227 2368 
Q 3312 2074 3312 1706 
Q 3312 1312 3216 989 
Q 3120 666 2939 437 
Q 2758 208 2499 81 
Q 2240 -45 1917 -45 
Q 1597 -45 1377 75 
Q 1158 195 995 416 
L 966 122 
Q 941 0 819 0 
L 451 0 
z
M 1891 2838 
Q 1613 2838 1405 2710 
Q 1197 2582 1024 2349 
L 1024 781 
Q 1181 570 1368 483 
Q 1555 397 1779 397 
Q 2237 397 2480 720 
Q 2723 1043 2723 1683 
Q 2723 2278 2507 2558 
Q 2291 2838 1891 2838 
z
" transform="scale(0.015625)"/>
       <path id="Lato-Regular-6f" d="M 1818 3293 
Q 2173 3293 2457 3174 
Q 2742 3056 2944 2838 
Q 3146 2621 3253 2312 
Q 3360 2003 3360 1622 
Q 3360 1238 3253 931 
Q 3146 624 2944 406 
Q 2742 189 2457 72 
Q 2173 -45 1818 -45 
Q 1459 -45 1172 72 
Q 886 189 684 406 
Q 483 624 376 931 
Q 269 1238 269 1622 
Q 269 2003 376 2312 
Q 483 2621 684 2838 
Q 886 3056 1172 3174 
Q 1459 3293 1818 3293 
z
M 1818 400 
Q 2298 400 2534 721 
Q 2771 1043 2771 1619 
Q 2771 2198 2534 2521 
Q 2298 2845 1818 2845 
Q 1574 2845 1393 2761 
Q 1213 2678 1093 2521 
Q 973 2365 913 2136 
Q 854 1907 854 1619 
Q 854 1043 1092 721 
Q 1331 400 1818 400 
z
" transform="scale(0.015625)"/>
       <path id="Lato-Regular-66" d="M 662 0 
L 662 2755 
L 304 2797 
Q 237 2813 193 2846 
Q 150 2880 150 2944 
L 150 3178 
L 662 3178 
L 662 3491 
Q 662 3770 740 3986 
Q 819 4202 964 4350 
Q 1110 4499 1315 4576 
Q 1520 4653 1776 4653 
Q 1994 4653 2176 4589 
L 2163 4304 
Q 2157 4227 2078 4220 
Q 2000 4214 1869 4214 
Q 1722 4214 1602 4176 
Q 1482 4138 1395 4051 
Q 1309 3965 1262 3824 
Q 1216 3683 1216 3475 
L 1216 3178 
L 2150 3178 
L 2150 2765 
L 1235 2765 
L 1235 0 
L 662 0 
z
" transform="scale(0.015625)"/>
       <path id="Lato-Regular-78" d="M 1210 1661 
L 118 3242 
L 666 3242 
Q 736 3242 768 3219 
Q 800 3197 826 3155 
L 1619 1939 
Q 1648 2029 1702 2118 
L 2400 3142 
Q 2429 3187 2462 3214 
Q 2496 3242 2544 3242 
L 3069 3242 
L 1978 1693 
L 3114 0 
L 2566 0 
Q 2496 0 2456 37 
Q 2416 74 2390 118 
L 1574 1389 
Q 1552 1296 1507 1222 
L 752 118 
Q 720 74 683 37 
Q 646 0 582 0 
L 74 0 
L 1210 1661 
z
" transform="scale(0.015625)"/>
       <path id="Lato-Regular-6c" d="M 1040 4714 
L 1040 0 
L 470 0 
L 470 4714 
L 1040 4714 
z
" transform="scale(0.015625)"/>
       <path id="Lato-Regular-73" d="M 2339 2707 
Q 2301 2637 2221 2637 
Q 2173 2637 2112 2672 
Q 2051 2707 1963 2750 
Q 1875 2794 1753 2830 
Q 1632 2867 1466 2867 
Q 1322 2867 1206 2830 
Q 1091 2794 1009 2730 
Q 928 2666 885 2581 
Q 842 2496 842 2397 
Q 842 2272 914 2189 
Q 986 2106 1104 2045 
Q 1222 1984 1372 1937 
Q 1523 1891 1681 1838 
Q 1840 1786 1990 1722 
Q 2141 1658 2259 1562 
Q 2378 1466 2450 1326 
Q 2522 1187 2522 992 
Q 2522 768 2442 577 
Q 2362 387 2205 248 
Q 2048 109 1821 29 
Q 1594 -51 1296 -51 
Q 957 -51 681 59 
Q 406 170 214 342 
L 349 560 
Q 374 602 409 624 
Q 445 646 499 646 
Q 557 646 621 601 
Q 685 557 776 502 
Q 867 448 998 403 
Q 1130 358 1325 358 
Q 1491 358 1616 401 
Q 1741 445 1824 518 
Q 1907 592 1947 688 
Q 1987 784 1987 893 
Q 1987 1027 1915 1115 
Q 1843 1203 1724 1265 
Q 1606 1328 1454 1374 
Q 1302 1421 1144 1472 
Q 986 1523 834 1588 
Q 682 1654 563 1753 
Q 445 1853 373 1998 
Q 301 2144 301 2352 
Q 301 2538 377 2709 
Q 454 2880 601 3009 
Q 749 3139 963 3216 
Q 1178 3293 1453 3293 
Q 1773 3293 2027 3192 
Q 2282 3091 2467 2915 
L 2339 2707 
z
" transform="scale(0.015625)"/>
      </defs>
      <use xlink:href="#Lato-Regular-4e"/>
      <use xlink:href="#Lato-Regular-75" x="75.475006"/>
      <use xlink:href="#Lato-Regular-6d" x="131.225006"/>
      <use xlink:href="#Lato-Regular-62" x="213.475021"/>
      <use xlink:href="#Lato-Regular-65" x="269.475021"/>
      <use xlink:href="#Lato-Regular-72" x="322.275024"/>
      <use xlink:href="#Lato-Regular-20" x="356.550034"/>
      <use xlink:href="#Lato-Regular-6f" x="382.15004"/>
      <use xlink:href="#Lato-Regular-66" x="437.725052"/>
      <use xlink:href="#Lato-Regular-20" x="470.900055"/>
      <use xlink:href="#Lato-Regular-65" x="496.500061"/>
      <use xlink:href="#Lato-Regular-78" x="548.675064"/>
      <use xlink:href="#Lato-Regular-61" x="598.475067"/>
      <use xlink:href="#Lato-Regular-6d" x="648.175079"/>
      <use xlink:href="#Lato-Regular-70" x="730.425095"/>
      <use xlink:href="#Lato-Regular-6c" x="786.475098"/>
      <use xlink:href="#Lato-Regular-65" x="810.075104"/>
      <use xlink:href="#Lato-Regular-73" x="862.875107"/>
     </g>
    </g>
   </g>
   <g id="patch_3">
    <path d="M 65.994773 173.52 
L 69.618149 173.52 
L 69.618149 173.390694 
L 65.994773 173.390694 
z
" clip-path="url(#p56053f741d)" style="fill: #3a5377; fill-opacity: 0.7; stroke: #3a5377; stroke-linejoin: miter"/>
   </g>
   <g id="patch_4">
    <path d="M 69.618149 173.52 
L 73.241526 173.52 
L 73.241526 173.52 
L 69.618149 173.52 
z
" clip-path="url(#p56053f741d)" style="fill: #3a5377; fill-opacity: 0.7; stroke: #3a5377; stroke-linejoin: miter"/>
   </g>
   <g id="patch_5">
    <path d="M 73.241526 173.52 
L 76.864903 173.52 
L 76.864903 173.52 
L 73.241526 173.52 
z
" clip-path="url(#p56053f741d)" style="fill: #3a5377; fill-opacity: 0.7; stroke: #3a5377; stroke-linejoin: miter"/>
   </g>
   <g id="patch_6">
    <path d="M 76.864903 173.52 
L 80.488279 173.52 
L 80.488279 171.709714 
L 76.864903 171.709714 
z
" clip-path="url(#p56053f741d)" style="fill: #3a5377; fill-opacity: 0.7; stroke: #3a5377; stroke-linejoin: miter"/>
   </g>
   <g id="patch_7">
    <path d="M 80.488279 173.52 
L 84.111656 173.52 
L 84.111656 167.313306 
L 80.488279 167.313306 
z
" clip-path="url(#p56053f741d)" style="fill: #3a5377; fill-opacity: 0.7; stroke: #3a5377; stroke-linejoin: miter"/>
   </g>
   <g id="patch_8">
    <path d="M 84.111656 173.52 
L 87.735032 173.52 
L 87.735032 149.85698 
L 84.111656 149.85698 
z
" clip-path="url(#p56053f741d)" style="fill: #3a5377; fill-opacity: 0.7; stroke: #3a5377; stroke-linejoin: miter"/>
   </g>
   <g id="patch_9">
    <path d="M 87.735032 173.52 
L 91.358409 173.52 
L 91.358409 149.210449 
L 87.735032 149.210449 
z
" clip-path="url(#p56053f741d)" style="fill: #3a5377; fill-opacity: 0.7; stroke: #3a5377; stroke-linejoin: miter"/>
   </g>
   <g id="patch_10">
    <path d="M 91.358409 173.52 
L 94.981786 173.52 
L 94.981786 150.244898 
L 91.358409 150.244898 
z
" clip-path="url(#p56053f741d)" style="fill: #3a5377; fill-opacity: 0.7; stroke: #3a5377; stroke-linejoin: miter"/>
   </g>
   <g id="patch_11">
    <path d="M 94.981786 173.52 
L 98.605162 173.52 
L 98.605162 137.960816 
L 94.981786 137.960816 
z
" clip-path="url(#p56053f741d)" style="fill: #3a5377; fill-opacity: 0.7; stroke: #3a5377; stroke-linejoin: miter"/>
   </g>
   <g id="patch_12">
    <path d="M 98.605162 173.52 
L 102.228539 173.52 
L 102.228539 128.650776 
L 98.605162 128.650776 
z
" clip-path="url(#p56053f741d)" style="fill: #3a5377; fill-opacity: 0.7; stroke: #3a5377; stroke-linejoin: miter"/>
   </g>
   <g id="patch_13">
    <path d="M 102.228539 173.52 
L 105.851916 173.52 
L 105.851916 132.400653 
L 102.228539 132.400653 
z
" clip-path="url(#p56053f741d)" style="fill: #3a5377; fill-opacity: 0.7; stroke: #3a5377; stroke-linejoin: miter"/>
   </g>
   <g id="patch_14">
    <path d="M 105.851916 173.52 
L 109.475292 173.52 
L 109.475292 115.332245 
L 105.851916 115.332245 
z
" clip-path="url(#p56053f741d)" style="fill: #3a5377; fill-opacity: 0.7; stroke: #3a5377; stroke-linejoin: miter"/>
   </g>
   <g id="patch_15">
    <path d="M 109.475292 173.52 
L 113.098669 173.52 
L 113.098669 129.685224 
L 109.475292 129.685224 
z
" clip-path="url(#p56053f741d)" style="fill: #3a5377; fill-opacity: 0.7; stroke: #3a5377; stroke-linejoin: miter"/>
   </g>
   <g id="patch_16">
    <path d="M 113.098669 173.52 
L 116.722045 173.52 
L 116.722045 140.029714 
L 113.098669 140.029714 
z
" clip-path="url(#p56053f741d)" style="fill: #3a5377; fill-opacity: 0.7; stroke: #3a5377; stroke-linejoin: miter"/>
   </g>
   <g id="patch_17">
    <path d="M 116.722045 173.52 
L 120.345422 173.52 
L 120.345422 147.012245 
L 116.722045 147.012245 
z
" clip-path="url(#p56053f741d)" style="fill: #3a5377; fill-opacity: 0.7; stroke: #3a5377; stroke-linejoin: miter"/>
   </g>
   <g id="patch_18">
    <path d="M 120.345422 173.52 
L 123.968799 173.52 
L 123.968799 154.899918 
L 120.345422 154.899918 
z
" clip-path="url(#p56053f741d)" style="fill: #3a5377; fill-opacity: 0.7; stroke: #3a5377; stroke-linejoin: miter"/>
   </g>
   <g id="patch_19">
    <path d="M 123.968799 173.52 
L 127.592175 173.52 
L 127.592175 161.106612 
L 123.968799 161.106612 
z
" clip-path="url(#p56053f741d)" style="fill: #3a5377; fill-opacity: 0.7; stroke: #3a5377; stroke-linejoin: miter"/>
   </g>
   <g id="patch_20">
    <path d="M 127.592175 173.52 
L 131.215552 173.52 
L 131.215552 162.52898 
L 127.592175 162.52898 
z
" clip-path="url(#p56053f741d)" style="fill: #3a5377; fill-opacity: 0.7; stroke: #3a5377; stroke-linejoin: miter"/>
   </g>
   <g id="patch_21">
    <path d="M 131.215552 173.52 
L 134.838929 173.52 
L 134.838929 161.753143 
L 131.215552 161.753143 
z
" clip-path="url(#p56053f741d)" style="fill: #3a5377; fill-opacity: 0.7; stroke: #3a5377; stroke-linejoin: miter"/>
   </g>
   <g id="patch_22">
    <path d="M 134.838929 173.52 
L 138.462305 173.52 
L 138.462305 164.080653 
L 134.838929 164.080653 
z
" clip-path="url(#p56053f741d)" style="fill: #3a5377; fill-opacity: 0.7; stroke: #3a5377; stroke-linejoin: miter"/>
   </g>
   <g id="patch_23">
    <path d="M 138.462305 173.52 
L 142.085682 173.52 
L 142.085682 167.830531 
L 138.462305 167.830531 
z
" clip-path="url(#p56053f741d)" style="fill: #3a5377; fill-opacity: 0.7; stroke: #3a5377; stroke-linejoin: miter"/>
   </g>
   <g id="patch_24">
    <path d="M 142.085682 173.52 
L 145.709058 173.52 
L 145.709058 169.899429 
L 142.085682 169.899429 
z
" clip-path="url(#p56053f741d)" style="fill: #3a5377; fill-opacity: 0.7; stroke: #3a5377; stroke-linejoin: miter"/>
   </g>
   <g id="patch_25">
    <path d="M 145.709058 173.52 
L 149.332435 173.52 
L 149.332435 171.321796 
L 145.709058 171.321796 
z
" clip-path="url(#p56053f741d)" style="fill: #3a5377; fill-opacity: 0.7; stroke: #3a5377; stroke-linejoin: miter"/>
   </g>
   <g id="patch_26">
    <path d="M 149.332435 173.52 
L 152.955812 173.52 
L 152.955812 170.416653 
L 149.332435 170.416653 
z
" clip-path="url(#p56053f741d)" style="fill: #3a5377; fill-opacity: 0.7; stroke: #3a5377; stroke-linejoin: miter"/>
   </g>
   <g id="patch_27">
    <path d="M 152.955812 173.52 
L 156.579188 173.52 
L 156.579188 171.968327 
L 152.955812 171.968327 
z
" clip-path="url(#p56053f741d)" style="fill: #3a5377; fill-opacity: 0.7; stroke: #3a5377; stroke-linejoin: miter"/>
   </g>
   <g id="patch_28">
    <path d="M 156.579188 173.52 
L 160.202565 173.52 
L 160.202565 170.416653 
L 156.579188 170.416653 
z
" clip-path="url(#p56053f741d)" style="fill: #3a5377; fill-opacity: 0.7; stroke: #3a5377; stroke-linejoin: miter"/>
   </g>
   <g id="patch_29">
    <path d="M 160.202565 173.52 
L 163.825942 173.52 
L 163.825942 172.097633 
L 160.202565 172.097633 
z
" clip-path="url(#p56053f741d)" style="fill: #3a5377; fill-opacity: 0.7; stroke: #3a5377; stroke-linejoin: miter"/>
   </g>
   <g id="patch_30">
    <path d="M 163.825942 173.52 
L 167.449318 173.52 
L 167.449318 172.744163 
L 163.825942 172.744163 
z
" clip-path="url(#p56053f741d)" style="fill: #3a5377; fill-opacity: 0.7; stroke: #3a5377; stroke-linejoin: miter"/>
   </g>
   <g id="patch_31">
    <path d="M 167.449318 173.52 
L 171.072695 173.52 
L 171.072695 173.002776 
L 167.449318 173.002776 
z
" clip-path="url(#p56053f741d)" style="fill: #3a5377; fill-opacity: 0.7; stroke: #3a5377; stroke-linejoin: miter"/>
   </g>
   <g id="patch_32">
    <path d="M 171.072695 173.52 
L 174.696071 173.52 
L 174.696071 173.52 
L 171.072695 173.52 
z
" clip-path="url(#p56053f741d)" style="fill: #3a5377; fill-opacity: 0.7; stroke: #3a5377; stroke-linejoin: miter"/>
   </g>
   <g id="patch_33">
    <path d="M 174.696071 173.52 
L 178.319448 173.52 
L 178.319448 173.390694 
L 174.696071 173.390694 
z
" clip-path="url(#p56053f741d)" style="fill: #3a5377; fill-opacity: 0.7; stroke: #3a5377; stroke-linejoin: miter"/>
   </g>
   <g id="patch_34">
    <path d="M 178.319448 173.52 
L 181.942825 173.52 
L 181.942825 173.261388 
L 178.319448 173.261388 
z
" clip-path="url(#p56053f741d)" style="fill: #3a5377; fill-opacity: 0.7; stroke: #3a5377; stroke-linejoin: miter"/>
   </g>
   <g id="patch_35">
    <path d="M 181.942825 173.52 
L 185.566201 173.52 
L 185.566201 173.52 
L 181.942825 173.52 
z
" clip-path="url(#p56053f741d)" style="fill: #3a5377; fill-opacity: 0.7; stroke: #3a5377; stroke-linejoin: miter"/>
   </g>
   <g id="patch_36">
    <path d="M 185.566201 173.52 
L 189.189578 173.52 
L 189.189578 173.52 
L 185.566201 173.52 
z
" clip-path="url(#p56053f741d)" style="fill: #3a5377; fill-opacity: 0.7; stroke: #3a5377; stroke-linejoin: miter"/>
   </g>
   <g id="patch_37">
    <path d="M 189.189578 173.52 
L 192.812955 173.52 
L 192.812955 173.261388 
L 189.189578 173.261388 
z
" clip-path="url(#p56053f741d)" style="fill: #3a5377; fill-opacity: 0.7; stroke: #3a5377; stroke-linejoin: miter"/>
   </g>
   <g id="patch_38">
    <path d="M 192.812955 173.52 
L 196.436331 173.52 
L 196.436331 173.52 
L 192.812955 173.52 
z
" clip-path="url(#p56053f741d)" style="fill: #3a5377; fill-opacity: 0.7; stroke: #3a5377; stroke-linejoin: miter"/>
   </g>
   <g id="patch_39">
    <path d="M 196.436331 173.52 
L 200.059708 173.52 
L 200.059708 173.52 
L 196.436331 173.52 
z
" clip-path="url(#p56053f741d)" style="fill: #3a5377; fill-opacity: 0.7; stroke: #3a5377; stroke-linejoin: miter"/>
   </g>
   <g id="patch_40">
    <path d="M 200.059708 173.52 
L 203.683084 173.52 
L 203.683084 173.390694 
L 200.059708 173.390694 
z
" clip-path="url(#p56053f741d)" style="fill: #3a5377; fill-opacity: 0.7; stroke: #3a5377; stroke-linejoin: miter"/>
   </g>
   <g id="patch_41">
    <path d="M 203.683084 173.52 
L 207.306461 173.52 
L 207.306461 173.390694 
L 203.683084 173.390694 
z
" clip-path="url(#p56053f741d)" style="fill: #3a5377; fill-opacity: 0.7; stroke: #3a5377; stroke-linejoin: miter"/>
   </g>
   <g id="patch_42">
    <path d="M 207.306461 173.52 
L 210.929838 173.52 
L 210.929838 173.52 
L 207.306461 173.52 
z
" clip-path="url(#p56053f741d)" style="fill: #3a5377; fill-opacity: 0.7; stroke: #3a5377; stroke-linejoin: miter"/>
   </g>
   <g id="patch_43">
    <path d="M 210.929838 173.52 
L 214.553214 173.52 
L 214.553214 173.261388 
L 210.929838 173.261388 
z
" clip-path="url(#p56053f741d)" style="fill: #3a5377; fill-opacity: 0.7; stroke: #3a5377; stroke-linejoin: miter"/>
   </g>
   <g id="patch_44">
    <path d="M 214.553214 173.52 
L 218.176591 173.52 
L 218.176591 173.390694 
L 214.553214 173.390694 
z
" clip-path="url(#p56053f741d)" style="fill: #3a5377; fill-opacity: 0.7; stroke: #3a5377; stroke-linejoin: miter"/>
   </g>
   <g id="patch_45">
    <path d="M 218.176591 173.52 
L 221.799968 173.52 
L 221.799968 173.52 
L 218.176591 173.52 
z
" clip-path="url(#p56053f741d)" style="fill: #3a5377; fill-opacity: 0.7; stroke: #3a5377; stroke-linejoin: miter"/>
   </g>
   <g id="patch_46">
    <path d="M 221.799968 173.52 
L 225.423344 173.52 
L 225.423344 173.52 
L 221.799968 173.52 
z
" clip-path="url(#p56053f741d)" style="fill: #3a5377; fill-opacity: 0.7; stroke: #3a5377; stroke-linejoin: miter"/>
   </g>
   <g id="patch_47">
    <path d="M 225.423344 173.52 
L 229.046721 173.52 
L 229.046721 173.52 
L 225.423344 173.52 
z
" clip-path="url(#p56053f741d)" style="fill: #3a5377; fill-opacity: 0.7; stroke: #3a5377; stroke-linejoin: miter"/>
   </g>
   <g id="patch_48">
    <path d="M 229.046721 173.52 
L 232.670097 173.52 
L 232.670097 173.52 
L 229.046721 173.52 
z
" clip-path="url(#p56053f741d)" style="fill: #3a5377; fill-opacity: 0.7; stroke: #3a5377; stroke-linejoin: miter"/>
   </g>
   <g id="patch_49">
    <path d="M 232.670097 173.52 
L 236.293474 173.52 
L 236.293474 173.52 
L 232.670097 173.52 
z
" clip-path="url(#p56053f741d)" style="fill: #3a5377; fill-opacity: 0.7; stroke: #3a5377; stroke-linejoin: miter"/>
   </g>
   <g id="patch_50">
    <path d="M 236.293474 173.52 
L 239.916851 173.52 
L 239.916851 173.52 
L 236.293474 173.52 
z
" clip-path="url(#p56053f741d)" style="fill: #3a5377; fill-opacity: 0.7; stroke: #3a5377; stroke-linejoin: miter"/>
   </g>
   <g id="patch_51">
    <path d="M 239.916851 173.52 
L 243.540227 173.52 
L 243.540227 173.52 
L 239.916851 173.52 
z
" clip-path="url(#p56053f741d)" style="fill: #3a5377; fill-opacity: 0.7; stroke: #3a5377; stroke-linejoin: miter"/>
   </g>
   <g id="patch_52">
    <path d="M 65.994773 173.390694 
L 69.618149 173.390694 
L 69.618149 173.261388 
L 65.994773 173.261388 
z
" clip-path="url(#p56053f741d)" style="fill: #ca675f; fill-opacity: 0.7; stroke: #ca675f; stroke-linejoin: miter"/>
   </g>
   <g id="patch_53">
    <path d="M 69.618149 173.52 
L 73.241526 173.52 
L 73.241526 173.52 
L 69.618149 173.52 
z
" clip-path="url(#p56053f741d)" style="fill: #ca675f; fill-opacity: 0.7; stroke: #ca675f; stroke-linejoin: miter"/>
   </g>
   <g id="patch_54">
    <path d="M 73.241526 173.52 
L 76.864903 173.52 
L 76.864903 173.52 
L 73.241526 173.52 
z
" clip-path="url(#p56053f741d)" style="fill: #ca675f; fill-opacity: 0.7; stroke: #ca675f; stroke-linejoin: miter"/>
   </g>
   <g id="patch_55">
    <path d="M 76.864903 171.709714 
L 80.488279 171.709714 
L 80.488279 170.158041 
L 76.864903 170.158041 
z
" clip-path="url(#p56053f741d)" style="fill: #ca675f; fill-opacity: 0.7; stroke: #ca675f; stroke-linejoin: miter"/>
   </g>
   <g id="patch_56">
    <path d="M 80.488279 167.313306 
L 84.111656 167.313306 
L 84.111656 160.072163 
L 80.488279 160.072163 
z
" clip-path="url(#p56053f741d)" style="fill: #ca675f; fill-opacity: 0.7; stroke: #ca675f; stroke-linejoin: miter"/>
   </g>
   <g id="patch_57">
    <path d="M 84.111656 149.85698 
L 87.735032 149.85698 
L 87.735032 118.694204 
L 84.111656 118.694204 
z
" clip-path="url(#p56053f741d)" style="fill: #ca675f; fill-opacity: 0.7; stroke: #ca675f; stroke-linejoin: miter"/>
   </g>
   <g id="patch_58">
    <path d="M 87.735032 149.210449 
L 91.358409 149.210449 
L 91.358409 115.849469 
L 87.735032 115.849469 
z
" clip-path="url(#p56053f741d)" style="fill: #ca675f; fill-opacity: 0.7; stroke: #ca675f; stroke-linejoin: miter"/>
   </g>
   <g id="patch_59">
    <path d="M 91.358409 150.244898 
L 94.981786 150.244898 
L 94.981786 125.676735 
L 91.358409 125.676735 
z
" clip-path="url(#p56053f741d)" style="fill: #ca675f; fill-opacity: 0.7; stroke: #ca675f; stroke-linejoin: miter"/>
   </g>
   <g id="patch_60">
    <path d="M 94.981786 137.960816 
L 98.605162 137.960816 
L 98.605162 103.177469 
L 94.981786 103.177469 
z
" clip-path="url(#p56053f741d)" style="fill: #ca675f; fill-opacity: 0.7; stroke: #ca675f; stroke-linejoin: miter"/>
   </g>
   <g id="patch_61">
    <path d="M 98.605162 128.650776 
L 102.228539 128.650776 
L 102.228539 86.367673 
L 98.605162 86.367673 
z
" clip-path="url(#p56053f741d)" style="fill: #ca675f; fill-opacity: 0.7; stroke: #ca675f; stroke-linejoin: miter"/>
   </g>
   <g id="patch_62">
    <path d="M 102.228539 132.400653 
L 105.851916 132.400653 
L 105.851916 91.927837 
L 102.228539 91.927837 
z
" clip-path="url(#p56053f741d)" style="fill: #ca675f; fill-opacity: 0.7; stroke: #ca675f; stroke-linejoin: miter"/>
   </g>
   <g id="patch_63">
    <path d="M 105.851916 115.332245 
L 109.475292 115.332245 
L 109.475292 58.696163 
L 105.851916 58.696163 
z
" clip-path="url(#p56053f741d)" style="fill: #ca675f; fill-opacity: 0.7; stroke: #ca675f; stroke-linejoin: miter"/>
   </g>
   <g id="patch_64">
    <path d="M 109.475292 129.685224 
L 113.098669 129.685224 
L 113.098669 83.13502 
L 109.475292 83.13502 
z
" clip-path="url(#p56053f741d)" style="fill: #ca675f; fill-opacity: 0.7; stroke: #ca675f; stroke-linejoin: miter"/>
   </g>
   <g id="patch_65">
    <path d="M 113.098669 140.029714 
L 116.722045 140.029714 
L 116.722045 108.866939 
L 113.098669 108.866939 
z
" clip-path="url(#p56053f741d)" style="fill: #ca675f; fill-opacity: 0.7; stroke: #ca675f; stroke-linejoin: miter"/>
   </g>
   <g id="patch_66">
    <path d="M 116.722045 147.012245 
L 120.345422 147.012245 
L 120.345422 121.538939 
L 116.722045 121.538939 
z
" clip-path="url(#p56053f741d)" style="fill: #ca675f; fill-opacity: 0.7; stroke: #ca675f; stroke-linejoin: miter"/>
   </g>
   <g id="patch_67">
    <path d="M 120.345422 154.899918 
L 123.968799 154.899918 
L 123.968799 137.572898 
L 120.345422 137.572898 
z
" clip-path="url(#p56053f741d)" style="fill: #ca675f; fill-opacity: 0.7; stroke: #ca675f; stroke-linejoin: miter"/>
   </g>
   <g id="patch_68">
    <path d="M 123.968799 161.106612 
L 127.592175 161.106612 
L 127.592175 150.891429 
L 123.968799 150.891429 
z
" clip-path="url(#p56053f741d)" style="fill: #ca675f; fill-opacity: 0.7; stroke: #ca675f; stroke-linejoin: miter"/>
   </g>
   <g id="patch_69">
    <path d="M 127.592175 162.52898 
L 131.215552 162.52898 
L 131.215552 151.279347 
L 127.592175 151.279347 
z
" clip-path="url(#p56053f741d)" style="fill: #ca675f; fill-opacity: 0.7; stroke: #ca675f; stroke-linejoin: miter"/>
   </g>
   <g id="patch_70">
    <path d="M 131.215552 161.753143 
L 134.838929 161.753143 
L 134.838929 150.891429 
L 131.215552 150.891429 
z
" clip-path="url(#p56053f741d)" style="fill: #ca675f; fill-opacity: 0.7; stroke: #ca675f; stroke-linejoin: miter"/>
   </g>
   <g id="patch_71">
    <path d="M 134.838929 164.080653 
L 138.462305 164.080653 
L 138.462305 158.132571 
L 134.838929 158.132571 
z
" clip-path="url(#p56053f741d)" style="fill: #ca675f; fill-opacity: 0.7; stroke: #ca675f; stroke-linejoin: miter"/>
   </g>
   <g id="patch_72">
    <path d="M 138.462305 167.830531 
L 142.085682 167.830531 
L 142.085682 164.985796 
L 138.462305 164.985796 
z
" clip-path="url(#p56053f741d)" style="fill: #ca675f; fill-opacity: 0.7; stroke: #ca675f; stroke-linejoin: miter"/>
   </g>
   <g id="patch_73">
    <path d="M 142.085682 169.899429 
L 145.709058 169.899429 
L 145.709058 167.830531 
L 142.085682 167.830531 
z
" clip-path="url(#p56053f741d)" style="fill: #ca675f; fill-opacity: 0.7; stroke: #ca675f; stroke-linejoin: miter"/>
   </g>
   <g id="patch_74">
    <path d="M 145.709058 171.321796 
L 149.332435 171.321796 
L 149.332435 168.477061 
L 145.709058 168.477061 
z
" clip-path="url(#p56053f741d)" style="fill: #ca675f; fill-opacity: 0.7; stroke: #ca675f; stroke-linejoin: miter"/>
   </g>
   <g id="patch_75">
    <path d="M 149.332435 170.416653 
L 152.955812 170.416653 
L 152.955812 167.054694 
L 149.332435 167.054694 
z
" clip-path="url(#p56053f741d)" style="fill: #ca675f; fill-opacity: 0.7; stroke: #ca675f; stroke-linejoin: miter"/>
   </g>
   <g id="patch_76">
    <path d="M 152.955812 171.968327 
L 156.579188 171.968327 
L 156.579188 170.028735 
L 152.955812 170.028735 
z
" clip-path="url(#p56053f741d)" style="fill: #ca675f; fill-opacity: 0.7; stroke: #ca675f; stroke-linejoin: miter"/>
   </g>
   <g id="patch_77">
    <path d="M 156.579188 170.416653 
L 160.202565 170.416653 
L 160.202565 169.252898 
L 156.579188 169.252898 
z
" clip-path="url(#p56053f741d)" style="fill: #ca675f; fill-opacity: 0.7; stroke: #ca675f; stroke-linejoin: miter"/>
   </g>
   <g id="patch_78">
    <path d="M 160.202565 172.097633 
L 163.825942 172.097633 
L 163.825942 170.933878 
L 160.202565 170.933878 
z
" clip-path="url(#p56053f741d)" style="fill: #ca675f; fill-opacity: 0.7; stroke: #ca675f; stroke-linejoin: miter"/>
   </g>
   <g id="patch_79">
    <path d="M 163.825942 172.744163 
L 167.449318 172.744163 
L 167.449318 171.968327 
L 163.825942 171.968327 
z
" clip-path="url(#p56053f741d)" style="fill: #ca675f; fill-opacity: 0.7; stroke: #ca675f; stroke-linejoin: miter"/>
   </g>
   <g id="patch_80">
    <path d="M 167.449318 173.002776 
L 171.072695 173.002776 
L 171.072695 172.485551 
L 167.449318 172.485551 
z
" clip-path="url(#p56053f741d)" style="fill: #ca675f; fill-opacity: 0.7; stroke: #ca675f; stroke-linejoin: miter"/>
   </g>
   <g id="patch_81">
    <path d="M 171.072695 173.52 
L 174.696071 173.52 
L 174.696071 173.002776 
L 171.072695 173.002776 
z
" clip-path="url(#p56053f741d)" style="fill: #ca675f; fill-opacity: 0.7; stroke: #ca675f; stroke-linejoin: miter"/>
   </g>
   <g id="patch_82">
    <path d="M 174.696071 173.390694 
L 178.319448 173.390694 
L 178.319448 173.132082 
L 174.696071 173.132082 
z
" clip-path="url(#p56053f741d)" style="fill: #ca675f; fill-opacity: 0.7; stroke: #ca675f; stroke-linejoin: miter"/>
   </g>
   <g id="patch_83">
    <path d="M 178.319448 173.261388 
L 181.942825 173.261388 
L 181.942825 173.002776 
L 178.319448 173.002776 
z
" clip-path="url(#p56053f741d)" style="fill: #ca675f; fill-opacity: 0.7; stroke: #ca675f; stroke-linejoin: miter"/>
   </g>
   <g id="patch_84">
    <path d="M 181.942825 173.52 
L 185.566201 173.52 
L 185.566201 173.52 
L 181.942825 173.52 
z
" clip-path="url(#p56053f741d)" style="fill: #ca675f; fill-opacity: 0.7; stroke: #ca675f; stroke-linejoin: miter"/>
   </g>
   <g id="patch_85">
    <path d="M 185.566201 173.52 
L 189.189578 173.52 
L 189.189578 173.390694 
L 185.566201 173.390694 
z
" clip-path="url(#p56053f741d)" style="fill: #ca675f; fill-opacity: 0.7; stroke: #ca675f; stroke-linejoin: miter"/>
   </g>
   <g id="patch_86">
    <path d="M 189.189578 173.261388 
L 192.812955 173.261388 
L 192.812955 173.002776 
L 189.189578 173.002776 
z
" clip-path="url(#p56053f741d)" style="fill: #ca675f; fill-opacity: 0.7; stroke: #ca675f; stroke-linejoin: miter"/>
   </g>
   <g id="patch_87">
    <path d="M 192.812955 173.52 
L 196.436331 173.52 
L 196.436331 173.52 
L 192.812955 173.52 
z
" clip-path="url(#p56053f741d)" style="fill: #ca675f; fill-opacity: 0.7; stroke: #ca675f; stroke-linejoin: miter"/>
   </g>
   <g id="patch_88">
    <path d="M 196.436331 173.52 
L 200.059708 173.52 
L 200.059708 173.52 
L 196.436331 173.52 
z
" clip-path="url(#p56053f741d)" style="fill: #ca675f; fill-opacity: 0.7; stroke: #ca675f; stroke-linejoin: miter"/>
   </g>
   <g id="patch_89">
    <path d="M 200.059708 173.390694 
L 203.683084 173.390694 
L 203.683084 173.390694 
L 200.059708 173.390694 
z
" clip-path="url(#p56053f741d)" style="fill: #ca675f; fill-opacity: 0.7; stroke: #ca675f; stroke-linejoin: miter"/>
   </g>
   <g id="patch_90">
    <path d="M 203.683084 173.390694 
L 207.306461 173.390694 
L 207.306461 173.261388 
L 203.683084 173.261388 
z
" clip-path="url(#p56053f741d)" style="fill: #ca675f; fill-opacity: 0.7; stroke: #ca675f; stroke-linejoin: miter"/>
   </g>
   <g id="patch_91">
    <path d="M 207.306461 173.52 
L 210.929838 173.52 
L 210.929838 173.52 
L 207.306461 173.52 
z
" clip-path="url(#p56053f741d)" style="fill: #ca675f; fill-opacity: 0.7; stroke: #ca675f; stroke-linejoin: miter"/>
   </g>
   <g id="patch_92">
    <path d="M 210.929838 173.261388 
L 214.553214 173.261388 
L 214.553214 173.132082 
L 210.929838 173.132082 
z
" clip-path="url(#p56053f741d)" style="fill: #ca675f; fill-opacity: 0.7; stroke: #ca675f; stroke-linejoin: miter"/>
   </g>
   <g id="patch_93">
    <path d="M 214.553214 173.390694 
L 218.176591 173.390694 
L 218.176591 173.261388 
L 214.553214 173.261388 
z
" clip-path="url(#p56053f741d)" style="fill: #ca675f; fill-opacity: 0.7; stroke: #ca675f; stroke-linejoin: miter"/>
   </g>
   <g id="patch_94">
    <path d="M 218.176591 173.52 
L 221.799968 173.52 
L 221.799968 173.52 
L 218.176591 173.52 
z
" clip-path="url(#p56053f741d)" style="fill: #ca675f; fill-opacity: 0.7; stroke: #ca675f; stroke-linejoin: miter"/>
   </g>
   <g id="patch_95">
    <path d="M 221.799968 173.52 
L 225.423344 173.52 
L 225.423344 173.52 
L 221.799968 173.52 
z
" clip-path="url(#p56053f741d)" style="fill: #ca675f; fill-opacity: 0.7; stroke: #ca675f; stroke-linejoin: miter"/>
   </g>
   <g id="patch_96">
    <path d="M 225.423344 173.52 
L 229.046721 173.52 
L 229.046721 173.52 
L 225.423344 173.52 
z
" clip-path="url(#p56053f741d)" style="fill: #ca675f; fill-opacity: 0.7; stroke: #ca675f; stroke-linejoin: miter"/>
   </g>
   <g id="patch_97">
    <path d="M 229.046721 173.52 
L 232.670097 173.52 
L 232.670097 173.52 
L 229.046721 173.52 
z
" clip-path="url(#p56053f741d)" style="fill: #ca675f; fill-opacity: 0.7; stroke: #ca675f; stroke-linejoin: miter"/>
   </g>
   <g id="patch_98">
    <path d="M 232.670097 173.52 
L 236.293474 173.52 
L 236.293474 173.52 
L 232.670097 173.52 
z
" clip-path="url(#p56053f741d)" style="fill: #ca675f; fill-opacity: 0.7; stroke: #ca675f; stroke-linejoin: miter"/>
   </g>
   <g id="patch_99">
    <path d="M 236.293474 173.52 
L 239.916851 173.52 
L 239.916851 173.52 
L 236.293474 173.52 
z
" clip-path="url(#p56053f741d)" style="fill: #ca675f; fill-opacity: 0.7; stroke: #ca675f; stroke-linejoin: miter"/>
   </g>
   <g id="patch_100">
    <path d="M 239.916851 173.52 
L 243.540227 173.52 
L 243.540227 173.52 
L 239.916851 173.52 
z
" clip-path="url(#p56053f741d)" style="fill: #ca675f; fill-opacity: 0.7; stroke: #ca675f; stroke-linejoin: miter"/>
   </g>
   <g id="patch_101">
    <path d="M 65.994773 173.261388 
L 69.618149 173.261388 
L 69.618149 173.261388 
L 65.994773 173.261388 
z
" clip-path="url(#p56053f741d)" style="fill: #e6be93; fill-opacity: 0.7; stroke: #e6be93; stroke-linejoin: miter"/>
   </g>
   <g id="patch_102">
    <path d="M 69.618149 173.52 
L 73.241526 173.52 
L 73.241526 173.52 
L 69.618149 173.52 
z
" clip-path="url(#p56053f741d)" style="fill: #e6be93; fill-opacity: 0.7; stroke: #e6be93; stroke-linejoin: miter"/>
   </g>
   <g id="patch_103">
    <path d="M 73.241526 173.52 
L 76.864903 173.52 
L 76.864903 173.52 
L 73.241526 173.52 
z
" clip-path="url(#p56053f741d)" style="fill: #e6be93; fill-opacity: 0.7; stroke: #e6be93; stroke-linejoin: miter"/>
   </g>
   <g id="patch_104">
    <path d="M 76.864903 170.158041 
L 80.488279 170.158041 
L 80.488279 169.640816 
L 76.864903 169.640816 
z
" clip-path="url(#p56053f741d)" style="fill: #e6be93; fill-opacity: 0.7; stroke: #e6be93; stroke-linejoin: miter"/>
   </g>
   <g id="patch_105">
    <path d="M 80.488279 160.072163 
L 84.111656 160.072163 
L 84.111656 156.83951 
L 80.488279 156.83951 
z
" clip-path="url(#p56053f741d)" style="fill: #e6be93; fill-opacity: 0.7; stroke: #e6be93; stroke-linejoin: miter"/>
   </g>
   <g id="patch_106">
    <path d="M 84.111656 118.694204 
L 87.735032 118.694204 
L 87.735032 112.099592 
L 84.111656 112.099592 
z
" clip-path="url(#p56053f741d)" style="fill: #e6be93; fill-opacity: 0.7; stroke: #e6be93; stroke-linejoin: miter"/>
   </g>
   <g id="patch_107">
    <path d="M 87.735032 115.849469 
L 91.358409 115.849469 
L 91.358409 102.660245 
L 87.735032 102.660245 
z
" clip-path="url(#p56053f741d)" style="fill: #e6be93; fill-opacity: 0.7; stroke: #e6be93; stroke-linejoin: miter"/>
   </g>
   <g id="patch_108">
    <path d="M 91.358409 125.676735 
L 94.981786 125.676735 
L 94.981786 106.022204 
L 91.358409 106.022204 
z
" clip-path="url(#p56053f741d)" style="fill: #e6be93; fill-opacity: 0.7; stroke: #e6be93; stroke-linejoin: miter"/>
   </g>
   <g id="patch_109">
    <path d="M 94.981786 103.177469 
L 98.605162 103.177469 
L 98.605162 70.204408 
L 94.981786 70.204408 
z
" clip-path="url(#p56053f741d)" style="fill: #e6be93; fill-opacity: 0.7; stroke: #e6be93; stroke-linejoin: miter"/>
   </g>
   <g id="patch_110">
    <path d="M 98.605162 86.367673 
L 102.228539 86.367673 
L 102.228539 46.541388 
L 98.605162 46.541388 
z
" clip-path="url(#p56053f741d)" style="fill: #e6be93; fill-opacity: 0.7; stroke: #e6be93; stroke-linejoin: miter"/>
   </g>
   <g id="patch_111">
    <path d="M 102.228539 91.927837 
L 105.851916 91.927837 
L 105.851916 51.325714 
L 102.228539 51.325714 
z
" clip-path="url(#p56053f741d)" style="fill: #e6be93; fill-opacity: 0.7; stroke: #e6be93; stroke-linejoin: miter"/>
   </g>
   <g id="patch_112">
    <path d="M 105.851916 58.696163 
L 109.475292 58.696163 
L 109.475292 15.12 
L 105.851916 15.12 
z
" clip-path="url(#p56053f741d)" style="fill: #e6be93; fill-opacity: 0.7; stroke: #e6be93; stroke-linejoin: miter"/>
   </g>
   <g id="patch_113">
    <path d="M 109.475292 83.13502 
L 113.098669 83.13502 
L 113.098669 40.334694 
L 109.475292 40.334694 
z
" clip-path="url(#p56053f741d)" style="fill: #e6be93; fill-opacity: 0.7; stroke: #e6be93; stroke-linejoin: miter"/>
   </g>
   <g id="patch_114">
    <path d="M 113.098669 108.866939 
L 116.722045 108.866939 
L 116.722045 80.290286 
L 113.098669 80.290286 
z
" clip-path="url(#p56053f741d)" style="fill: #e6be93; fill-opacity: 0.7; stroke: #e6be93; stroke-linejoin: miter"/>
   </g>
   <g id="patch_115">
    <path d="M 116.722045 121.538939 
L 120.345422 121.538939 
L 120.345422 96.324245 
L 116.722045 96.324245 
z
" clip-path="url(#p56053f741d)" style="fill: #e6be93; fill-opacity: 0.7; stroke: #e6be93; stroke-linejoin: miter"/>
   </g>
   <g id="patch_116">
    <path d="M 120.345422 137.572898 
L 123.968799 137.572898 
L 123.968799 117.142531 
L 120.345422 117.142531 
z
" clip-path="url(#p56053f741d)" style="fill: #e6be93; fill-opacity: 0.7; stroke: #e6be93; stroke-linejoin: miter"/>
   </g>
   <g id="patch_117">
    <path d="M 123.968799 150.891429 
L 127.592175 150.891429 
L 127.592175 130.978286 
L 123.968799 130.978286 
z
" clip-path="url(#p56053f741d)" style="fill: #e6be93; fill-opacity: 0.7; stroke: #e6be93; stroke-linejoin: miter"/>
   </g>
   <g id="patch_118">
    <path d="M 127.592175 151.279347 
L 131.215552 151.279347 
L 131.215552 133.047184 
L 127.592175 133.047184 
z
" clip-path="url(#p56053f741d)" style="fill: #e6be93; fill-opacity: 0.7; stroke: #e6be93; stroke-linejoin: miter"/>
   </g>
   <g id="patch_119">
    <path d="M 131.215552 150.891429 
L 134.838929 150.891429 
L 134.838929 135.504 
L 131.215552 135.504 
z
" clip-path="url(#p56053f741d)" style="fill: #e6be93; fill-opacity: 0.7; stroke: #e6be93; stroke-linejoin: miter"/>
   </g>
   <g id="patch_120">
    <path d="M 134.838929 158.132571 
L 138.462305 158.132571 
L 138.462305 147.529469 
L 134.838929 147.529469 
z
" clip-path="url(#p56053f741d)" style="fill: #e6be93; fill-opacity: 0.7; stroke: #e6be93; stroke-linejoin: miter"/>
   </g>
   <g id="patch_121">
    <path d="M 138.462305 164.985796 
L 142.085682 164.985796 
L 142.085682 154.382694 
L 138.462305 154.382694 
z
" clip-path="url(#p56053f741d)" style="fill: #e6be93; fill-opacity: 0.7; stroke: #e6be93; stroke-linejoin: miter"/>
   </g>
   <g id="patch_122">
    <path d="M 142.085682 167.830531 
L 145.709058 167.830531 
L 145.709058 159.942857 
L 142.085682 159.942857 
z
" clip-path="url(#p56053f741d)" style="fill: #e6be93; fill-opacity: 0.7; stroke: #e6be93; stroke-linejoin: miter"/>
   </g>
   <g id="patch_123">
    <path d="M 145.709058 168.477061 
L 149.332435 168.477061 
L 149.332435 160.330776 
L 145.709058 160.330776 
z
" clip-path="url(#p56053f741d)" style="fill: #e6be93; fill-opacity: 0.7; stroke: #e6be93; stroke-linejoin: miter"/>
   </g>
   <g id="patch_124">
    <path d="M 149.332435 167.054694 
L 152.955812 167.054694 
L 152.955812 159.425633 
L 149.332435 159.425633 
z
" clip-path="url(#p56053f741d)" style="fill: #e6be93; fill-opacity: 0.7; stroke: #e6be93; stroke-linejoin: miter"/>
   </g>
   <g id="patch_125">
    <path d="M 152.955812 170.028735 
L 156.579188 170.028735 
L 156.579188 163.822041 
L 152.955812 163.822041 
z
" clip-path="url(#p56053f741d)" style="fill: #e6be93; fill-opacity: 0.7; stroke: #e6be93; stroke-linejoin: miter"/>
   </g>
   <g id="patch_126">
    <path d="M 156.579188 169.252898 
L 160.202565 169.252898 
L 160.202565 162.787592 
L 156.579188 162.787592 
z
" clip-path="url(#p56053f741d)" style="fill: #e6be93; fill-opacity: 0.7; stroke: #e6be93; stroke-linejoin: miter"/>
   </g>
   <g id="patch_127">
    <path d="M 160.202565 170.933878 
L 163.825942 170.933878 
L 163.825942 167.184 
L 160.202565 167.184 
z
" clip-path="url(#p56053f741d)" style="fill: #e6be93; fill-opacity: 0.7; stroke: #e6be93; stroke-linejoin: miter"/>
   </g>
   <g id="patch_128">
    <path d="M 163.825942 171.968327 
L 167.449318 171.968327 
L 167.449318 169.770122 
L 163.825942 169.770122 
z
" clip-path="url(#p56053f741d)" style="fill: #e6be93; fill-opacity: 0.7; stroke: #e6be93; stroke-linejoin: miter"/>
   </g>
   <g id="patch_129">
    <path d="M 167.449318 172.485551 
L 171.072695 172.485551 
L 171.072695 169.899429 
L 167.449318 169.899429 
z
" clip-path="url(#p56053f741d)" style="fill: #e6be93; fill-opacity: 0.7; stroke: #e6be93; stroke-linejoin: miter"/>
   </g>
   <g id="patch_130">
    <path d="M 171.072695 173.002776 
L 174.696071 173.002776 
L 174.696071 170.804571 
L 171.072695 170.804571 
z
" clip-path="url(#p56053f741d)" style="fill: #e6be93; fill-opacity: 0.7; stroke: #e6be93; stroke-linejoin: miter"/>
   </g>
   <g id="patch_131">
    <path d="M 174.696071 173.132082 
L 178.319448 173.132082 
L 178.319448 170.804571 
L 174.696071 170.804571 
z
" clip-path="url(#p56053f741d)" style="fill: #e6be93; fill-opacity: 0.7; stroke: #e6be93; stroke-linejoin: miter"/>
   </g>
   <g id="patch_132">
    <path d="M 178.319448 173.002776 
L 181.942825 173.002776 
L 181.942825 171.968327 
L 178.319448 171.968327 
z
" clip-path="url(#p56053f741d)" style="fill: #e6be93; fill-opacity: 0.7; stroke: #e6be93; stroke-linejoin: miter"/>
   </g>
   <g id="patch_133">
    <path d="M 181.942825 173.52 
L 185.566201 173.52 
L 185.566201 172.873469 
L 181.942825 172.873469 
z
" clip-path="url(#p56053f741d)" style="fill: #e6be93; fill-opacity: 0.7; stroke: #e6be93; stroke-linejoin: miter"/>
   </g>
   <g id="patch_134">
    <path d="M 185.566201 173.390694 
L 189.189578 173.390694 
L 189.189578 171.709714 
L 185.566201 171.709714 
z
" clip-path="url(#p56053f741d)" style="fill: #e6be93; fill-opacity: 0.7; stroke: #e6be93; stroke-linejoin: miter"/>
   </g>
   <g id="patch_135">
    <path d="M 189.189578 173.002776 
L 192.812955 173.002776 
L 192.812955 171.968327 
L 189.189578 171.968327 
z
" clip-path="url(#p56053f741d)" style="fill: #e6be93; fill-opacity: 0.7; stroke: #e6be93; stroke-linejoin: miter"/>
   </g>
   <g id="patch_136">
    <path d="M 192.812955 173.52 
L 196.436331 173.52 
L 196.436331 172.485551 
L 192.812955 172.485551 
z
" clip-path="url(#p56053f741d)" style="fill: #e6be93; fill-opacity: 0.7; stroke: #e6be93; stroke-linejoin: miter"/>
   </g>
   <g id="patch_137">
    <path d="M 196.436331 173.52 
L 200.059708 173.52 
L 200.059708 173.390694 
L 196.436331 173.390694 
z
" clip-path="url(#p56053f741d)" style="fill: #e6be93; fill-opacity: 0.7; stroke: #e6be93; stroke-linejoin: miter"/>
   </g>
   <g id="patch_138">
    <path d="M 200.059708 173.390694 
L 203.683084 173.390694 
L 203.683084 173.002776 
L 200.059708 173.002776 
z
" clip-path="url(#p56053f741d)" style="fill: #e6be93; fill-opacity: 0.7; stroke: #e6be93; stroke-linejoin: miter"/>
   </g>
   <g id="patch_139">
    <path d="M 203.683084 173.261388 
L 207.306461 173.261388 
L 207.306461 172.614857 
L 203.683084 172.614857 
z
" clip-path="url(#p56053f741d)" style="fill: #e6be93; fill-opacity: 0.7; stroke: #e6be93; stroke-linejoin: miter"/>
   </g>
   <g id="patch_140">
    <path d="M 207.306461 173.52 
L 210.929838 173.52 
L 210.929838 173.132082 
L 207.306461 173.132082 
z
" clip-path="url(#p56053f741d)" style="fill: #e6be93; fill-opacity: 0.7; stroke: #e6be93; stroke-linejoin: miter"/>
   </g>
   <g id="patch_141">
    <path d="M 210.929838 173.132082 
L 214.553214 173.132082 
L 214.553214 172.614857 
L 210.929838 172.614857 
z
" clip-path="url(#p56053f741d)" style="fill: #e6be93; fill-opacity: 0.7; stroke: #e6be93; stroke-linejoin: miter"/>
   </g>
   <g id="patch_142">
    <path d="M 214.553214 173.261388 
L 218.176591 173.261388 
L 218.176591 173.002776 
L 214.553214 173.002776 
z
" clip-path="url(#p56053f741d)" style="fill: #e6be93; fill-opacity: 0.7; stroke: #e6be93; stroke-linejoin: miter"/>
   </g>
   <g id="patch_143">
    <path d="M 218.176591 173.52 
L 221.799968 173.52 
L 221.799968 173.390694 
L 218.176591 173.390694 
z
" clip-path="url(#p56053f741d)" style="fill: #e6be93; fill-opacity: 0.7; stroke: #e6be93; stroke-linejoin: miter"/>
   </g>
   <g id="patch_144">
    <path d="M 221.799968 173.52 
L 225.423344 173.52 
L 225.423344 173.52 
L 221.799968 173.52 
z
" clip-path="url(#p56053f741d)" style="fill: #e6be93; fill-opacity: 0.7; stroke: #e6be93; stroke-linejoin: miter"/>
   </g>
   <g id="patch_145">
    <path d="M 225.423344 173.52 
L 229.046721 173.52 
L 229.046721 173.52 
L 225.423344 173.52 
z
" clip-path="url(#p56053f741d)" style="fill: #e6be93; fill-opacity: 0.7; stroke: #e6be93; stroke-linejoin: miter"/>
   </g>
   <g id="patch_146">
    <path d="M 229.046721 173.52 
L 232.670097 173.52 
L 232.670097 173.52 
L 229.046721 173.52 
z
" clip-path="url(#p56053f741d)" style="fill: #e6be93; fill-opacity: 0.7; stroke: #e6be93; stroke-linejoin: miter"/>
   </g>
   <g id="patch_147">
    <path d="M 232.670097 173.52 
L 236.293474 173.52 
L 236.293474 173.52 
L 232.670097 173.52 
z
" clip-path="url(#p56053f741d)" style="fill: #e6be93; fill-opacity: 0.7; stroke: #e6be93; stroke-linejoin: miter"/>
   </g>
   <g id="patch_148">
    <path d="M 236.293474 173.52 
L 239.916851 173.52 
L 239.916851 173.52 
L 236.293474 173.52 
z
" clip-path="url(#p56053f741d)" style="fill: #e6be93; fill-opacity: 0.7; stroke: #e6be93; stroke-linejoin: miter"/>
   </g>
   <g id="patch_149">
    <path d="M 239.916851 173.52 
L 243.540227 173.52 
L 243.540227 173.261388 
L 239.916851 173.261388 
z
" clip-path="url(#p56053f741d)" style="fill: #e6be93; fill-opacity: 0.7; stroke: #e6be93; stroke-linejoin: miter"/>
   </g>
   <g id="patch_150">
    <path d="M 57.1175 173.52 
L 57.1175 7.2 
" style="fill: none; stroke: #262626; stroke-linejoin: miter; stroke-linecap: square"/>
   </g>
   <g id="patch_151">
    <path d="M 252.4175 173.52 
L 252.4175 7.2 
" style="fill: none; stroke: #262626; stroke-linejoin: miter; stroke-linecap: square"/>
   </g>
   <g id="patch_152">
    <path d="M 57.1175 173.52 
L 252.4175 173.52 
" style="fill: none; stroke: #262626; stroke-linejoin: miter; stroke-linecap: square"/>
   </g>
   <g id="patch_153">
    <path d="M 57.1175 7.2 
L 252.4175 7.2 
" style="fill: none; stroke: #262626; stroke-linejoin: miter; stroke-linecap: square"/>
   </g>
   <g id="legend_1">
    <g id="patch_154">
     <path d="M 205.5575 25.202188 
L 227.5575 25.202188 
L 227.5575 17.502188 
L 205.5575 17.502188 
z
" style="fill: #3a5377; fill-opacity: 0.7; stroke: #3a5377; stroke-linejoin: miter"/>
    </g>
    <g id="text_13">
     <!-- a -->
     <g style="fill: #262626" transform="translate(236.3575 25.202188) scale(0.11 -0.11)">
      <use xlink:href="#Lato-Regular-61"/>
     </g>
    </g>
    <g id="patch_155">
     <path d="M 205.5575 40.691563 
L 227.5575 40.691563 
L 227.5575 32.991563 
L 205.5575 32.991563 
z
" style="fill: #ca675f; fill-opacity: 0.7; stroke: #ca675f; stroke-linejoin: miter"/>
    </g>
    <g id="text_14">
     <!-- b -->
     <g style="fill: #262626" transform="translate(236.3575 40.691563) scale(0.11 -0.11)">
      <use xlink:href="#Lato-Regular-62"/>
     </g>
    </g>
    <g id="patch_156">
     <path d="M 205.5575 56.180938 
L 227.5575 56.180938 
L 227.5575 48.480938 
L 205.5575 48.480938 
z
" style="fill: #e6be93; fill-opacity: 0.7; stroke: #e6be93; stroke-linejoin: miter"/>
    </g>
    <g id="text_15">
     <!-- c -->
     <g style="fill: #262626" transform="translate(236.3575 56.180938) scale(0.11 -0.11)">
      <use xlink:href="#Lato-Regular-63"/>
     </g>
    </g>
   </g>
  </g>
 </g>
 <defs>
  <clipPath id="p56053f741d">
   <rect x="57.1175" y="7.2" width="195.3" height="166.32"/>
  </clipPath>
 </defs>
</svg>
