<?xml version="1.0" encoding="utf-8" standalone="no"?>
<!DOCTYPE svg PUBLIC "-//W3C//DTD SVG 1.1//EN"
  "http://www.w3.org/Graphics/SVG/1.1/DTD/svg11.dtd">
<svg xmlns:xlink="http://www.w3.org/1999/xlink" width="435.7775pt" height="187.386875pt" viewBox="0 0 435.7775 187.386875" xmlns="http://www.w3.org/2000/svg" version="1.1">
 <metadata>
  <rdf:RDF xmlns:dc="http://purl.org/dc/elements/1.1/" xmlns:cc="http://creativecommons.org/ns#" xmlns:rdf="http://www.w3.org/1999/02/22-rdf-syntax-ns#">
   <cc:Work>
    <dc:type rdf:resource="http://purl.org/dc/dcmitype/StillImage"/>
    <dc:date>2024-01-10T20:35:11.916237</dc:date>
    <dc:format>image/svg+xml</dc:format>
    <dc:creator>
     <cc:Agent>
      <dc:title>Matplotlib v3.7.1, https://matplotlib.org/</dc:title>
     </cc:Agent>
    </dc:creator>
   </cc:Work>
  </rdf:RDF>
 </metadata>
 <defs>
  <style type="text/css">*{stroke-linejoin: round; stroke-linecap: butt}</style>
 </defs>
 <g id="figure_1">
  <g id="patch_1">
   <path d="M 0 187.386875 
L 435.7775 187.386875 
L 435.7775 0 
L 0 0 
z
" style="fill: #ffffff"/>
  </g>
  <g id="axes_1">
   <g id="patch_2">
    <path d="M 37.9775 145.8 
L 428.5775 145.8 
L 428.5775 7.2 
L 37.9775 7.2 
z
" style="fill: #ffffff"/>
   </g>
   <g id="matplotlib.axis_1">
    <g id="xtick_1">
     <g id="line2d_1">
      <defs>
       <path id="m7648f091b0" d="M 0 0 
L 0 6 
" style="stroke: #262626; stroke-width: 1.25"/>
      </defs>
      <g>
       <use xlink:href="#m7648f091b0" x="52.145269" y="145.8" style="fill: #262626; stroke: #262626; stroke-width: 1.25"/>
      </g>
     </g>
     <g id="text_1">
      <!-- 0 -->
      <g style="fill: #262626" transform="translate(48.955269 163.402188) scale(0.11 -0.11)">
       <defs>
        <path id="Lato-Regular-30" d="M 3520 2291 
Q 3520 1690 3390 1250 
Q 3261 810 3037 522 
Q 2813 234 2507 93 
Q 2202 -48 1853 -48 
Q 1501 -48 1198 93 
Q 896 234 672 522 
Q 448 810 320 1250 
Q 192 1690 192 2291 
Q 192 2893 320 3334 
Q 448 3776 672 4065 
Q 896 4355 1198 4496 
Q 1501 4637 1853 4637 
Q 2202 4637 2507 4496 
Q 2813 4355 3037 4065 
Q 3261 3776 3390 3334 
Q 3520 2893 3520 2291 
z
M 2928 2291 
Q 2928 2816 2840 3173 
Q 2752 3530 2603 3747 
Q 2454 3965 2259 4059 
Q 2064 4154 1853 4154 
Q 1642 4154 1446 4059 
Q 1251 3965 1104 3747 
Q 957 3530 869 3173 
Q 781 2816 781 2291 
Q 781 1766 869 1411 
Q 957 1056 1104 838 
Q 1251 621 1446 526 
Q 1642 432 1853 432 
Q 2064 432 2259 526 
Q 2454 621 2603 838 
Q 2752 1056 2840 1411 
Q 2928 1766 2928 2291 
z
" transform="scale(0.015625)"/>
       </defs>
       <use xlink:href="#Lato-Regular-30"/>
      </g>
     </g>
    </g>
    <g id="xtick_2">
     <g id="line2d_2">
      <g>
       <use xlink:href="#m7648f091b0" x="123.880806" y="145.8" style="fill: #262626; stroke: #262626; stroke-width: 1.25"/>
      </g>
     </g>
     <g id="text_2">
      <!-- 20 -->
      <g style="fill: #262626" transform="translate(117.500806 163.402188) scale(0.11 -0.11)">
       <defs>
        <path id="Lato-Regular-32" d="M 1891 4637 
Q 2182 4637 2435 4550 
Q 2688 4464 2873 4299 
Q 3059 4134 3164 3897 
Q 3270 3661 3270 3360 
Q 3270 3104 3193 2885 
Q 3117 2666 2985 2467 
Q 2854 2269 2683 2080 
Q 2512 1891 2320 1699 
L 1110 464 
Q 1238 499 1369 520 
Q 1501 541 1622 541 
L 3158 541 
Q 3251 541 3305 486 
Q 3360 432 3360 346 
L 3360 0 
L 301 0 
L 301 195 
Q 301 256 326 320 
Q 352 384 406 438 
L 1875 1914 
Q 2058 2099 2208 2270 
Q 2358 2442 2464 2614 
Q 2570 2787 2627 2964 
Q 2685 3142 2685 3344 
Q 2685 3546 2621 3698 
Q 2557 3850 2446 3949 
Q 2336 4048 2185 4097 
Q 2035 4147 1862 4147 
Q 1686 4147 1539 4096 
Q 1392 4045 1278 3953 
Q 1165 3862 1088 3737 
Q 1011 3613 979 3462 
Q 941 3350 875 3313 
Q 810 3277 691 3293 
L 394 3344 
Q 438 3658 568 3899 
Q 698 4141 894 4304 
Q 1091 4467 1344 4552 
Q 1597 4637 1891 4637 
z
" transform="scale(0.015625)"/>
       </defs>
       <use xlink:href="#Lato-Regular-32"/>
       <use xlink:href="#Lato-Regular-30" x="58"/>
      </g>
     </g>
    </g>
    <g id="xtick_3">
     <g id="line2d_3">
      <g>
       <use xlink:href="#m7648f091b0" x="195.616343" y="145.8" style="fill: #262626; stroke: #262626; stroke-width: 1.25"/>
      </g>
     </g>
     <g id="text_3">
      <!-- 40 -->
      <g style="fill: #262626" transform="translate(189.236343 163.402188) scale(0.11 -0.11)">
       <defs>
        <path id="Lato-Regular-34" d="M 2835 1654 
L 3530 1654 
L 3530 1328 
Q 3530 1277 3499 1241 
Q 3469 1206 3405 1206 
L 2835 1206 
L 2835 0 
L 2336 0 
L 2336 1206 
L 301 1206 
Q 237 1206 190 1243 
Q 144 1280 131 1334 
L 74 1626 
L 2304 4586 
L 2835 4586 
L 2835 1654 
z
M 2336 3546 
Q 2336 3629 2341 3726 
Q 2346 3824 2362 3926 
L 691 1654 
L 2336 1654 
L 2336 3546 
z
" transform="scale(0.015625)"/>
       </defs>
       <use xlink:href="#Lato-Regular-34"/>
       <use xlink:href="#Lato-Regular-30" x="58"/>
      </g>
     </g>
    </g>
    <g id="xtick_4">
     <g id="line2d_4">
      <g>
       <use xlink:href="#m7648f091b0" x="267.35188" y="145.8" style="fill: #262626; stroke: #262626; stroke-width: 1.25"/>
      </g>
     </g>
     <g id="text_4">
      <!-- 60 -->
      <g style="fill: #262626" transform="translate(260.97188 163.402188) scale(0.11 -0.11)">
       <defs>
        <path id="Lato-Regular-36" d="M 1517 2867 
Q 1453 2790 1398 2716 
Q 1344 2643 1290 2573 
Q 1453 2685 1649 2747 
Q 1846 2810 2077 2810 
Q 2355 2810 2601 2718 
Q 2848 2627 3032 2452 
Q 3216 2278 3325 2024 
Q 3434 1770 3434 1443 
Q 3434 1126 3318 854 
Q 3203 582 2996 380 
Q 2790 179 2500 64 
Q 2211 -51 1862 -51 
Q 1517 -51 1235 59 
Q 954 170 757 373 
Q 560 576 453 865 
Q 346 1155 346 1514 
Q 346 1814 478 2155 
Q 611 2496 902 2883 
L 2067 4448 
Q 2112 4506 2190 4546 
Q 2269 4586 2371 4586 
L 2877 4586 
L 1517 2867 
z
M 893 1414 
Q 893 1194 957 1011 
Q 1021 829 1144 697 
Q 1267 566 1444 494 
Q 1622 422 1850 422 
Q 2080 422 2267 496 
Q 2454 570 2587 701 
Q 2720 832 2792 1011 
Q 2864 1190 2864 1402 
Q 2864 1626 2793 1806 
Q 2723 1987 2593 2113 
Q 2464 2240 2285 2307 
Q 2106 2374 1891 2374 
Q 1661 2374 1475 2296 
Q 1290 2218 1160 2085 
Q 1030 1952 961 1777 
Q 893 1603 893 1414 
z
" transform="scale(0.015625)"/>
       </defs>
       <use xlink:href="#Lato-Regular-36"/>
       <use xlink:href="#Lato-Regular-30" x="58"/>
      </g>
     </g>
    </g>
    <g id="xtick_5">
     <g id="line2d_5">
      <g>
       <use xlink:href="#m7648f091b0" x="339.087417" y="145.8" style="fill: #262626; stroke: #262626; stroke-width: 1.25"/>
      </g>
     </g>
     <g id="text_5">
      <!-- 80 -->
      <g style="fill: #262626" transform="translate(332.707417 163.402188) scale(0.11 -0.11)">
       <defs>
        <path id="Lato-Regular-38" d="M 1856 -51 
Q 1514 -51 1229 40 
Q 944 131 739 300 
Q 534 470 422 712 
Q 310 954 310 1254 
Q 310 1696 540 1982 
Q 771 2269 1200 2390 
Q 838 2525 654 2792 
Q 470 3059 470 3430 
Q 470 3683 569 3904 
Q 669 4125 851 4288 
Q 1034 4451 1288 4544 
Q 1542 4637 1856 4637 
Q 2166 4637 2422 4544 
Q 2678 4451 2860 4288 
Q 3043 4125 3142 3904 
Q 3242 3683 3242 3430 
Q 3242 3059 3056 2792 
Q 2870 2525 2512 2390 
Q 2941 2269 3171 1982 
Q 3402 1696 3402 1254 
Q 3402 954 3288 712 
Q 3174 470 2971 300 
Q 2768 131 2483 40 
Q 2198 -51 1856 -51 
z
M 1856 403 
Q 2080 403 2257 465 
Q 2435 528 2558 641 
Q 2682 755 2747 913 
Q 2813 1072 2813 1264 
Q 2813 1501 2734 1669 
Q 2656 1837 2523 1942 
Q 2390 2048 2217 2097 
Q 2045 2147 1856 2147 
Q 1667 2147 1494 2097 
Q 1322 2048 1189 1942 
Q 1056 1837 977 1669 
Q 899 1501 899 1264 
Q 899 1072 964 913 
Q 1030 755 1153 641 
Q 1277 528 1454 465 
Q 1632 403 1856 403 
z
M 1856 2605 
Q 2080 2605 2238 2673 
Q 2397 2742 2496 2856 
Q 2595 2970 2640 3117 
Q 2685 3264 2685 3421 
Q 2685 3581 2632 3721 
Q 2579 3862 2475 3968 
Q 2371 4074 2216 4134 
Q 2061 4195 1856 4195 
Q 1651 4195 1496 4134 
Q 1341 4074 1237 3968 
Q 1133 3862 1080 3721 
Q 1027 3581 1027 3421 
Q 1027 3264 1072 3117 
Q 1117 2970 1216 2856 
Q 1315 2742 1473 2673 
Q 1632 2605 1856 2605 
z
" transform="scale(0.015625)"/>
       </defs>
       <use xlink:href="#Lato-Regular-38"/>
       <use xlink:href="#Lato-Regular-30" x="58"/>
      </g>
     </g>
    </g>
    <g id="xtick_6">
     <g id="line2d_6">
      <g>
       <use xlink:href="#m7648f091b0" x="410.822955" y="145.8" style="fill: #262626; stroke: #262626; stroke-width: 1.25"/>
      </g>
     </g>
     <g id="text_6">
      <!-- 100 -->
      <g style="fill: #262626" transform="translate(401.252955 163.402188) scale(0.11 -0.11)">
       <defs>
        <path id="Lato-Regular-31" d="M 800 435 
L 1782 435 
L 1782 3562 
Q 1782 3696 1792 3846 
L 976 3146 
Q 934 3110 892 3102 
Q 851 3094 816 3100 
Q 781 3107 750 3126 
Q 720 3146 704 3168 
L 525 3414 
L 1891 4595 
L 2355 4595 
L 2355 435 
L 3258 435 
L 3258 0 
L 800 0 
L 800 435 
z
" transform="scale(0.015625)"/>
       </defs>
       <use xlink:href="#Lato-Regular-31"/>
       <use xlink:href="#Lato-Regular-30" x="58"/>
       <use xlink:href="#Lato-Regular-30" x="116"/>
      </g>
     </g>
    </g>
    <g id="text_7">
     <!-- Iterations -->
     <g style="fill: #262626" transform="translate(208.361563 178.128125) scale(0.12 -0.12)">
      <defs>
       <path id="Lato-Regular-49" d="M 1206 0 
L 586 0 
L 586 4586 
L 1206 4586 
L 1206 0 
z
" transform="scale(0.015625)"/>
       <path id="Lato-Regular-74" d="M 1446 -51 
Q 1062 -51 856 163 
Q 650 378 650 781 
L 650 2765 
L 259 2765 
Q 208 2765 173 2795 
Q 138 2826 138 2890 
L 138 3117 
L 669 3184 
L 800 4186 
Q 810 4234 843 4264 
Q 877 4294 931 4294 
L 1219 4294 
L 1219 3178 
L 2157 3178 
L 2157 2765 
L 1219 2765 
L 1219 819 
Q 1219 614 1318 515 
Q 1418 416 1574 416 
Q 1664 416 1729 440 
Q 1795 464 1843 493 
Q 1891 522 1924 546 
Q 1958 570 1984 570 
Q 2029 570 2064 515 
L 2230 243 
Q 2083 106 1875 27 
Q 1667 -51 1446 -51 
z
" transform="scale(0.015625)"/>
       <path id="Lato-Regular-65" d="M 1779 3293 
Q 2070 3293 2318 3195 
Q 2566 3098 2747 2914 
Q 2928 2730 3030 2459 
Q 3133 2189 3133 1843 
Q 3133 1709 3104 1664 
Q 3075 1619 2995 1619 
L 829 1619 
Q 835 1312 912 1085 
Q 989 858 1123 706 
Q 1258 554 1443 478 
Q 1629 403 1859 403 
Q 2074 403 2229 452 
Q 2384 502 2496 560 
Q 2608 618 2683 667 
Q 2758 717 2813 717 
Q 2883 717 2922 662 
L 3082 454 
Q 2976 326 2829 232 
Q 2682 138 2514 77 
Q 2346 16 2166 -14 
Q 1987 -45 1811 -45 
Q 1475 -45 1192 68 
Q 909 182 702 401 
Q 496 621 381 944 
Q 266 1267 266 1686 
Q 266 2026 370 2320 
Q 474 2614 669 2830 
Q 864 3046 1145 3169 
Q 1427 3293 1779 3293 
z
M 1792 2874 
Q 1379 2874 1142 2635 
Q 906 2397 848 1974 
L 2621 1974 
Q 2621 2173 2565 2337 
Q 2509 2502 2401 2622 
Q 2294 2742 2140 2808 
Q 1987 2874 1792 2874 
z
" transform="scale(0.015625)"/>
       <path id="Lato-Regular-72" d="M 451 0 
L 451 3242 
L 778 3242 
Q 870 3242 905 3206 
Q 941 3171 954 3085 
L 989 2592 
Q 1142 2925 1368 3112 
Q 1594 3299 1917 3299 
Q 2019 3299 2113 3276 
Q 2208 3254 2282 3206 
L 2240 2781 
Q 2221 2701 2144 2701 
Q 2099 2701 2012 2720 
Q 1926 2739 1818 2739 
Q 1664 2739 1542 2692 
Q 1421 2646 1326 2558 
Q 1232 2470 1158 2342 
Q 1085 2214 1024 2048 
L 1024 0 
L 451 0 
z
" transform="scale(0.015625)"/>
       <path id="Lato-Regular-61" d="M 2512 0 
Q 2429 0 2384 27 
Q 2339 54 2314 134 
L 2250 438 
Q 2122 323 1998 232 
Q 1875 141 1742 78 
Q 1610 16 1458 -17 
Q 1306 -51 1120 -51 
Q 931 -51 764 1 
Q 598 54 475 160 
Q 352 266 280 427 
Q 208 589 208 810 
Q 208 1002 313 1179 
Q 419 1357 656 1494 
Q 893 1632 1273 1720 
Q 1654 1808 2208 1821 
L 2208 2074 
Q 2208 2451 2045 2644 
Q 1882 2838 1568 2838 
Q 1357 2838 1214 2785 
Q 1072 2733 968 2667 
Q 864 2602 789 2549 
Q 714 2496 640 2496 
Q 582 2496 540 2526 
Q 499 2557 470 2602 
L 368 2784 
Q 637 3043 947 3171 
Q 1258 3299 1635 3299 
Q 1907 3299 2118 3209 
Q 2330 3120 2474 2960 
Q 2618 2800 2691 2573 
Q 2765 2346 2765 2074 
L 2765 0 
L 2512 0 
z
M 1290 349 
Q 1440 349 1565 379 
Q 1690 410 1800 466 
Q 1910 522 2011 603 
Q 2112 685 2208 787 
L 2208 1459 
Q 1814 1446 1537 1396 
Q 1261 1347 1086 1267 
Q 912 1187 833 1078 
Q 755 970 755 835 
Q 755 707 796 614 
Q 838 522 910 462 
Q 982 403 1080 376 
Q 1178 349 1290 349 
z
" transform="scale(0.015625)"/>
       <path id="Lato-Regular-69" d="M 1053 3242 
L 1053 0 
L 483 0 
L 483 3242 
L 1053 3242 
z
M 1174 4259 
Q 1174 4176 1140 4104 
Q 1107 4032 1051 3976 
Q 995 3920 920 3888 
Q 845 3856 762 3856 
Q 678 3856 606 3888 
Q 534 3920 480 3976 
Q 426 4032 394 4104 
Q 362 4176 362 4259 
Q 362 4342 394 4417 
Q 426 4493 480 4549 
Q 534 4605 606 4637 
Q 678 4669 762 4669 
Q 845 4669 920 4637 
Q 995 4605 1051 4549 
Q 1107 4493 1140 4417 
Q 1174 4342 1174 4259 
z
" transform="scale(0.015625)"/>
       <path id="Lato-Regular-6f" d="M 1818 3293 
Q 2173 3293 2457 3174 
Q 2742 3056 2944 2838 
Q 3146 2621 3253 2312 
Q 3360 2003 3360 1622 
Q 3360 1238 3253 931 
Q 3146 624 2944 406 
Q 2742 189 2457 72 
Q 2173 -45 1818 -45 
Q 1459 -45 1172 72 
Q 886 189 684 406 
Q 483 624 376 931 
Q 269 1238 269 1622 
Q 269 2003 376 2312 
Q 483 2621 684 2838 
Q 886 3056 1172 3174 
Q 1459 3293 1818 3293 
z
M 1818 400 
Q 2298 400 2534 721 
Q 2771 1043 2771 1619 
Q 2771 2198 2534 2521 
Q 2298 2845 1818 2845 
Q 1574 2845 1393 2761 
Q 1213 2678 1093 2521 
Q 973 2365 913 2136 
Q 854 1907 854 1619 
Q 854 1043 1092 721 
Q 1331 400 1818 400 
z
" transform="scale(0.015625)"/>
       <path id="Lato-Regular-6e" d="M 451 0 
L 451 3242 
L 794 3242 
Q 915 3242 944 3123 
L 989 2771 
Q 1200 3005 1462 3149 
Q 1725 3293 2067 3293 
Q 2333 3293 2536 3205 
Q 2739 3117 2875 2955 
Q 3011 2794 3081 2566 
Q 3152 2339 3152 2064 
L 3152 0 
L 2579 0 
L 2579 2064 
Q 2579 2432 2411 2635 
Q 2243 2838 1901 2838 
Q 1645 2838 1425 2716 
Q 1206 2595 1024 2387 
L 1024 0 
L 451 0 
z
" transform="scale(0.015625)"/>
       <path id="Lato-Regular-73" d="M 2339 2707 
Q 2301 2637 2221 2637 
Q 2173 2637 2112 2672 
Q 2051 2707 1963 2750 
Q 1875 2794 1753 2830 
Q 1632 2867 1466 2867 
Q 1322 2867 1206 2830 
Q 1091 2794 1009 2730 
Q 928 2666 885 2581 
Q 842 2496 842 2397 
Q 842 2272 914 2189 
Q 986 2106 1104 2045 
Q 1222 1984 1372 1937 
Q 1523 1891 1681 1838 
Q 1840 1786 1990 1722 
Q 2141 1658 2259 1562 
Q 2378 1466 2450 1326 
Q 2522 1187 2522 992 
Q 2522 768 2442 577 
Q 2362 387 2205 248 
Q 2048 109 1821 29 
Q 1594 -51 1296 -51 
Q 957 -51 681 59 
Q 406 170 214 342 
L 349 560 
Q 374 602 409 624 
Q 445 646 499 646 
Q 557 646 621 601 
Q 685 557 776 502 
Q 867 448 998 403 
Q 1130 358 1325 358 
Q 1491 358 1616 401 
Q 1741 445 1824 518 
Q 1907 592 1947 688 
Q 1987 784 1987 893 
Q 1987 1027 1915 1115 
Q 1843 1203 1724 1265 
Q 1606 1328 1454 1374 
Q 1302 1421 1144 1472 
Q 986 1523 834 1588 
Q 682 1654 563 1753 
Q 445 1853 373 1998 
Q 301 2144 301 2352 
Q 301 2538 377 2709 
Q 454 2880 601 3009 
Q 749 3139 963 3216 
Q 1178 3293 1453 3293 
Q 1773 3293 2027 3192 
Q 2282 3091 2467 2915 
L 2339 2707 
z
" transform="scale(0.015625)"/>
      </defs>
      <use xlink:href="#Lato-Regular-49"/>
      <use xlink:href="#Lato-Regular-74" x="26.5"/>
      <use xlink:href="#Lato-Regular-65" x="62.100006"/>
      <use xlink:href="#Lato-Regular-72" x="114.900009"/>
      <use xlink:href="#Lato-Regular-61" x="150.550018"/>
      <use xlink:href="#Lato-Regular-74" x="199.625031"/>
      <use xlink:href="#Lato-Regular-69" x="235.475037"/>
      <use xlink:href="#Lato-Regular-6f" x="259.475037"/>
      <use xlink:href="#Lato-Regular-6e" x="316.175049"/>
      <use xlink:href="#Lato-Regular-73" x="371.975052"/>
     </g>
    </g>
   </g>
   <g id="matplotlib.axis_2">
    <g id="ytick_1">
     <g id="line2d_7">
      <defs>
       <path id="m7561c568fa" d="M 0 0 
L -6 0 
" style="stroke: #262626; stroke-width: 1.25"/>
      </defs>
      <g>
       <use xlink:href="#m7561c568fa" x="37.9775" y="145.13868" style="fill: #262626; stroke: #262626; stroke-width: 1.25"/>
      </g>
     </g>
     <g id="text_8">
      <!-- 0 -->
      <g style="fill: #262626" transform="translate(22.0975 149.189773) scale(0.11 -0.11)">
       <use xlink:href="#Lato-Regular-30"/>
      </g>
     </g>
    </g>
    <g id="ytick_2">
     <g id="line2d_8">
      <g>
       <use xlink:href="#m7561c568fa" x="37.9775" y="114.910537" style="fill: #262626; stroke: #262626; stroke-width: 1.25"/>
      </g>
     </g>
     <g id="text_9">
      <!-- 2 -->
      <g style="fill: #262626" transform="translate(22.0975 118.96163) scale(0.11 -0.11)">
       <use xlink:href="#Lato-Regular-32"/>
      </g>
     </g>
    </g>
    <g id="ytick_3">
     <g id="line2d_9">
      <g>
       <use xlink:href="#m7561c568fa" x="37.9775" y="84.682394" style="fill: #262626; stroke: #262626; stroke-width: 1.25"/>
      </g>
     </g>
     <g id="text_10">
      <!-- 4 -->
      <g style="fill: #262626" transform="translate(22.0975 88.733487) scale(0.11 -0.11)">
       <use xlink:href="#Lato-Regular-34"/>
      </g>
     </g>
    </g>
    <g id="ytick_4">
     <g id="line2d_10">
      <g>
       <use xlink:href="#m7561c568fa" x="37.9775" y="54.454251" style="fill: #262626; stroke: #262626; stroke-width: 1.25"/>
      </g>
     </g>
     <g id="text_11">
      <!-- 6 -->
      <g style="fill: #262626" transform="translate(22.0975 58.505344) scale(0.11 -0.11)">
       <use xlink:href="#Lato-Regular-36"/>
      </g>
     </g>
    </g>
    <g id="ytick_5">
     <g id="line2d_11">
      <g>
       <use xlink:href="#m7561c568fa" x="37.9775" y="24.226108" style="fill: #262626; stroke: #262626; stroke-width: 1.25"/>
      </g>
     </g>
     <g id="text_12">
      <!-- 8 -->
      <g style="fill: #262626" transform="translate(22.0975 28.277201) scale(0.11 -0.11)">
       <use xlink:href="#Lato-Regular-38"/>
      </g>
     </g>
    </g>
    <g id="text_13">
     <!-- Loss -->
     <g style="fill: #262626" transform="translate(16.03875 87.960938) rotate(-90) scale(0.12 -0.12)">
      <defs>
       <path id="Lato-Regular-4c" d="M 1203 522 
L 3187 522 
L 3187 0 
L 586 0 
L 586 4586 
L 1203 4586 
L 1203 522 
z
" transform="scale(0.015625)"/>
      </defs>
      <use xlink:href="#Lato-Regular-4c"/>
      <use xlink:href="#Lato-Regular-6f" x="47.725006"/>
      <use xlink:href="#Lato-Regular-73" x="104.425018"/>
      <use xlink:href="#Lato-Regular-73" x="147.725021"/>
     </g>
    </g>
   </g>
   <g id="line2d_12">
    <path d="M 55.732045 55.259586 
L 59.318822 62.802486 
L 62.905599 65.641662 
L 66.492376 62.874988 
L 70.079153 81.040685 
L 73.66593 91.609287 
L 77.252707 68.200059 
L 80.839483 67.097257 
L 84.42626 98.825557 
L 88.013037 97.15924 
L 91.599814 91.073144 
L 95.186591 76.287501 
L 98.773368 114.107118 
L 102.360145 100.73621 
L 105.946921 112.856126 
L 109.533698 113.223822 
L 113.120475 115.213589 
L 116.707252 83.935427 
L 120.294029 114.487486 
L 123.880806 121.020813 
L 127.467583 122.288601 
L 131.05436 117.470675 
L 134.641136 122.691111 
L 138.227913 123.542571 
L 141.81469 121.933593 
L 145.401467 125.141514 
L 148.988244 108.026262 
L 152.575021 108.225931 
L 156.161798 102.066701 
L 159.748574 106.966037 
L 163.335351 120.151731 
L 166.922128 131.042032 
L 170.508905 125.634615 
L 174.095682 129.542856 
L 177.682459 119.826733 
L 181.269236 125.915372 
L 184.856012 132.99452 
L 188.442789 115.740169 
L 192.029566 128.611222 
L 195.616343 129.978813 
L 199.20312 132.021716 
L 202.789897 136.464391 
L 206.376674 137.055841 
L 209.96345 127.681354 
L 213.550227 126.737677 
L 217.137004 134.616274 
L 220.723781 120.169953 
L 224.310558 118.209948 
L 227.897335 112.207961 
L 231.484112 131.569315 
L 235.070888 125.722765 
L 238.657665 124.866547 
L 242.244442 127.997392 
L 245.831219 133.334562 
L 249.417996 132.596468 
L 253.004773 137.288547 
L 256.59155 136.176416 
L 260.178326 132.682263 
L 263.765103 123.064814 
L 267.35188 134.087324 
L 270.938657 135.826753 
L 274.525434 135.68267 
L 278.112211 129.269695 
L 281.698988 130.067419 
L 285.285764 130.026211 
L 288.872541 132.208456 
L 292.459318 132.607647 
L 296.046095 134.563279 
L 299.632872 137.780809 
L 303.219649 126.721805 
L 306.806426 134.844868 
L 310.393202 134.686205 
L 313.979979 136.086629 
L 317.566756 137.607016 
L 321.153533 135.53902 
L 324.74031 130.206878 
L 328.327087 137.339175 
L 331.913864 137.167412 
L 335.50064 137.825228 
L 339.087417 138.440785 
L 342.674194 136.660818 
L 346.260971 114.451271 
L 349.847748 114.668347 
L 353.434525 129.01349 
L 357.021302 133.570612 
L 360.608079 132.728181 
L 364.194855 131.653058 
L 367.781632 134.938603 
L 371.368409 136.674296 
L 374.955186 134.427394 
L 378.541963 127.37866 
L 382.12874 137.405415 
L 385.715517 132.352325 
L 389.302293 134.017228 
L 392.88907 138.067001 
L 396.475847 139.5 
L 400.062624 137.645411 
L 403.649401 137.839983 
L 407.236178 133.383429 
L 410.822955 134.944518 
" clip-path="url(#p851a05f334)" style="fill: none; stroke: #3a5377; stroke-width: 1.5; stroke-linecap: round"/>
   </g>
   <g id="line2d_13">
    <path d="M 55.732045 13.5 
L 59.318822 14.700217 
L 62.905599 30.499396 
L 66.492376 16.788087 
L 70.079153 24.149449 
L 73.66593 48.633341 
L 77.252707 38.179936 
L 80.839483 52.127349 
L 84.42626 40.394508 
L 88.013037 14.884668 
L 91.599814 46.115887 
L 95.186591 32.506354 
L 98.773368 62.771852 
L 102.360145 15.767475 
L 105.946921 63.297523 
L 109.533698 69.402729 
L 113.120475 52.846583 
L 116.707252 50.533054 
L 120.294029 50.046095 
L 123.880806 69.86257 
L 127.467583 70.870002 
L 131.05436 51.544311 
L 134.641136 69.674631 
L 138.227913 62.740722 
L 141.81469 55.257992 
L 145.401467 79.390539 
L 148.988244 63.29334 
L 152.575021 51.122144 
L 156.161798 39.342605 
L 159.748574 63.851559 
L 163.335351 62.154697 
L 166.922128 73.906998 
L 170.508905 76.956233 
L 174.095682 55.28942 
L 177.682459 54.407798 
L 181.269236 70.954866 
L 184.856012 68.195602 
L 188.442789 68.421748 
L 192.029566 52.0322 
L 195.616343 69.943623 
L 199.20312 73.526387 
L 202.789897 73.054188 
L 206.376674 83.392393 
L 209.96345 62.562783 
L 213.550227 81.310998 
L 217.137004 80.74197 
L 220.723781 74.948843 
L 224.310558 75.712228 
L 227.897335 27.322292 
L 231.484112 73.350782 
L 235.070888 60.058535 
L 238.657665 57.208287 
L 242.244442 80.948633 
L 245.831219 67.734029 
L 249.417996 85.249047 
L 253.004773 77.575175 
L 256.59155 69.384303 
L 260.178326 82.309869 
L 263.765103 50.006151 
L 267.35188 81.151425 
L 270.938657 54.967208 
L 274.525434 78.546922 
L 278.112211 71.592476 
L 281.698988 58.624226 
L 285.285764 72.318978 
L 288.872541 84.479637 
L 292.459318 71.017757 
L 296.046095 81.044463 
L 299.632872 80.27404 
L 303.219649 80.129081 
L 306.806426 77.911057 
L 310.393202 67.649465 
L 313.979979 74.462211 
L 317.566756 80.152347 
L 321.153533 84.733603 
L 324.74031 75.706418 
L 328.327087 79.938085 
L 331.913864 82.453426 
L 335.50064 75.927314 
L 339.087417 75.919282 
L 342.674194 86.606848 
L 346.260971 62.108831 
L 349.847748 44.081266 
L 353.434525 71.990712 
L 357.021302 65.895208 
L 360.608079 82.719982 
L 364.194855 68.687895 
L 367.781632 82.347408 
L 371.368409 81.256503 
L 374.955186 72.127156 
L 378.541963 53.674907 
L 382.12874 85.947963 
L 385.715517 73.186345 
L 389.302293 61.227666 
L 392.88907 81.355963 
L 396.475847 81.746689 
L 400.062624 84.316293 
L 403.649401 80.62368 
L 407.236178 80.557335 
L 410.822955 76.040434 
" clip-path="url(#p851a05f334)" style="fill: none; stroke: #ca675f; stroke-width: 1.5; stroke-linecap: round"/>
   </g>
   <g id="patch_3">
    <path d="M 37.9775 145.8 
L 37.9775 7.2 
" style="fill: none; stroke: #262626; stroke-linejoin: miter; stroke-linecap: square"/>
   </g>
   <g id="patch_4">
    <path d="M 428.5775 145.8 
L 428.5775 7.2 
" style="fill: none; stroke: #262626; stroke-linejoin: miter; stroke-linecap: square"/>
   </g>
   <g id="patch_5">
    <path d="M 37.9775 145.8 
L 428.5775 145.8 
" style="fill: none; stroke: #262626; stroke-linejoin: miter; stroke-linecap: square"/>
   </g>
   <g id="patch_6">
    <path d="M 37.9775 7.2 
L 428.5775 7.2 
" style="fill: none; stroke: #262626; stroke-linejoin: miter; stroke-linecap: square"/>
   </g>
   <g id="legend_1">
    <g id="line2d_14">
     <path d="M 361.783438 21.352188 
L 372.783438 21.352188 
L 383.783438 21.352188 
" style="fill: none; stroke: #3a5377; stroke-width: 1.5; stroke-linecap: round"/>
    </g>
    <g id="text_14">
     <!-- Train -->
     <g style="fill: #262626" transform="translate(392.583438 25.202188) scale(0.11 -0.11)">
      <defs>
       <path id="Lato-Regular-54" d="M 3686 4586 
L 3686 4064 
L 2202 4064 
L 2202 0 
L 1584 0 
L 1584 4064 
L 96 4064 
L 96 4586 
L 3686 4586 
z
" transform="scale(0.015625)"/>
      </defs>
      <use xlink:href="#Lato-Regular-54"/>
      <use xlink:href="#Lato-Regular-72" x="48.050003"/>
      <use xlink:href="#Lato-Regular-61" x="83.700012"/>
      <use xlink:href="#Lato-Regular-69" x="133.400024"/>
      <use xlink:href="#Lato-Regular-6e" x="157.400024"/>
     </g>
    </g>
    <g id="line2d_15">
     <path d="M 361.783438 36.841563 
L 372.783438 36.841563 
L 383.783438 36.841563 
" style="fill: none; stroke: #ca675f; stroke-width: 1.5; stroke-linecap: round"/>
    </g>
    <g id="text_15">
     <!-- Valid. -->
     <g style="fill: #262626" transform="translate(392.583438 40.691563) scale(0.11 -0.11)">
      <defs>
       <path id="Lato-Regular-56" d="M 19 4586 
L 515 4586 
Q 598 4586 649 4544 
Q 701 4502 726 4438 
L 2019 1203 
Q 2061 1094 2099 966 
Q 2138 838 2173 701 
Q 2202 838 2238 966 
Q 2275 1094 2317 1203 
L 3606 4438 
Q 3626 4493 3682 4539 
Q 3738 4586 3818 4586 
L 4314 4586 
L 2445 0 
L 1888 0 
L 19 4586 
z
" transform="scale(0.015625)"/>
       <path id="Lato-Regular-6c" d="M 1040 4714 
L 1040 0 
L 470 0 
L 470 4714 
L 1040 4714 
z
" transform="scale(0.015625)"/>
       <path id="Lato-Regular-64" d="M 2794 0 
Q 2672 0 2640 118 
L 2589 512 
Q 2381 259 2113 107 
Q 1846 -45 1501 -45 
Q 1222 -45 995 62 
Q 768 170 608 378 
Q 448 586 361 896 
Q 275 1206 275 1610 
Q 275 1968 371 2277 
Q 467 2586 646 2813 
Q 826 3040 1086 3169 
Q 1347 3299 1674 3299 
Q 1971 3299 2184 3198 
Q 2397 3098 2563 2915 
L 2563 4714 
L 3133 4714 
L 3133 0 
L 2794 0 
z
M 1686 416 
Q 1968 416 2177 544 
Q 2387 672 2563 906 
L 2563 2470 
Q 2403 2682 2217 2768 
Q 2032 2854 1802 2854 
Q 1350 2854 1107 2531 
Q 864 2208 864 1610 
Q 864 1293 918 1067 
Q 973 842 1078 696 
Q 1184 550 1337 483 
Q 1491 416 1686 416 
z
" transform="scale(0.015625)"/>
       <path id="Lato-Regular-2e" d="M 355 352 
Q 355 435 385 508 
Q 416 582 469 636 
Q 522 691 595 723 
Q 669 755 752 755 
Q 835 755 908 723 
Q 982 691 1036 636 
Q 1091 582 1123 508 
Q 1155 435 1155 352 
Q 1155 266 1123 194 
Q 1091 122 1036 67 
Q 982 13 908 -17 
Q 835 -48 752 -48 
Q 669 -48 595 -17 
Q 522 13 469 67 
Q 416 122 385 194 
Q 355 266 355 352 
z
" transform="scale(0.015625)"/>
      </defs>
      <use xlink:href="#Lato-Regular-56"/>
      <use xlink:href="#Lato-Regular-61" x="60.325012"/>
      <use xlink:href="#Lato-Regular-6c" x="110.025024"/>
      <use xlink:href="#Lato-Regular-69" x="133.625031"/>
      <use xlink:href="#Lato-Regular-64" x="157.625031"/>
      <use xlink:href="#Lato-Regular-2e" x="213.625031"/>
     </g>
    </g>
   </g>
  </g>
 </g>
 <defs>
  <clipPath id="p851a05f334">
   <rect x="37.9775" y="7.2" width="390.6" height="138.6"/>
  </clipPath>
 </defs>
</svg>
