<?xml version="1.0" encoding="utf-8" standalone="no"?>
<!DOCTYPE svg PUBLIC "-//W3C//DTD SVG 1.1//EN"
  "http://www.w3.org/Graphics/SVG/1.1/DTD/svg11.dtd">
<svg xmlns:xlink="http://www.w3.org/1999/xlink" width="259.6175pt" height="215.238125pt" viewBox="0 0 259.6175 215.238125" xmlns="http://www.w3.org/2000/svg" version="1.1">
 <metadata>
  <rdf:RDF xmlns:dc="http://purl.org/dc/elements/1.1/" xmlns:cc="http://creativecommons.org/ns#" xmlns:rdf="http://www.w3.org/1999/02/22-rdf-syntax-ns#">
   <cc:Work>
    <dc:type rdf:resource="http://purl.org/dc/dcmitype/StillImage"/>
    <dc:date>2024-01-11T19:47:23.973599</dc:date>
    <dc:format>image/svg+xml</dc:format>
    <dc:creator>
     <cc:Agent>
      <dc:title>Matplotlib v3.7.1, https://matplotlib.org/</dc:title>
     </cc:Agent>
    </dc:creator>
   </cc:Work>
  </rdf:RDF>
 </metadata>
 <defs>
  <style type="text/css">*{stroke-linejoin: round; stroke-linecap: butt}</style>
 </defs>
 <g id="figure_1">
  <g id="patch_1">
   <path d="M 0 215.238125 
L 259.6175 215.238125 
L 259.6175 0 
L 0 0 
z
" style="fill: #ffffff"/>
  </g>
  <g id="axes_1">
   <g id="patch_2">
    <path d="M 57.1175 173.52 
L 252.4175 173.52 
L 252.4175 7.2 
L 57.1175 7.2 
z
" style="fill: #ffffff"/>
   </g>
   <g id="matplotlib.axis_1">
    <g id="xtick_1">
     <g id="line2d_1">
      <defs>
       <path id="m7c6b4b62e6" d="M 0 0 
L 0 6 
" style="stroke: #262626; stroke-width: 1.25"/>
      </defs>
      <g>
       <use xlink:href="#m7c6b4b62e6" x="58.684078" y="173.52" style="fill: #262626; stroke: #262626; stroke-width: 1.25"/>
      </g>
     </g>
     <g id="text_1">
      <!-- 0 -->
      <g style="fill: #262626" transform="translate(55.494078 191.122188) scale(0.11 -0.11)">
       <defs>
        <path id="Lato-Regular-30" d="M 3520 2291 
Q 3520 1690 3390 1250 
Q 3261 810 3037 522 
Q 2813 234 2507 93 
Q 2202 -48 1853 -48 
Q 1501 -48 1198 93 
Q 896 234 672 522 
Q 448 810 320 1250 
Q 192 1690 192 2291 
Q 192 2893 320 3334 
Q 448 3776 672 4065 
Q 896 4355 1198 4496 
Q 1501 4637 1853 4637 
Q 2202 4637 2507 4496 
Q 2813 4355 3037 4065 
Q 3261 3776 3390 3334 
Q 3520 2893 3520 2291 
z
M 2928 2291 
Q 2928 2816 2840 3173 
Q 2752 3530 2603 3747 
Q 2454 3965 2259 4059 
Q 2064 4154 1853 4154 
Q 1642 4154 1446 4059 
Q 1251 3965 1104 3747 
Q 957 3530 869 3173 
Q 781 2816 781 2291 
Q 781 1766 869 1411 
Q 957 1056 1104 838 
Q 1251 621 1446 526 
Q 1642 432 1853 432 
Q 2064 432 2259 526 
Q 2454 621 2603 838 
Q 2752 1056 2840 1411 
Q 2928 1766 2928 2291 
z
" transform="scale(0.015625)"/>
       </defs>
       <use xlink:href="#Lato-Regular-30"/>
      </g>
     </g>
    </g>
    <g id="xtick_2">
     <g id="line2d_2">
      <g>
       <use xlink:href="#m7c6b4b62e6" x="110.903329" y="173.52" style="fill: #262626; stroke: #262626; stroke-width: 1.25"/>
      </g>
     </g>
     <g id="text_2">
      <!-- 50 -->
      <g style="fill: #262626" transform="translate(104.523329 191.122188) scale(0.11 -0.11)">
       <defs>
        <path id="Lato-Regular-35" d="M 3142 4336 
Q 3142 4214 3067 4136 
Q 2992 4058 2810 4058 
L 1370 4058 
L 1158 2854 
Q 1341 2896 1502 2913 
Q 1664 2931 1818 2931 
Q 2176 2931 2451 2825 
Q 2726 2720 2910 2534 
Q 3094 2349 3188 2096 
Q 3283 1843 3283 1546 
Q 3283 1181 3156 886 
Q 3030 592 2808 382 
Q 2586 173 2285 61 
Q 1984 -51 1635 -51 
Q 1434 -51 1248 -11 
Q 1062 29 900 96 
Q 739 163 601 249 
Q 464 336 358 432 
L 534 675 
Q 592 758 685 758 
Q 749 758 829 708 
Q 909 659 1024 598 
Q 1139 538 1294 488 
Q 1450 438 1664 438 
Q 1904 438 2096 515 
Q 2288 592 2425 734 
Q 2563 877 2636 1075 
Q 2710 1274 2710 1520 
Q 2710 1734 2648 1907 
Q 2586 2080 2459 2201 
Q 2333 2323 2144 2390 
Q 1955 2458 1702 2458 
Q 1530 2458 1342 2429 
Q 1155 2400 960 2336 
L 602 2442 
L 970 4586 
L 3142 4586 
L 3142 4336 
z
" transform="scale(0.015625)"/>
       </defs>
       <use xlink:href="#Lato-Regular-35"/>
       <use xlink:href="#Lato-Regular-30" x="58"/>
      </g>
     </g>
    </g>
    <g id="xtick_3">
     <g id="line2d_3">
      <g>
       <use xlink:href="#m7c6b4b62e6" x="163.12258" y="173.52" style="fill: #262626; stroke: #262626; stroke-width: 1.25"/>
      </g>
     </g>
     <g id="text_3">
      <!-- 100 -->
      <g style="fill: #262626" transform="translate(153.55258 191.122188) scale(0.11 -0.11)">
       <defs>
        <path id="Lato-Regular-31" d="M 800 435 
L 1782 435 
L 1782 3562 
Q 1782 3696 1792 3846 
L 976 3146 
Q 934 3110 892 3102 
Q 851 3094 816 3100 
Q 781 3107 750 3126 
Q 720 3146 704 3168 
L 525 3414 
L 1891 4595 
L 2355 4595 
L 2355 435 
L 3258 435 
L 3258 0 
L 800 0 
L 800 435 
z
" transform="scale(0.015625)"/>
       </defs>
       <use xlink:href="#Lato-Regular-31"/>
       <use xlink:href="#Lato-Regular-30" x="58"/>
       <use xlink:href="#Lato-Regular-30" x="116"/>
      </g>
     </g>
    </g>
    <g id="xtick_4">
     <g id="line2d_4">
      <g>
       <use xlink:href="#m7c6b4b62e6" x="215.341832" y="173.52" style="fill: #262626; stroke: #262626; stroke-width: 1.25"/>
      </g>
     </g>
     <g id="text_4">
      <!-- 150 -->
      <g style="fill: #262626" transform="translate(205.771832 191.122188) scale(0.11 -0.11)">
       <use xlink:href="#Lato-Regular-31"/>
       <use xlink:href="#Lato-Regular-35" x="58"/>
       <use xlink:href="#Lato-Regular-30" x="116"/>
      </g>
     </g>
    </g>
    <g id="text_5">
     <!-- Number of neighbors -->
     <g style="fill: #262626" transform="translate(99.025625 205.848125) scale(0.12 -0.12)">
      <defs>
       <path id="Lato-Regular-4e" d="M 906 4586 
Q 947 4586 976 4581 
Q 1005 4576 1027 4565 
Q 1050 4554 1072 4533 
Q 1094 4512 1120 4480 
L 3773 1027 
Q 3766 1110 3761 1188 
Q 3757 1267 3757 1338 
L 3757 4586 
L 4301 4586 
L 4301 0 
L 3990 0 
Q 3917 0 3867 25 
Q 3818 51 3770 112 
L 1117 3565 
Q 1123 3485 1126 3408 
Q 1130 3331 1130 3267 
L 1130 0 
L 586 0 
L 586 4586 
L 906 4586 
L 906 4586 
z
" transform="scale(0.015625)"/>
       <path id="Lato-Regular-75" d="M 989 3242 
L 989 1174 
Q 989 806 1157 604 
Q 1325 403 1670 403 
Q 1920 403 2141 521 
Q 2362 640 2547 851 
L 2547 3242 
L 3117 3242 
L 3117 0 
L 2778 0 
Q 2656 0 2624 118 
L 2579 467 
Q 2368 234 2105 91 
Q 1843 -51 1504 -51 
Q 1238 -51 1035 37 
Q 832 125 694 285 
Q 557 445 488 672 
Q 419 899 419 1174 
L 419 3242 
L 989 3242 
z
" transform="scale(0.015625)"/>
       <path id="Lato-Regular-6d" d="M 451 0 
L 451 3242 
L 794 3242 
Q 915 3242 944 3123 
L 986 2790 
Q 1165 3011 1389 3152 
Q 1613 3293 1907 3293 
Q 2234 3293 2437 3110 
Q 2640 2928 2730 2618 
Q 2800 2794 2910 2922 
Q 3021 3050 3158 3133 
Q 3296 3216 3451 3254 
Q 3606 3293 3766 3293 
Q 4022 3293 4222 3211 
Q 4422 3130 4561 2973 
Q 4701 2816 4774 2587 
Q 4848 2358 4848 2064 
L 4848 0 
L 4275 0 
L 4275 2064 
Q 4275 2445 4108 2641 
Q 3942 2838 3629 2838 
Q 3488 2838 3361 2788 
Q 3235 2739 3139 2643 
Q 3043 2547 2987 2401 
Q 2931 2256 2931 2064 
L 2931 0 
L 2358 0 
L 2358 2064 
Q 2358 2454 2201 2646 
Q 2045 2838 1744 2838 
Q 1533 2838 1353 2724 
Q 1174 2611 1024 2416 
L 1024 0 
L 451 0 
z
" transform="scale(0.015625)"/>
       <path id="Lato-Regular-62" d="M 451 0 
L 451 4714 
L 1024 4714 
L 1024 2771 
Q 1226 3011 1485 3152 
Q 1744 3293 2080 3293 
Q 2365 3293 2593 3184 
Q 2822 3075 2982 2868 
Q 3142 2662 3227 2368 
Q 3312 2074 3312 1706 
Q 3312 1312 3216 989 
Q 3120 666 2939 437 
Q 2758 208 2499 81 
Q 2240 -45 1917 -45 
Q 1597 -45 1377 75 
Q 1158 195 995 416 
L 966 122 
Q 941 0 819 0 
L 451 0 
z
M 1891 2838 
Q 1613 2838 1405 2710 
Q 1197 2582 1024 2349 
L 1024 781 
Q 1181 570 1368 483 
Q 1555 397 1779 397 
Q 2237 397 2480 720 
Q 2723 1043 2723 1683 
Q 2723 2278 2507 2558 
Q 2291 2838 1891 2838 
z
" transform="scale(0.015625)"/>
       <path id="Lato-Regular-65" d="M 1779 3293 
Q 2070 3293 2318 3195 
Q 2566 3098 2747 2914 
Q 2928 2730 3030 2459 
Q 3133 2189 3133 1843 
Q 3133 1709 3104 1664 
Q 3075 1619 2995 1619 
L 829 1619 
Q 835 1312 912 1085 
Q 989 858 1123 706 
Q 1258 554 1443 478 
Q 1629 403 1859 403 
Q 2074 403 2229 452 
Q 2384 502 2496 560 
Q 2608 618 2683 667 
Q 2758 717 2813 717 
Q 2883 717 2922 662 
L 3082 454 
Q 2976 326 2829 232 
Q 2682 138 2514 77 
Q 2346 16 2166 -14 
Q 1987 -45 1811 -45 
Q 1475 -45 1192 68 
Q 909 182 702 401 
Q 496 621 381 944 
Q 266 1267 266 1686 
Q 266 2026 370 2320 
Q 474 2614 669 2830 
Q 864 3046 1145 3169 
Q 1427 3293 1779 3293 
z
M 1792 2874 
Q 1379 2874 1142 2635 
Q 906 2397 848 1974 
L 2621 1974 
Q 2621 2173 2565 2337 
Q 2509 2502 2401 2622 
Q 2294 2742 2140 2808 
Q 1987 2874 1792 2874 
z
" transform="scale(0.015625)"/>
       <path id="Lato-Regular-72" d="M 451 0 
L 451 3242 
L 778 3242 
Q 870 3242 905 3206 
Q 941 3171 954 3085 
L 989 2592 
Q 1142 2925 1368 3112 
Q 1594 3299 1917 3299 
Q 2019 3299 2113 3276 
Q 2208 3254 2282 3206 
L 2240 2781 
Q 2221 2701 2144 2701 
Q 2099 2701 2012 2720 
Q 1926 2739 1818 2739 
Q 1664 2739 1542 2692 
Q 1421 2646 1326 2558 
Q 1232 2470 1158 2342 
Q 1085 2214 1024 2048 
L 1024 0 
L 451 0 
z
" transform="scale(0.015625)"/>
       <path id="Lato-Regular-20" transform="scale(0.015625)"/>
       <path id="Lato-Regular-6f" d="M 1818 3293 
Q 2173 3293 2457 3174 
Q 2742 3056 2944 2838 
Q 3146 2621 3253 2312 
Q 3360 2003 3360 1622 
Q 3360 1238 3253 931 
Q 3146 624 2944 406 
Q 2742 189 2457 72 
Q 2173 -45 1818 -45 
Q 1459 -45 1172 72 
Q 886 189 684 406 
Q 483 624 376 931 
Q 269 1238 269 1622 
Q 269 2003 376 2312 
Q 483 2621 684 2838 
Q 886 3056 1172 3174 
Q 1459 3293 1818 3293 
z
M 1818 400 
Q 2298 400 2534 721 
Q 2771 1043 2771 1619 
Q 2771 2198 2534 2521 
Q 2298 2845 1818 2845 
Q 1574 2845 1393 2761 
Q 1213 2678 1093 2521 
Q 973 2365 913 2136 
Q 854 1907 854 1619 
Q 854 1043 1092 721 
Q 1331 400 1818 400 
z
" transform="scale(0.015625)"/>
       <path id="Lato-Regular-66" d="M 662 0 
L 662 2755 
L 304 2797 
Q 237 2813 193 2846 
Q 150 2880 150 2944 
L 150 3178 
L 662 3178 
L 662 3491 
Q 662 3770 740 3986 
Q 819 4202 964 4350 
Q 1110 4499 1315 4576 
Q 1520 4653 1776 4653 
Q 1994 4653 2176 4589 
L 2163 4304 
Q 2157 4227 2078 4220 
Q 2000 4214 1869 4214 
Q 1722 4214 1602 4176 
Q 1482 4138 1395 4051 
Q 1309 3965 1262 3824 
Q 1216 3683 1216 3475 
L 1216 3178 
L 2150 3178 
L 2150 2765 
L 1235 2765 
L 1235 0 
L 662 0 
z
" transform="scale(0.015625)"/>
       <path id="Lato-Regular-6e" d="M 451 0 
L 451 3242 
L 794 3242 
Q 915 3242 944 3123 
L 989 2771 
Q 1200 3005 1462 3149 
Q 1725 3293 2067 3293 
Q 2333 3293 2536 3205 
Q 2739 3117 2875 2955 
Q 3011 2794 3081 2566 
Q 3152 2339 3152 2064 
L 3152 0 
L 2579 0 
L 2579 2064 
Q 2579 2432 2411 2635 
Q 2243 2838 1901 2838 
Q 1645 2838 1425 2716 
Q 1206 2595 1024 2387 
L 1024 0 
L 451 0 
z
" transform="scale(0.015625)"/>
       <path id="Lato-Regular-69" d="M 1053 3242 
L 1053 0 
L 483 0 
L 483 3242 
L 1053 3242 
z
M 1174 4259 
Q 1174 4176 1140 4104 
Q 1107 4032 1051 3976 
Q 995 3920 920 3888 
Q 845 3856 762 3856 
Q 678 3856 606 3888 
Q 534 3920 480 3976 
Q 426 4032 394 4104 
Q 362 4176 362 4259 
Q 362 4342 394 4417 
Q 426 4493 480 4549 
Q 534 4605 606 4637 
Q 678 4669 762 4669 
Q 845 4669 920 4637 
Q 995 4605 1051 4549 
Q 1107 4493 1140 4417 
Q 1174 4342 1174 4259 
z
" transform="scale(0.015625)"/>
       <path id="Lato-Regular-67" d="M 1581 3296 
Q 1792 3296 1974 3249 
Q 2157 3203 2307 3114 
L 3187 3114 
L 3187 2902 
Q 3187 2797 3053 2768 
L 2685 2717 
Q 2794 2509 2794 2253 
Q 2794 2016 2702 1822 
Q 2611 1629 2451 1491 
Q 2291 1354 2067 1280 
Q 1843 1206 1581 1206 
Q 1350 1206 1149 1261 
Q 1046 1197 993 1123 
Q 941 1050 941 979 
Q 941 864 1035 805 
Q 1130 746 1283 720 
Q 1437 694 1633 688 
Q 1830 682 2036 667 
Q 2243 653 2440 617 
Q 2637 582 2790 502 
Q 2944 422 3038 281 
Q 3133 141 3133 -83 
Q 3133 -291 3029 -486 
Q 2925 -682 2729 -834 
Q 2534 -986 2251 -1077 
Q 1968 -1168 1613 -1168 
Q 1258 -1168 992 -1097 
Q 726 -1027 550 -908 
Q 374 -790 286 -635 
Q 198 -480 198 -310 
Q 198 -70 348 96 
Q 499 262 758 362 
Q 614 426 531 533 
Q 448 640 448 822 
Q 448 893 473 968 
Q 499 1043 552 1116 
Q 605 1190 681 1257 
Q 758 1325 861 1376 
Q 621 1510 486 1734 
Q 352 1958 352 2253 
Q 352 2490 443 2683 
Q 534 2877 697 3013 
Q 861 3149 1086 3222 
Q 1312 3296 1581 3296 
z
M 2608 -176 
Q 2608 -58 2541 16 
Q 2474 90 2360 131 
Q 2246 173 2096 190 
Q 1946 208 1778 217 
Q 1610 227 1437 236 
Q 1264 246 1104 269 
Q 925 186 811 61 
Q 698 -64 698 -237 
Q 698 -346 754 -440 
Q 810 -534 925 -603 
Q 1040 -672 1214 -712 
Q 1389 -752 1626 -752 
Q 1856 -752 2038 -710 
Q 2221 -669 2347 -592 
Q 2474 -515 2541 -409 
Q 2608 -304 2608 -176 
z
M 1581 1584 
Q 1754 1584 1885 1632 
Q 2016 1680 2105 1766 
Q 2195 1853 2240 1973 
Q 2285 2093 2285 2237 
Q 2285 2534 2104 2710 
Q 1923 2886 1581 2886 
Q 1235 2886 1054 2710 
Q 874 2534 874 2237 
Q 874 2093 920 1973 
Q 966 1853 1056 1766 
Q 1146 1680 1277 1632 
Q 1408 1584 1581 1584 
z
" transform="scale(0.015625)"/>
       <path id="Lato-Regular-68" d="M 451 0 
L 451 4714 
L 1024 4714 
L 1024 2806 
Q 1232 3027 1485 3160 
Q 1738 3293 2067 3293 
Q 2333 3293 2536 3205 
Q 2739 3117 2875 2955 
Q 3011 2794 3081 2566 
Q 3152 2339 3152 2064 
L 3152 0 
L 2579 0 
L 2579 2064 
Q 2579 2432 2411 2635 
Q 2243 2838 1901 2838 
Q 1645 2838 1425 2716 
Q 1206 2595 1024 2387 
L 1024 0 
L 451 0 
z
" transform="scale(0.015625)"/>
       <path id="Lato-Regular-73" d="M 2339 2707 
Q 2301 2637 2221 2637 
Q 2173 2637 2112 2672 
Q 2051 2707 1963 2750 
Q 1875 2794 1753 2830 
Q 1632 2867 1466 2867 
Q 1322 2867 1206 2830 
Q 1091 2794 1009 2730 
Q 928 2666 885 2581 
Q 842 2496 842 2397 
Q 842 2272 914 2189 
Q 986 2106 1104 2045 
Q 1222 1984 1372 1937 
Q 1523 1891 1681 1838 
Q 1840 1786 1990 1722 
Q 2141 1658 2259 1562 
Q 2378 1466 2450 1326 
Q 2522 1187 2522 992 
Q 2522 768 2442 577 
Q 2362 387 2205 248 
Q 2048 109 1821 29 
Q 1594 -51 1296 -51 
Q 957 -51 681 59 
Q 406 170 214 342 
L 349 560 
Q 374 602 409 624 
Q 445 646 499 646 
Q 557 646 621 601 
Q 685 557 776 502 
Q 867 448 998 403 
Q 1130 358 1325 358 
Q 1491 358 1616 401 
Q 1741 445 1824 518 
Q 1907 592 1947 688 
Q 1987 784 1987 893 
Q 1987 1027 1915 1115 
Q 1843 1203 1724 1265 
Q 1606 1328 1454 1374 
Q 1302 1421 1144 1472 
Q 986 1523 834 1588 
Q 682 1654 563 1753 
Q 445 1853 373 1998 
Q 301 2144 301 2352 
Q 301 2538 377 2709 
Q 454 2880 601 3009 
Q 749 3139 963 3216 
Q 1178 3293 1453 3293 
Q 1773 3293 2027 3192 
Q 2282 3091 2467 2915 
L 2339 2707 
z
" transform="scale(0.015625)"/>
      </defs>
      <use xlink:href="#Lato-Regular-4e"/>
      <use xlink:href="#Lato-Regular-75" x="75.475006"/>
      <use xlink:href="#Lato-Regular-6d" x="131.225006"/>
      <use xlink:href="#Lato-Regular-62" x="213.475021"/>
      <use xlink:href="#Lato-Regular-65" x="269.475021"/>
      <use xlink:href="#Lato-Regular-72" x="322.275024"/>
      <use xlink:href="#Lato-Regular-20" x="356.550034"/>
      <use xlink:href="#Lato-Regular-6f" x="382.15004"/>
      <use xlink:href="#Lato-Regular-66" x="437.725052"/>
      <use xlink:href="#Lato-Regular-20" x="470.900055"/>
      <use xlink:href="#Lato-Regular-6e" x="496.500061"/>
      <use xlink:href="#Lato-Regular-65" x="552.300064"/>
      <use xlink:href="#Lato-Regular-69" x="605.100067"/>
      <use xlink:href="#Lato-Regular-67" x="629.100067"/>
      <use xlink:href="#Lato-Regular-68" x="681.100067"/>
      <use xlink:href="#Lato-Regular-62" x="736.90007"/>
      <use xlink:href="#Lato-Regular-6f" x="792.90007"/>
      <use xlink:href="#Lato-Regular-72" x="849.600082"/>
      <use xlink:href="#Lato-Regular-73" x="885.750092"/>
     </g>
    </g>
   </g>
   <g id="matplotlib.axis_2">
    <g id="ytick_1">
     <g id="line2d_5">
      <defs>
       <path id="mc9cd31e45f" d="M 0 0 
L -6 0 
" style="stroke: #262626; stroke-width: 1.25"/>
      </defs>
      <g>
       <use xlink:href="#mc9cd31e45f" x="57.1175" y="173.52" style="fill: #262626; stroke: #262626; stroke-width: 1.25"/>
      </g>
     </g>
     <g id="text_6">
      <!-- 0 -->
      <g style="fill: #262626" transform="translate(41.2375 177.571094) scale(0.11 -0.11)">
       <use xlink:href="#Lato-Regular-30"/>
      </g>
     </g>
    </g>
    <g id="ytick_2">
     <g id="line2d_6">
      <g>
       <use xlink:href="#mc9cd31e45f" x="57.1175" y="128.055017" style="fill: #262626; stroke: #262626; stroke-width: 1.25"/>
      </g>
     </g>
     <g id="text_7">
      <!-- 2000 -->
      <g style="fill: #262626" transform="translate(22.0975 132.106111) scale(0.11 -0.11)">
       <defs>
        <path id="Lato-Regular-32" d="M 1891 4637 
Q 2182 4637 2435 4550 
Q 2688 4464 2873 4299 
Q 3059 4134 3164 3897 
Q 3270 3661 3270 3360 
Q 3270 3104 3193 2885 
Q 3117 2666 2985 2467 
Q 2854 2269 2683 2080 
Q 2512 1891 2320 1699 
L 1110 464 
Q 1238 499 1369 520 
Q 1501 541 1622 541 
L 3158 541 
Q 3251 541 3305 486 
Q 3360 432 3360 346 
L 3360 0 
L 301 0 
L 301 195 
Q 301 256 326 320 
Q 352 384 406 438 
L 1875 1914 
Q 2058 2099 2208 2270 
Q 2358 2442 2464 2614 
Q 2570 2787 2627 2964 
Q 2685 3142 2685 3344 
Q 2685 3546 2621 3698 
Q 2557 3850 2446 3949 
Q 2336 4048 2185 4097 
Q 2035 4147 1862 4147 
Q 1686 4147 1539 4096 
Q 1392 4045 1278 3953 
Q 1165 3862 1088 3737 
Q 1011 3613 979 3462 
Q 941 3350 875 3313 
Q 810 3277 691 3293 
L 394 3344 
Q 438 3658 568 3899 
Q 698 4141 894 4304 
Q 1091 4467 1344 4552 
Q 1597 4637 1891 4637 
z
" transform="scale(0.015625)"/>
       </defs>
       <use xlink:href="#Lato-Regular-32"/>
       <use xlink:href="#Lato-Regular-30" x="58"/>
       <use xlink:href="#Lato-Regular-30" x="116"/>
       <use xlink:href="#Lato-Regular-30" x="174"/>
      </g>
     </g>
    </g>
    <g id="ytick_3">
     <g id="line2d_7">
      <g>
       <use xlink:href="#mc9cd31e45f" x="57.1175" y="82.590034" style="fill: #262626; stroke: #262626; stroke-width: 1.25"/>
      </g>
     </g>
     <g id="text_8">
      <!-- 4000 -->
      <g style="fill: #262626" transform="translate(22.0975 86.641128) scale(0.11 -0.11)">
       <defs>
        <path id="Lato-Regular-34" d="M 2835 1654 
L 3530 1654 
L 3530 1328 
Q 3530 1277 3499 1241 
Q 3469 1206 3405 1206 
L 2835 1206 
L 2835 0 
L 2336 0 
L 2336 1206 
L 301 1206 
Q 237 1206 190 1243 
Q 144 1280 131 1334 
L 74 1626 
L 2304 4586 
L 2835 4586 
L 2835 1654 
z
M 2336 3546 
Q 2336 3629 2341 3726 
Q 2346 3824 2362 3926 
L 691 1654 
L 2336 1654 
L 2336 3546 
z
" transform="scale(0.015625)"/>
       </defs>
       <use xlink:href="#Lato-Regular-34"/>
       <use xlink:href="#Lato-Regular-30" x="58"/>
       <use xlink:href="#Lato-Regular-30" x="116"/>
       <use xlink:href="#Lato-Regular-30" x="174"/>
      </g>
     </g>
    </g>
    <g id="ytick_4">
     <g id="line2d_8">
      <g>
       <use xlink:href="#mc9cd31e45f" x="57.1175" y="37.125052" style="fill: #262626; stroke: #262626; stroke-width: 1.25"/>
      </g>
     </g>
     <g id="text_9">
      <!-- 6000 -->
      <g style="fill: #262626" transform="translate(22.0975 41.176145) scale(0.11 -0.11)">
       <defs>
        <path id="Lato-Regular-36" d="M 1517 2867 
Q 1453 2790 1398 2716 
Q 1344 2643 1290 2573 
Q 1453 2685 1649 2747 
Q 1846 2810 2077 2810 
Q 2355 2810 2601 2718 
Q 2848 2627 3032 2452 
Q 3216 2278 3325 2024 
Q 3434 1770 3434 1443 
Q 3434 1126 3318 854 
Q 3203 582 2996 380 
Q 2790 179 2500 64 
Q 2211 -51 1862 -51 
Q 1517 -51 1235 59 
Q 954 170 757 373 
Q 560 576 453 865 
Q 346 1155 346 1514 
Q 346 1814 478 2155 
Q 611 2496 902 2883 
L 2067 4448 
Q 2112 4506 2190 4546 
Q 2269 4586 2371 4586 
L 2877 4586 
L 1517 2867 
z
M 893 1414 
Q 893 1194 957 1011 
Q 1021 829 1144 697 
Q 1267 566 1444 494 
Q 1622 422 1850 422 
Q 2080 422 2267 496 
Q 2454 570 2587 701 
Q 2720 832 2792 1011 
Q 2864 1190 2864 1402 
Q 2864 1626 2793 1806 
Q 2723 1987 2593 2113 
Q 2464 2240 2285 2307 
Q 2106 2374 1891 2374 
Q 1661 2374 1475 2296 
Q 1290 2218 1160 2085 
Q 1030 1952 961 1777 
Q 893 1603 893 1414 
z
" transform="scale(0.015625)"/>
       </defs>
       <use xlink:href="#Lato-Regular-36"/>
       <use xlink:href="#Lato-Regular-30" x="58"/>
       <use xlink:href="#Lato-Regular-30" x="116"/>
       <use xlink:href="#Lato-Regular-30" x="174"/>
      </g>
     </g>
    </g>
    <g id="text_10">
     <!-- Number of examples -->
     <g style="fill: #262626" transform="translate(16.03875 144.728438) rotate(-90) scale(0.12 -0.12)">
      <defs>
       <path id="Lato-Regular-78" d="M 1210 1661 
L 118 3242 
L 666 3242 
Q 736 3242 768 3219 
Q 800 3197 826 3155 
L 1619 1939 
Q 1648 2029 1702 2118 
L 2400 3142 
Q 2429 3187 2462 3214 
Q 2496 3242 2544 3242 
L 3069 3242 
L 1978 1693 
L 3114 0 
L 2566 0 
Q 2496 0 2456 37 
Q 2416 74 2390 118 
L 1574 1389 
Q 1552 1296 1507 1222 
L 752 118 
Q 720 74 683 37 
Q 646 0 582 0 
L 74 0 
L 1210 1661 
z
" transform="scale(0.015625)"/>
       <path id="Lato-Regular-61" d="M 2512 0 
Q 2429 0 2384 27 
Q 2339 54 2314 134 
L 2250 438 
Q 2122 323 1998 232 
Q 1875 141 1742 78 
Q 1610 16 1458 -17 
Q 1306 -51 1120 -51 
Q 931 -51 764 1 
Q 598 54 475 160 
Q 352 266 280 427 
Q 208 589 208 810 
Q 208 1002 313 1179 
Q 419 1357 656 1494 
Q 893 1632 1273 1720 
Q 1654 1808 2208 1821 
L 2208 2074 
Q 2208 2451 2045 2644 
Q 1882 2838 1568 2838 
Q 1357 2838 1214 2785 
Q 1072 2733 968 2667 
Q 864 2602 789 2549 
Q 714 2496 640 2496 
Q 582 2496 540 2526 
Q 499 2557 470 2602 
L 368 2784 
Q 637 3043 947 3171 
Q 1258 3299 1635 3299 
Q 1907 3299 2118 3209 
Q 2330 3120 2474 2960 
Q 2618 2800 2691 2573 
Q 2765 2346 2765 2074 
L 2765 0 
L 2512 0 
z
M 1290 349 
Q 1440 349 1565 379 
Q 1690 410 1800 466 
Q 1910 522 2011 603 
Q 2112 685 2208 787 
L 2208 1459 
Q 1814 1446 1537 1396 
Q 1261 1347 1086 1267 
Q 912 1187 833 1078 
Q 755 970 755 835 
Q 755 707 796 614 
Q 838 522 910 462 
Q 982 403 1080 376 
Q 1178 349 1290 349 
z
" transform="scale(0.015625)"/>
       <path id="Lato-Regular-70" d="M 451 -1098 
L 451 3242 
L 794 3242 
Q 915 3242 944 3123 
L 992 2739 
Q 1200 2992 1469 3145 
Q 1738 3299 2083 3299 
Q 2365 3299 2592 3192 
Q 2819 3085 2979 2875 
Q 3139 2666 3225 2355 
Q 3312 2045 3312 1642 
Q 3312 1283 3216 974 
Q 3120 666 2939 440 
Q 2758 214 2497 84 
Q 2237 -45 1910 -45 
Q 1613 -45 1400 54 
Q 1187 154 1024 336 
L 1024 -1098 
L 451 -1098 
z
M 1898 2838 
Q 1619 2838 1409 2710 
Q 1200 2582 1024 2349 
L 1024 781 
Q 1178 570 1365 483 
Q 1552 397 1782 397 
Q 2237 397 2480 720 
Q 2723 1043 2723 1642 
Q 2723 1958 2667 2185 
Q 2611 2413 2505 2558 
Q 2400 2704 2246 2771 
Q 2093 2838 1898 2838 
z
" transform="scale(0.015625)"/>
       <path id="Lato-Regular-6c" d="M 1040 4714 
L 1040 0 
L 470 0 
L 470 4714 
L 1040 4714 
z
" transform="scale(0.015625)"/>
      </defs>
      <use xlink:href="#Lato-Regular-4e"/>
      <use xlink:href="#Lato-Regular-75" x="75.475006"/>
      <use xlink:href="#Lato-Regular-6d" x="131.225006"/>
      <use xlink:href="#Lato-Regular-62" x="213.475021"/>
      <use xlink:href="#Lato-Regular-65" x="269.475021"/>
      <use xlink:href="#Lato-Regular-72" x="322.275024"/>
      <use xlink:href="#Lato-Regular-20" x="356.550034"/>
      <use xlink:href="#Lato-Regular-6f" x="382.15004"/>
      <use xlink:href="#Lato-Regular-66" x="437.725052"/>
      <use xlink:href="#Lato-Regular-20" x="470.900055"/>
      <use xlink:href="#Lato-Regular-65" x="496.500061"/>
      <use xlink:href="#Lato-Regular-78" x="548.675064"/>
      <use xlink:href="#Lato-Regular-61" x="598.475067"/>
      <use xlink:href="#Lato-Regular-6d" x="648.175079"/>
      <use xlink:href="#Lato-Regular-70" x="730.425095"/>
      <use xlink:href="#Lato-Regular-6c" x="786.475098"/>
      <use xlink:href="#Lato-Regular-65" x="810.075104"/>
      <use xlink:href="#Lato-Regular-73" x="862.875107"/>
     </g>
    </g>
   </g>
   <g id="patch_3">
    <path d="M 65.994773 173.52 
L 69.618149 173.52 
L 69.618149 172.019656 
L 65.994773 172.019656 
z
" clip-path="url(#p5555bf54c4)" style="fill: #3a5377; fill-opacity: 0.7; stroke: #3a5377; stroke-linejoin: miter"/>
   </g>
   <g id="patch_4">
    <path d="M 69.618149 173.52 
L 73.241526 173.52 
L 73.241526 156.197842 
L 69.618149 156.197842 
z
" clip-path="url(#p5555bf54c4)" style="fill: #3a5377; fill-opacity: 0.7; stroke: #3a5377; stroke-linejoin: miter"/>
   </g>
   <g id="patch_5">
    <path d="M 73.241526 173.52 
L 76.864903 173.52 
L 76.864903 76.361332 
L 73.241526 76.361332 
z
" clip-path="url(#p5555bf54c4)" style="fill: #3a5377; fill-opacity: 0.7; stroke: #3a5377; stroke-linejoin: miter"/>
   </g>
   <g id="patch_6">
    <path d="M 76.864903 173.52 
L 80.488279 173.52 
L 80.488279 66.654558 
L 76.864903 66.654558 
z
" clip-path="url(#p5555bf54c4)" style="fill: #3a5377; fill-opacity: 0.7; stroke: #3a5377; stroke-linejoin: miter"/>
   </g>
   <g id="patch_7">
    <path d="M 80.488279 173.52 
L 84.111656 173.52 
L 84.111656 48.354902 
L 80.488279 48.354902 
z
" clip-path="url(#p5555bf54c4)" style="fill: #3a5377; fill-opacity: 0.7; stroke: #3a5377; stroke-linejoin: miter"/>
   </g>
   <g id="patch_8">
    <path d="M 84.111656 173.52 
L 87.735032 173.52 
L 87.735032 93.842618 
L 84.111656 93.842618 
z
" clip-path="url(#p5555bf54c4)" style="fill: #3a5377; fill-opacity: 0.7; stroke: #3a5377; stroke-linejoin: miter"/>
   </g>
   <g id="patch_9">
    <path d="M 87.735032 173.52 
L 91.358409 173.52 
L 91.358409 88.977865 
L 87.735032 88.977865 
z
" clip-path="url(#p5555bf54c4)" style="fill: #3a5377; fill-opacity: 0.7; stroke: #3a5377; stroke-linejoin: miter"/>
   </g>
   <g id="patch_10">
    <path d="M 91.358409 173.52 
L 94.981786 173.52 
L 94.981786 113.438025 
L 91.358409 113.438025 
z
" clip-path="url(#p5555bf54c4)" style="fill: #3a5377; fill-opacity: 0.7; stroke: #3a5377; stroke-linejoin: miter"/>
   </g>
   <g id="patch_11">
    <path d="M 94.981786 173.52 
L 98.605162 173.52 
L 98.605162 77.156969 
L 94.981786 77.156969 
z
" clip-path="url(#p5555bf54c4)" style="fill: #3a5377; fill-opacity: 0.7; stroke: #3a5377; stroke-linejoin: miter"/>
   </g>
   <g id="patch_12">
    <path d="M 98.605162 173.52 
L 102.228539 173.52 
L 102.228539 93.001515 
L 98.605162 93.001515 
z
" clip-path="url(#p5555bf54c4)" style="fill: #3a5377; fill-opacity: 0.7; stroke: #3a5377; stroke-linejoin: miter"/>
   </g>
   <g id="patch_13">
    <path d="M 102.228539 173.52 
L 105.851916 173.52 
L 105.851916 78.543651 
L 102.228539 78.543651 
z
" clip-path="url(#p5555bf54c4)" style="fill: #3a5377; fill-opacity: 0.7; stroke: #3a5377; stroke-linejoin: miter"/>
   </g>
   <g id="patch_14">
    <path d="M 105.851916 173.52 
L 109.475292 173.52 
L 109.475292 133.55628 
L 105.851916 133.55628 
z
" clip-path="url(#p5555bf54c4)" style="fill: #3a5377; fill-opacity: 0.7; stroke: #3a5377; stroke-linejoin: miter"/>
   </g>
   <g id="patch_15">
    <path d="M 109.475292 173.52 
L 113.098669 173.52 
L 113.098669 140.989805 
L 109.475292 140.989805 
z
" clip-path="url(#p5555bf54c4)" style="fill: #3a5377; fill-opacity: 0.7; stroke: #3a5377; stroke-linejoin: miter"/>
   </g>
   <g id="patch_16">
    <path d="M 113.098669 173.52 
L 116.722045 173.52 
L 116.722045 158.130103 
L 113.098669 158.130103 
z
" clip-path="url(#p5555bf54c4)" style="fill: #3a5377; fill-opacity: 0.7; stroke: #3a5377; stroke-linejoin: miter"/>
   </g>
   <g id="patch_17">
    <path d="M 116.722045 173.52 
L 120.345422 173.52 
L 120.345422 158.925741 
L 116.722045 158.925741 
z
" clip-path="url(#p5555bf54c4)" style="fill: #3a5377; fill-opacity: 0.7; stroke: #3a5377; stroke-linejoin: miter"/>
   </g>
   <g id="patch_18">
    <path d="M 120.345422 173.52 
L 123.968799 173.52 
L 123.968799 168.177865 
L 120.345422 168.177865 
z
" clip-path="url(#p5555bf54c4)" style="fill: #3a5377; fill-opacity: 0.7; stroke: #3a5377; stroke-linejoin: miter"/>
   </g>
   <g id="patch_19">
    <path d="M 123.968799 173.52 
L 127.592175 173.52 
L 127.592175 169.269024 
L 123.968799 169.269024 
z
" clip-path="url(#p5555bf54c4)" style="fill: #3a5377; fill-opacity: 0.7; stroke: #3a5377; stroke-linejoin: miter"/>
   </g>
   <g id="patch_20">
    <path d="M 127.592175 173.52 
L 131.215552 173.52 
L 131.215552 170.519311 
L 127.592175 170.519311 
z
" clip-path="url(#p5555bf54c4)" style="fill: #3a5377; fill-opacity: 0.7; stroke: #3a5377; stroke-linejoin: miter"/>
   </g>
   <g id="patch_21">
    <path d="M 131.215552 173.52 
L 134.838929 173.52 
L 134.838929 171.655936 
L 131.215552 171.655936 
z
" clip-path="url(#p5555bf54c4)" style="fill: #3a5377; fill-opacity: 0.7; stroke: #3a5377; stroke-linejoin: miter"/>
   </g>
   <g id="patch_22">
    <path d="M 134.838929 173.52 
L 138.462305 173.52 
L 138.462305 172.360643 
L 134.838929 172.360643 
z
" clip-path="url(#p5555bf54c4)" style="fill: #3a5377; fill-opacity: 0.7; stroke: #3a5377; stroke-linejoin: miter"/>
   </g>
   <g id="patch_23">
    <path d="M 138.462305 173.52 
L 142.085682 173.52 
L 142.085682 172.860758 
L 138.462305 172.860758 
z
" clip-path="url(#p5555bf54c4)" style="fill: #3a5377; fill-opacity: 0.7; stroke: #3a5377; stroke-linejoin: miter"/>
   </g>
   <g id="patch_24">
    <path d="M 142.085682 173.52 
L 145.709058 173.52 
L 145.709058 173.33814 
L 142.085682 173.33814 
z
" clip-path="url(#p5555bf54c4)" style="fill: #3a5377; fill-opacity: 0.7; stroke: #3a5377; stroke-linejoin: miter"/>
   </g>
   <g id="patch_25">
    <path d="M 145.709058 173.52 
L 149.332435 173.52 
L 149.332435 173.52 
L 145.709058 173.52 
z
" clip-path="url(#p5555bf54c4)" style="fill: #3a5377; fill-opacity: 0.7; stroke: #3a5377; stroke-linejoin: miter"/>
   </g>
   <g id="patch_26">
    <path d="M 149.332435 173.52 
L 152.955812 173.52 
L 152.955812 173.383605 
L 149.332435 173.383605 
z
" clip-path="url(#p5555bf54c4)" style="fill: #3a5377; fill-opacity: 0.7; stroke: #3a5377; stroke-linejoin: miter"/>
   </g>
   <g id="patch_27">
    <path d="M 152.955812 173.52 
L 156.579188 173.52 
L 156.579188 173.52 
L 152.955812 173.52 
z
" clip-path="url(#p5555bf54c4)" style="fill: #3a5377; fill-opacity: 0.7; stroke: #3a5377; stroke-linejoin: miter"/>
   </g>
   <g id="patch_28">
    <path d="M 156.579188 173.52 
L 160.202565 173.52 
L 160.202565 173.52 
L 156.579188 173.52 
z
" clip-path="url(#p5555bf54c4)" style="fill: #3a5377; fill-opacity: 0.7; stroke: #3a5377; stroke-linejoin: miter"/>
   </g>
   <g id="patch_29">
    <path d="M 160.202565 173.52 
L 163.825942 173.52 
L 163.825942 173.52 
L 160.202565 173.52 
z
" clip-path="url(#p5555bf54c4)" style="fill: #3a5377; fill-opacity: 0.7; stroke: #3a5377; stroke-linejoin: miter"/>
   </g>
   <g id="patch_30">
    <path d="M 163.825942 173.52 
L 167.449318 173.52 
L 167.449318 173.52 
L 163.825942 173.52 
z
" clip-path="url(#p5555bf54c4)" style="fill: #3a5377; fill-opacity: 0.7; stroke: #3a5377; stroke-linejoin: miter"/>
   </g>
   <g id="patch_31">
    <path d="M 167.449318 173.52 
L 171.072695 173.52 
L 171.072695 173.52 
L 167.449318 173.52 
z
" clip-path="url(#p5555bf54c4)" style="fill: #3a5377; fill-opacity: 0.7; stroke: #3a5377; stroke-linejoin: miter"/>
   </g>
   <g id="patch_32">
    <path d="M 171.072695 173.52 
L 174.696071 173.52 
L 174.696071 173.52 
L 171.072695 173.52 
z
" clip-path="url(#p5555bf54c4)" style="fill: #3a5377; fill-opacity: 0.7; stroke: #3a5377; stroke-linejoin: miter"/>
   </g>
   <g id="patch_33">
    <path d="M 174.696071 173.52 
L 178.319448 173.52 
L 178.319448 173.52 
L 174.696071 173.52 
z
" clip-path="url(#p5555bf54c4)" style="fill: #3a5377; fill-opacity: 0.7; stroke: #3a5377; stroke-linejoin: miter"/>
   </g>
   <g id="patch_34">
    <path d="M 178.319448 173.52 
L 181.942825 173.52 
L 181.942825 173.52 
L 178.319448 173.52 
z
" clip-path="url(#p5555bf54c4)" style="fill: #3a5377; fill-opacity: 0.7; stroke: #3a5377; stroke-linejoin: miter"/>
   </g>
   <g id="patch_35">
    <path d="M 181.942825 173.52 
L 185.566201 173.52 
L 185.566201 173.52 
L 181.942825 173.52 
z
" clip-path="url(#p5555bf54c4)" style="fill: #3a5377; fill-opacity: 0.7; stroke: #3a5377; stroke-linejoin: miter"/>
   </g>
   <g id="patch_36">
    <path d="M 185.566201 173.52 
L 189.189578 173.52 
L 189.189578 173.52 
L 185.566201 173.52 
z
" clip-path="url(#p5555bf54c4)" style="fill: #3a5377; fill-opacity: 0.7; stroke: #3a5377; stroke-linejoin: miter"/>
   </g>
   <g id="patch_37">
    <path d="M 189.189578 173.52 
L 192.812955 173.52 
L 192.812955 173.52 
L 189.189578 173.52 
z
" clip-path="url(#p5555bf54c4)" style="fill: #3a5377; fill-opacity: 0.7; stroke: #3a5377; stroke-linejoin: miter"/>
   </g>
   <g id="patch_38">
    <path d="M 192.812955 173.52 
L 196.436331 173.52 
L 196.436331 173.52 
L 192.812955 173.52 
z
" clip-path="url(#p5555bf54c4)" style="fill: #3a5377; fill-opacity: 0.7; stroke: #3a5377; stroke-linejoin: miter"/>
   </g>
   <g id="patch_39">
    <path d="M 196.436331 173.52 
L 200.059708 173.52 
L 200.059708 173.52 
L 196.436331 173.52 
z
" clip-path="url(#p5555bf54c4)" style="fill: #3a5377; fill-opacity: 0.7; stroke: #3a5377; stroke-linejoin: miter"/>
   </g>
   <g id="patch_40">
    <path d="M 200.059708 173.52 
L 203.683084 173.52 
L 203.683084 173.52 
L 200.059708 173.52 
z
" clip-path="url(#p5555bf54c4)" style="fill: #3a5377; fill-opacity: 0.7; stroke: #3a5377; stroke-linejoin: miter"/>
   </g>
   <g id="patch_41">
    <path d="M 203.683084 173.52 
L 207.306461 173.52 
L 207.306461 173.52 
L 203.683084 173.52 
z
" clip-path="url(#p5555bf54c4)" style="fill: #3a5377; fill-opacity: 0.7; stroke: #3a5377; stroke-linejoin: miter"/>
   </g>
   <g id="patch_42">
    <path d="M 207.306461 173.52 
L 210.929838 173.52 
L 210.929838 173.52 
L 207.306461 173.52 
z
" clip-path="url(#p5555bf54c4)" style="fill: #3a5377; fill-opacity: 0.7; stroke: #3a5377; stroke-linejoin: miter"/>
   </g>
   <g id="patch_43">
    <path d="M 210.929838 173.52 
L 214.553214 173.52 
L 214.553214 173.52 
L 210.929838 173.52 
z
" clip-path="url(#p5555bf54c4)" style="fill: #3a5377; fill-opacity: 0.7; stroke: #3a5377; stroke-linejoin: miter"/>
   </g>
   <g id="patch_44">
    <path d="M 214.553214 173.52 
L 218.176591 173.52 
L 218.176591 173.52 
L 214.553214 173.52 
z
" clip-path="url(#p5555bf54c4)" style="fill: #3a5377; fill-opacity: 0.7; stroke: #3a5377; stroke-linejoin: miter"/>
   </g>
   <g id="patch_45">
    <path d="M 218.176591 173.52 
L 221.799968 173.52 
L 221.799968 173.52 
L 218.176591 173.52 
z
" clip-path="url(#p5555bf54c4)" style="fill: #3a5377; fill-opacity: 0.7; stroke: #3a5377; stroke-linejoin: miter"/>
   </g>
   <g id="patch_46">
    <path d="M 221.799968 173.52 
L 225.423344 173.52 
L 225.423344 173.52 
L 221.799968 173.52 
z
" clip-path="url(#p5555bf54c4)" style="fill: #3a5377; fill-opacity: 0.7; stroke: #3a5377; stroke-linejoin: miter"/>
   </g>
   <g id="patch_47">
    <path d="M 225.423344 173.52 
L 229.046721 173.52 
L 229.046721 173.52 
L 225.423344 173.52 
z
" clip-path="url(#p5555bf54c4)" style="fill: #3a5377; fill-opacity: 0.7; stroke: #3a5377; stroke-linejoin: miter"/>
   </g>
   <g id="patch_48">
    <path d="M 229.046721 173.52 
L 232.670097 173.52 
L 232.670097 173.52 
L 229.046721 173.52 
z
" clip-path="url(#p5555bf54c4)" style="fill: #3a5377; fill-opacity: 0.7; stroke: #3a5377; stroke-linejoin: miter"/>
   </g>
   <g id="patch_49">
    <path d="M 232.670097 173.52 
L 236.293474 173.52 
L 236.293474 173.52 
L 232.670097 173.52 
z
" clip-path="url(#p5555bf54c4)" style="fill: #3a5377; fill-opacity: 0.7; stroke: #3a5377; stroke-linejoin: miter"/>
   </g>
   <g id="patch_50">
    <path d="M 236.293474 173.52 
L 239.916851 173.52 
L 239.916851 173.52 
L 236.293474 173.52 
z
" clip-path="url(#p5555bf54c4)" style="fill: #3a5377; fill-opacity: 0.7; stroke: #3a5377; stroke-linejoin: miter"/>
   </g>
   <g id="patch_51">
    <path d="M 239.916851 173.52 
L 243.540227 173.52 
L 243.540227 173.474535 
L 239.916851 173.474535 
z
" clip-path="url(#p5555bf54c4)" style="fill: #3a5377; fill-opacity: 0.7; stroke: #3a5377; stroke-linejoin: miter"/>
   </g>
   <g id="patch_52">
    <path d="M 65.994773 172.019656 
L 69.618149 172.019656 
L 69.618149 171.610471 
L 65.994773 171.610471 
z
" clip-path="url(#p5555bf54c4)" style="fill: #ca675f; fill-opacity: 0.7; stroke: #ca675f; stroke-linejoin: miter"/>
   </g>
   <g id="patch_53">
    <path d="M 69.618149 156.197842 
L 73.241526 156.197842 
L 73.241526 154.561102 
L 69.618149 154.561102 
z
" clip-path="url(#p5555bf54c4)" style="fill: #ca675f; fill-opacity: 0.7; stroke: #ca675f; stroke-linejoin: miter"/>
   </g>
   <g id="patch_54">
    <path d="M 73.241526 76.361332 
L 76.864903 76.361332 
L 76.864903 64.153984 
L 73.241526 64.153984 
z
" clip-path="url(#p5555bf54c4)" style="fill: #ca675f; fill-opacity: 0.7; stroke: #ca675f; stroke-linejoin: miter"/>
   </g>
   <g id="patch_55">
    <path d="M 76.864903 66.654558 
L 80.488279 66.654558 
L 80.488279 52.924133 
L 76.864903 52.924133 
z
" clip-path="url(#p5555bf54c4)" style="fill: #ca675f; fill-opacity: 0.7; stroke: #ca675f; stroke-linejoin: miter"/>
   </g>
   <g id="patch_56">
    <path d="M 80.488279 48.354902 
L 84.111656 48.354902 
L 84.111656 35.170057 
L 80.488279 35.170057 
z
" clip-path="url(#p5555bf54c4)" style="fill: #ca675f; fill-opacity: 0.7; stroke: #ca675f; stroke-linejoin: miter"/>
   </g>
   <g id="patch_57">
    <path d="M 84.111656 93.842618 
L 87.735032 93.842618 
L 87.735032 85.545258 
L 84.111656 85.545258 
z
" clip-path="url(#p5555bf54c4)" style="fill: #ca675f; fill-opacity: 0.7; stroke: #ca675f; stroke-linejoin: miter"/>
   </g>
   <g id="patch_58">
    <path d="M 87.735032 88.977865 
L 91.358409 88.977865 
L 91.358409 80.430448 
L 87.735032 80.430448 
z
" clip-path="url(#p5555bf54c4)" style="fill: #ca675f; fill-opacity: 0.7; stroke: #ca675f; stroke-linejoin: miter"/>
   </g>
   <g id="patch_59">
    <path d="M 91.358409 113.438025 
L 94.981786 113.438025 
L 94.981786 105.822641 
L 91.358409 105.822641 
z
" clip-path="url(#p5555bf54c4)" style="fill: #ca675f; fill-opacity: 0.7; stroke: #ca675f; stroke-linejoin: miter"/>
   </g>
   <g id="patch_60">
    <path d="M 94.981786 77.156969 
L 98.605162 77.156969 
L 98.605162 64.176716 
L 94.981786 64.176716 
z
" clip-path="url(#p5555bf54c4)" style="fill: #ca675f; fill-opacity: 0.7; stroke: #ca675f; stroke-linejoin: miter"/>
   </g>
   <g id="patch_61">
    <path d="M 98.605162 93.001515 
L 102.228539 93.001515 
L 102.228539 82.908289 
L 98.605162 82.908289 
z
" clip-path="url(#p5555bf54c4)" style="fill: #ca675f; fill-opacity: 0.7; stroke: #ca675f; stroke-linejoin: miter"/>
   </g>
   <g id="patch_62">
    <path d="M 102.228539 78.543651 
L 105.851916 78.543651 
L 105.851916 67.654788 
L 102.228539 67.654788 
z
" clip-path="url(#p5555bf54c4)" style="fill: #ca675f; fill-opacity: 0.7; stroke: #ca675f; stroke-linejoin: miter"/>
   </g>
   <g id="patch_63">
    <path d="M 105.851916 133.55628 
L 109.475292 133.55628 
L 109.475292 127.80496 
L 105.851916 127.80496 
z
" clip-path="url(#p5555bf54c4)" style="fill: #ca675f; fill-opacity: 0.7; stroke: #ca675f; stroke-linejoin: miter"/>
   </g>
   <g id="patch_64">
    <path d="M 109.475292 140.989805 
L 113.098669 140.989805 
L 113.098669 136.875224 
L 109.475292 136.875224 
z
" clip-path="url(#p5555bf54c4)" style="fill: #ca675f; fill-opacity: 0.7; stroke: #ca675f; stroke-linejoin: miter"/>
   </g>
   <g id="patch_65">
    <path d="M 113.098669 158.130103 
L 116.722045 158.130103 
L 116.722045 156.470631 
L 113.098669 156.470631 
z
" clip-path="url(#p5555bf54c4)" style="fill: #ca675f; fill-opacity: 0.7; stroke: #ca675f; stroke-linejoin: miter"/>
   </g>
   <g id="patch_66">
    <path d="M 116.722045 158.925741 
L 120.345422 158.925741 
L 120.345422 156.175109 
L 116.722045 156.175109 
z
" clip-path="url(#p5555bf54c4)" style="fill: #ca675f; fill-opacity: 0.7; stroke: #ca675f; stroke-linejoin: miter"/>
   </g>
   <g id="patch_67">
    <path d="M 120.345422 168.177865 
L 123.968799 168.177865 
L 123.968799 167.291297 
L 120.345422 167.291297 
z
" clip-path="url(#p5555bf54c4)" style="fill: #ca675f; fill-opacity: 0.7; stroke: #ca675f; stroke-linejoin: miter"/>
   </g>
   <g id="patch_68">
    <path d="M 123.968799 169.269024 
L 127.592175 169.269024 
L 127.592175 168.996234 
L 123.968799 168.996234 
z
" clip-path="url(#p5555bf54c4)" style="fill: #ca675f; fill-opacity: 0.7; stroke: #ca675f; stroke-linejoin: miter"/>
   </g>
   <g id="patch_69">
    <path d="M 127.592175 170.519311 
L 131.215552 170.519311 
L 131.215552 169.905534 
L 127.592175 169.905534 
z
" clip-path="url(#p5555bf54c4)" style="fill: #ca675f; fill-opacity: 0.7; stroke: #ca675f; stroke-linejoin: miter"/>
   </g>
   <g id="patch_70">
    <path d="M 131.215552 171.655936 
L 134.838929 171.655936 
L 134.838929 171.383146 
L 131.215552 171.383146 
z
" clip-path="url(#p5555bf54c4)" style="fill: #ca675f; fill-opacity: 0.7; stroke: #ca675f; stroke-linejoin: miter"/>
   </g>
   <g id="patch_71">
    <path d="M 134.838929 172.360643 
L 138.462305 172.360643 
L 138.462305 172.065121 
L 134.838929 172.065121 
z
" clip-path="url(#p5555bf54c4)" style="fill: #ca675f; fill-opacity: 0.7; stroke: #ca675f; stroke-linejoin: miter"/>
   </g>
   <g id="patch_72">
    <path d="M 138.462305 172.860758 
L 142.085682 172.860758 
L 142.085682 172.860758 
L 138.462305 172.860758 
z
" clip-path="url(#p5555bf54c4)" style="fill: #ca675f; fill-opacity: 0.7; stroke: #ca675f; stroke-linejoin: miter"/>
   </g>
   <g id="patch_73">
    <path d="M 142.085682 173.33814 
L 145.709058 173.33814 
L 145.709058 173.33814 
L 142.085682 173.33814 
z
" clip-path="url(#p5555bf54c4)" style="fill: #ca675f; fill-opacity: 0.7; stroke: #ca675f; stroke-linejoin: miter"/>
   </g>
   <g id="patch_74">
    <path d="M 145.709058 173.52 
L 149.332435 173.52 
L 149.332435 173.474535 
L 145.709058 173.474535 
z
" clip-path="url(#p5555bf54c4)" style="fill: #ca675f; fill-opacity: 0.7; stroke: #ca675f; stroke-linejoin: miter"/>
   </g>
   <g id="patch_75">
    <path d="M 149.332435 173.383605 
L 152.955812 173.383605 
L 152.955812 173.383605 
L 149.332435 173.383605 
z
" clip-path="url(#p5555bf54c4)" style="fill: #ca675f; fill-opacity: 0.7; stroke: #ca675f; stroke-linejoin: miter"/>
   </g>
   <g id="patch_76">
    <path d="M 152.955812 173.52 
L 156.579188 173.52 
L 156.579188 173.52 
L 152.955812 173.52 
z
" clip-path="url(#p5555bf54c4)" style="fill: #ca675f; fill-opacity: 0.7; stroke: #ca675f; stroke-linejoin: miter"/>
   </g>
   <g id="patch_77">
    <path d="M 156.579188 173.52 
L 160.202565 173.52 
L 160.202565 173.52 
L 156.579188 173.52 
z
" clip-path="url(#p5555bf54c4)" style="fill: #ca675f; fill-opacity: 0.7; stroke: #ca675f; stroke-linejoin: miter"/>
   </g>
   <g id="patch_78">
    <path d="M 160.202565 173.52 
L 163.825942 173.52 
L 163.825942 173.52 
L 160.202565 173.52 
z
" clip-path="url(#p5555bf54c4)" style="fill: #ca675f; fill-opacity: 0.7; stroke: #ca675f; stroke-linejoin: miter"/>
   </g>
   <g id="patch_79">
    <path d="M 163.825942 173.52 
L 167.449318 173.52 
L 167.449318 173.52 
L 163.825942 173.52 
z
" clip-path="url(#p5555bf54c4)" style="fill: #ca675f; fill-opacity: 0.7; stroke: #ca675f; stroke-linejoin: miter"/>
   </g>
   <g id="patch_80">
    <path d="M 167.449318 173.52 
L 171.072695 173.52 
L 171.072695 173.52 
L 167.449318 173.52 
z
" clip-path="url(#p5555bf54c4)" style="fill: #ca675f; fill-opacity: 0.7; stroke: #ca675f; stroke-linejoin: miter"/>
   </g>
   <g id="patch_81">
    <path d="M 171.072695 173.52 
L 174.696071 173.52 
L 174.696071 173.52 
L 171.072695 173.52 
z
" clip-path="url(#p5555bf54c4)" style="fill: #ca675f; fill-opacity: 0.7; stroke: #ca675f; stroke-linejoin: miter"/>
   </g>
   <g id="patch_82">
    <path d="M 174.696071 173.52 
L 178.319448 173.52 
L 178.319448 173.52 
L 174.696071 173.52 
z
" clip-path="url(#p5555bf54c4)" style="fill: #ca675f; fill-opacity: 0.7; stroke: #ca675f; stroke-linejoin: miter"/>
   </g>
   <g id="patch_83">
    <path d="M 178.319448 173.52 
L 181.942825 173.52 
L 181.942825 173.52 
L 178.319448 173.52 
z
" clip-path="url(#p5555bf54c4)" style="fill: #ca675f; fill-opacity: 0.7; stroke: #ca675f; stroke-linejoin: miter"/>
   </g>
   <g id="patch_84">
    <path d="M 181.942825 173.52 
L 185.566201 173.52 
L 185.566201 173.52 
L 181.942825 173.52 
z
" clip-path="url(#p5555bf54c4)" style="fill: #ca675f; fill-opacity: 0.7; stroke: #ca675f; stroke-linejoin: miter"/>
   </g>
   <g id="patch_85">
    <path d="M 185.566201 173.52 
L 189.189578 173.52 
L 189.189578 173.52 
L 185.566201 173.52 
z
" clip-path="url(#p5555bf54c4)" style="fill: #ca675f; fill-opacity: 0.7; stroke: #ca675f; stroke-linejoin: miter"/>
   </g>
   <g id="patch_86">
    <path d="M 189.189578 173.52 
L 192.812955 173.52 
L 192.812955 173.52 
L 189.189578 173.52 
z
" clip-path="url(#p5555bf54c4)" style="fill: #ca675f; fill-opacity: 0.7; stroke: #ca675f; stroke-linejoin: miter"/>
   </g>
   <g id="patch_87">
    <path d="M 192.812955 173.52 
L 196.436331 173.52 
L 196.436331 173.52 
L 192.812955 173.52 
z
" clip-path="url(#p5555bf54c4)" style="fill: #ca675f; fill-opacity: 0.7; stroke: #ca675f; stroke-linejoin: miter"/>
   </g>
   <g id="patch_88">
    <path d="M 196.436331 173.52 
L 200.059708 173.52 
L 200.059708 173.52 
L 196.436331 173.52 
z
" clip-path="url(#p5555bf54c4)" style="fill: #ca675f; fill-opacity: 0.7; stroke: #ca675f; stroke-linejoin: miter"/>
   </g>
   <g id="patch_89">
    <path d="M 200.059708 173.52 
L 203.683084 173.52 
L 203.683084 173.52 
L 200.059708 173.52 
z
" clip-path="url(#p5555bf54c4)" style="fill: #ca675f; fill-opacity: 0.7; stroke: #ca675f; stroke-linejoin: miter"/>
   </g>
   <g id="patch_90">
    <path d="M 203.683084 173.52 
L 207.306461 173.52 
L 207.306461 173.52 
L 203.683084 173.52 
z
" clip-path="url(#p5555bf54c4)" style="fill: #ca675f; fill-opacity: 0.7; stroke: #ca675f; stroke-linejoin: miter"/>
   </g>
   <g id="patch_91">
    <path d="M 207.306461 173.52 
L 210.929838 173.52 
L 210.929838 173.52 
L 207.306461 173.52 
z
" clip-path="url(#p5555bf54c4)" style="fill: #ca675f; fill-opacity: 0.7; stroke: #ca675f; stroke-linejoin: miter"/>
   </g>
   <g id="patch_92">
    <path d="M 210.929838 173.52 
L 214.553214 173.52 
L 214.553214 173.52 
L 210.929838 173.52 
z
" clip-path="url(#p5555bf54c4)" style="fill: #ca675f; fill-opacity: 0.7; stroke: #ca675f; stroke-linejoin: miter"/>
   </g>
   <g id="patch_93">
    <path d="M 214.553214 173.52 
L 218.176591 173.52 
L 218.176591 173.52 
L 214.553214 173.52 
z
" clip-path="url(#p5555bf54c4)" style="fill: #ca675f; fill-opacity: 0.7; stroke: #ca675f; stroke-linejoin: miter"/>
   </g>
   <g id="patch_94">
    <path d="M 218.176591 173.52 
L 221.799968 173.52 
L 221.799968 173.52 
L 218.176591 173.52 
z
" clip-path="url(#p5555bf54c4)" style="fill: #ca675f; fill-opacity: 0.7; stroke: #ca675f; stroke-linejoin: miter"/>
   </g>
   <g id="patch_95">
    <path d="M 221.799968 173.52 
L 225.423344 173.52 
L 225.423344 173.52 
L 221.799968 173.52 
z
" clip-path="url(#p5555bf54c4)" style="fill: #ca675f; fill-opacity: 0.7; stroke: #ca675f; stroke-linejoin: miter"/>
   </g>
   <g id="patch_96">
    <path d="M 225.423344 173.52 
L 229.046721 173.52 
L 229.046721 173.52 
L 225.423344 173.52 
z
" clip-path="url(#p5555bf54c4)" style="fill: #ca675f; fill-opacity: 0.7; stroke: #ca675f; stroke-linejoin: miter"/>
   </g>
   <g id="patch_97">
    <path d="M 229.046721 173.52 
L 232.670097 173.52 
L 232.670097 173.52 
L 229.046721 173.52 
z
" clip-path="url(#p5555bf54c4)" style="fill: #ca675f; fill-opacity: 0.7; stroke: #ca675f; stroke-linejoin: miter"/>
   </g>
   <g id="patch_98">
    <path d="M 232.670097 173.52 
L 236.293474 173.52 
L 236.293474 173.52 
L 232.670097 173.52 
z
" clip-path="url(#p5555bf54c4)" style="fill: #ca675f; fill-opacity: 0.7; stroke: #ca675f; stroke-linejoin: miter"/>
   </g>
   <g id="patch_99">
    <path d="M 236.293474 173.52 
L 239.916851 173.52 
L 239.916851 173.52 
L 236.293474 173.52 
z
" clip-path="url(#p5555bf54c4)" style="fill: #ca675f; fill-opacity: 0.7; stroke: #ca675f; stroke-linejoin: miter"/>
   </g>
   <g id="patch_100">
    <path d="M 239.916851 173.474535 
L 243.540227 173.474535 
L 243.540227 173.474535 
L 239.916851 173.474535 
z
" clip-path="url(#p5555bf54c4)" style="fill: #ca675f; fill-opacity: 0.7; stroke: #ca675f; stroke-linejoin: miter"/>
   </g>
   <g id="patch_101">
    <path d="M 65.994773 171.610471 
L 69.618149 171.610471 
L 69.618149 171.383146 
L 65.994773 171.383146 
z
" clip-path="url(#p5555bf54c4)" style="fill: #e6be93; fill-opacity: 0.7; stroke: #e6be93; stroke-linejoin: miter"/>
   </g>
   <g id="patch_102">
    <path d="M 69.618149 154.561102 
L 73.241526 154.561102 
L 73.241526 152.515178 
L 69.618149 152.515178 
z
" clip-path="url(#p5555bf54c4)" style="fill: #e6be93; fill-opacity: 0.7; stroke: #e6be93; stroke-linejoin: miter"/>
   </g>
   <g id="patch_103">
    <path d="M 73.241526 64.153984 
L 76.864903 64.153984 
L 76.864903 52.401286 
L 73.241526 52.401286 
z
" clip-path="url(#p5555bf54c4)" style="fill: #e6be93; fill-opacity: 0.7; stroke: #e6be93; stroke-linejoin: miter"/>
   </g>
   <g id="patch_104">
    <path d="M 76.864903 52.924133 
L 80.488279 52.924133 
L 80.488279 40.421263 
L 76.864903 40.421263 
z
" clip-path="url(#p5555bf54c4)" style="fill: #e6be93; fill-opacity: 0.7; stroke: #e6be93; stroke-linejoin: miter"/>
   </g>
   <g id="patch_105">
    <path d="M 80.488279 35.170057 
L 84.111656 35.170057 
L 84.111656 15.12 
L 80.488279 15.12 
z
" clip-path="url(#p5555bf54c4)" style="fill: #e6be93; fill-opacity: 0.7; stroke: #e6be93; stroke-linejoin: miter"/>
   </g>
   <g id="patch_106">
    <path d="M 84.111656 85.545258 
L 87.735032 85.545258 
L 87.735032 73.542503 
L 84.111656 73.542503 
z
" clip-path="url(#p5555bf54c4)" style="fill: #e6be93; fill-opacity: 0.7; stroke: #e6be93; stroke-linejoin: miter"/>
   </g>
   <g id="patch_107">
    <path d="M 87.735032 80.430448 
L 91.358409 80.430448 
L 91.358409 67.76845 
L 87.735032 67.76845 
z
" clip-path="url(#p5555bf54c4)" style="fill: #e6be93; fill-opacity: 0.7; stroke: #e6be93; stroke-linejoin: miter"/>
   </g>
   <g id="patch_108">
    <path d="M 91.358409 105.822641 
L 94.981786 105.822641 
L 94.981786 98.434581 
L 91.358409 98.434581 
z
" clip-path="url(#p5555bf54c4)" style="fill: #e6be93; fill-opacity: 0.7; stroke: #e6be93; stroke-linejoin: miter"/>
   </g>
   <g id="patch_109">
    <path d="M 94.981786 64.176716 
L 98.605162 64.176716 
L 98.605162 49.173272 
L 94.981786 49.173272 
z
" clip-path="url(#p5555bf54c4)" style="fill: #e6be93; fill-opacity: 0.7; stroke: #e6be93; stroke-linejoin: miter"/>
   </g>
   <g id="patch_110">
    <path d="M 98.605162 82.908289 
L 102.228539 82.908289 
L 102.228539 69.837107 
L 98.605162 69.837107 
z
" clip-path="url(#p5555bf54c4)" style="fill: #e6be93; fill-opacity: 0.7; stroke: #e6be93; stroke-linejoin: miter"/>
   </g>
   <g id="patch_111">
    <path d="M 102.228539 67.654788 
L 105.851916 67.654788 
L 105.851916 54.72 
L 102.228539 54.72 
z
" clip-path="url(#p5555bf54c4)" style="fill: #e6be93; fill-opacity: 0.7; stroke: #e6be93; stroke-linejoin: miter"/>
   </g>
   <g id="patch_112">
    <path d="M 105.851916 127.80496 
L 109.475292 127.80496 
L 109.475292 120.030448 
L 105.851916 120.030448 
z
" clip-path="url(#p5555bf54c4)" style="fill: #e6be93; fill-opacity: 0.7; stroke: #e6be93; stroke-linejoin: miter"/>
   </g>
   <g id="patch_113">
    <path d="M 109.475292 136.875224 
L 113.098669 136.875224 
L 113.098669 130.737451 
L 109.475292 130.737451 
z
" clip-path="url(#p5555bf54c4)" style="fill: #e6be93; fill-opacity: 0.7; stroke: #e6be93; stroke-linejoin: miter"/>
   </g>
   <g id="patch_114">
    <path d="M 113.098669 156.470631 
L 116.722045 156.470631 
L 116.722045 154.08372 
L 113.098669 154.08372 
z
" clip-path="url(#p5555bf54c4)" style="fill: #e6be93; fill-opacity: 0.7; stroke: #e6be93; stroke-linejoin: miter"/>
   </g>
   <g id="patch_115">
    <path d="M 116.722045 156.175109 
L 120.345422 156.175109 
L 120.345422 154.561102 
L 116.722045 154.561102 
z
" clip-path="url(#p5555bf54c4)" style="fill: #e6be93; fill-opacity: 0.7; stroke: #e6be93; stroke-linejoin: miter"/>
   </g>
   <g id="patch_116">
    <path d="M 120.345422 167.291297 
L 123.968799 167.291297 
L 123.968799 166.609323 
L 120.345422 166.609323 
z
" clip-path="url(#p5555bf54c4)" style="fill: #e6be93; fill-opacity: 0.7; stroke: #e6be93; stroke-linejoin: miter"/>
   </g>
   <g id="patch_117">
    <path d="M 123.968799 168.996234 
L 127.592175 168.996234 
L 127.592175 167.67775 
L 123.968799 167.67775 
z
" clip-path="url(#p5555bf54c4)" style="fill: #e6be93; fill-opacity: 0.7; stroke: #e6be93; stroke-linejoin: miter"/>
   </g>
   <g id="patch_118">
    <path d="M 127.592175 169.905534 
L 131.215552 169.905534 
L 131.215552 169.223559 
L 127.592175 169.223559 
z
" clip-path="url(#p5555bf54c4)" style="fill: #e6be93; fill-opacity: 0.7; stroke: #e6be93; stroke-linejoin: miter"/>
   </g>
   <g id="patch_119">
    <path d="M 131.215552 171.383146 
L 134.838929 171.383146 
L 134.838929 171.064891 
L 131.215552 171.064891 
z
" clip-path="url(#p5555bf54c4)" style="fill: #e6be93; fill-opacity: 0.7; stroke: #e6be93; stroke-linejoin: miter"/>
   </g>
   <g id="patch_120">
    <path d="M 134.838929 172.065121 
L 138.462305 172.065121 
L 138.462305 171.883261 
L 134.838929 171.883261 
z
" clip-path="url(#p5555bf54c4)" style="fill: #e6be93; fill-opacity: 0.7; stroke: #e6be93; stroke-linejoin: miter"/>
   </g>
   <g id="patch_121">
    <path d="M 138.462305 172.860758 
L 142.085682 172.860758 
L 142.085682 172.860758 
L 138.462305 172.860758 
z
" clip-path="url(#p5555bf54c4)" style="fill: #e6be93; fill-opacity: 0.7; stroke: #e6be93; stroke-linejoin: miter"/>
   </g>
   <g id="patch_122">
    <path d="M 142.085682 173.33814 
L 145.709058 173.33814 
L 145.709058 173.33814 
L 142.085682 173.33814 
z
" clip-path="url(#p5555bf54c4)" style="fill: #e6be93; fill-opacity: 0.7; stroke: #e6be93; stroke-linejoin: miter"/>
   </g>
   <g id="patch_123">
    <path d="M 145.709058 173.474535 
L 149.332435 173.474535 
L 149.332435 173.474535 
L 145.709058 173.474535 
z
" clip-path="url(#p5555bf54c4)" style="fill: #e6be93; fill-opacity: 0.7; stroke: #e6be93; stroke-linejoin: miter"/>
   </g>
   <g id="patch_124">
    <path d="M 149.332435 173.383605 
L 152.955812 173.383605 
L 152.955812 173.383605 
L 149.332435 173.383605 
z
" clip-path="url(#p5555bf54c4)" style="fill: #e6be93; fill-opacity: 0.7; stroke: #e6be93; stroke-linejoin: miter"/>
   </g>
   <g id="patch_125">
    <path d="M 152.955812 173.52 
L 156.579188 173.52 
L 156.579188 173.52 
L 152.955812 173.52 
z
" clip-path="url(#p5555bf54c4)" style="fill: #e6be93; fill-opacity: 0.7; stroke: #e6be93; stroke-linejoin: miter"/>
   </g>
   <g id="patch_126">
    <path d="M 156.579188 173.52 
L 160.202565 173.52 
L 160.202565 173.52 
L 156.579188 173.52 
z
" clip-path="url(#p5555bf54c4)" style="fill: #e6be93; fill-opacity: 0.7; stroke: #e6be93; stroke-linejoin: miter"/>
   </g>
   <g id="patch_127">
    <path d="M 160.202565 173.52 
L 163.825942 173.52 
L 163.825942 173.52 
L 160.202565 173.52 
z
" clip-path="url(#p5555bf54c4)" style="fill: #e6be93; fill-opacity: 0.7; stroke: #e6be93; stroke-linejoin: miter"/>
   </g>
   <g id="patch_128">
    <path d="M 163.825942 173.52 
L 167.449318 173.52 
L 167.449318 173.52 
L 163.825942 173.52 
z
" clip-path="url(#p5555bf54c4)" style="fill: #e6be93; fill-opacity: 0.7; stroke: #e6be93; stroke-linejoin: miter"/>
   </g>
   <g id="patch_129">
    <path d="M 167.449318 173.52 
L 171.072695 173.52 
L 171.072695 173.52 
L 167.449318 173.52 
z
" clip-path="url(#p5555bf54c4)" style="fill: #e6be93; fill-opacity: 0.7; stroke: #e6be93; stroke-linejoin: miter"/>
   </g>
   <g id="patch_130">
    <path d="M 171.072695 173.52 
L 174.696071 173.52 
L 174.696071 173.52 
L 171.072695 173.52 
z
" clip-path="url(#p5555bf54c4)" style="fill: #e6be93; fill-opacity: 0.7; stroke: #e6be93; stroke-linejoin: miter"/>
   </g>
   <g id="patch_131">
    <path d="M 174.696071 173.52 
L 178.319448 173.52 
L 178.319448 173.52 
L 174.696071 173.52 
z
" clip-path="url(#p5555bf54c4)" style="fill: #e6be93; fill-opacity: 0.7; stroke: #e6be93; stroke-linejoin: miter"/>
   </g>
   <g id="patch_132">
    <path d="M 178.319448 173.52 
L 181.942825 173.52 
L 181.942825 173.52 
L 178.319448 173.52 
z
" clip-path="url(#p5555bf54c4)" style="fill: #e6be93; fill-opacity: 0.7; stroke: #e6be93; stroke-linejoin: miter"/>
   </g>
   <g id="patch_133">
    <path d="M 181.942825 173.52 
L 185.566201 173.52 
L 185.566201 173.52 
L 181.942825 173.52 
z
" clip-path="url(#p5555bf54c4)" style="fill: #e6be93; fill-opacity: 0.7; stroke: #e6be93; stroke-linejoin: miter"/>
   </g>
   <g id="patch_134">
    <path d="M 185.566201 173.52 
L 189.189578 173.52 
L 189.189578 173.52 
L 185.566201 173.52 
z
" clip-path="url(#p5555bf54c4)" style="fill: #e6be93; fill-opacity: 0.7; stroke: #e6be93; stroke-linejoin: miter"/>
   </g>
   <g id="patch_135">
    <path d="M 189.189578 173.52 
L 192.812955 173.52 
L 192.812955 173.52 
L 189.189578 173.52 
z
" clip-path="url(#p5555bf54c4)" style="fill: #e6be93; fill-opacity: 0.7; stroke: #e6be93; stroke-linejoin: miter"/>
   </g>
   <g id="patch_136">
    <path d="M 192.812955 173.52 
L 196.436331 173.52 
L 196.436331 173.52 
L 192.812955 173.52 
z
" clip-path="url(#p5555bf54c4)" style="fill: #e6be93; fill-opacity: 0.7; stroke: #e6be93; stroke-linejoin: miter"/>
   </g>
   <g id="patch_137">
    <path d="M 196.436331 173.52 
L 200.059708 173.52 
L 200.059708 173.52 
L 196.436331 173.52 
z
" clip-path="url(#p5555bf54c4)" style="fill: #e6be93; fill-opacity: 0.7; stroke: #e6be93; stroke-linejoin: miter"/>
   </g>
   <g id="patch_138">
    <path d="M 200.059708 173.52 
L 203.683084 173.52 
L 203.683084 173.52 
L 200.059708 173.52 
z
" clip-path="url(#p5555bf54c4)" style="fill: #e6be93; fill-opacity: 0.7; stroke: #e6be93; stroke-linejoin: miter"/>
   </g>
   <g id="patch_139">
    <path d="M 203.683084 173.52 
L 207.306461 173.52 
L 207.306461 173.52 
L 203.683084 173.52 
z
" clip-path="url(#p5555bf54c4)" style="fill: #e6be93; fill-opacity: 0.7; stroke: #e6be93; stroke-linejoin: miter"/>
   </g>
   <g id="patch_140">
    <path d="M 207.306461 173.52 
L 210.929838 173.52 
L 210.929838 173.52 
L 207.306461 173.52 
z
" clip-path="url(#p5555bf54c4)" style="fill: #e6be93; fill-opacity: 0.7; stroke: #e6be93; stroke-linejoin: miter"/>
   </g>
   <g id="patch_141">
    <path d="M 210.929838 173.52 
L 214.553214 173.52 
L 214.553214 173.52 
L 210.929838 173.52 
z
" clip-path="url(#p5555bf54c4)" style="fill: #e6be93; fill-opacity: 0.7; stroke: #e6be93; stroke-linejoin: miter"/>
   </g>
   <g id="patch_142">
    <path d="M 214.553214 173.52 
L 218.176591 173.52 
L 218.176591 173.52 
L 214.553214 173.52 
z
" clip-path="url(#p5555bf54c4)" style="fill: #e6be93; fill-opacity: 0.7; stroke: #e6be93; stroke-linejoin: miter"/>
   </g>
   <g id="patch_143">
    <path d="M 218.176591 173.52 
L 221.799968 173.52 
L 221.799968 173.52 
L 218.176591 173.52 
z
" clip-path="url(#p5555bf54c4)" style="fill: #e6be93; fill-opacity: 0.7; stroke: #e6be93; stroke-linejoin: miter"/>
   </g>
   <g id="patch_144">
    <path d="M 221.799968 173.52 
L 225.423344 173.52 
L 225.423344 173.52 
L 221.799968 173.52 
z
" clip-path="url(#p5555bf54c4)" style="fill: #e6be93; fill-opacity: 0.7; stroke: #e6be93; stroke-linejoin: miter"/>
   </g>
   <g id="patch_145">
    <path d="M 225.423344 173.52 
L 229.046721 173.52 
L 229.046721 173.52 
L 225.423344 173.52 
z
" clip-path="url(#p5555bf54c4)" style="fill: #e6be93; fill-opacity: 0.7; stroke: #e6be93; stroke-linejoin: miter"/>
   </g>
   <g id="patch_146">
    <path d="M 229.046721 173.52 
L 232.670097 173.52 
L 232.670097 173.52 
L 229.046721 173.52 
z
" clip-path="url(#p5555bf54c4)" style="fill: #e6be93; fill-opacity: 0.7; stroke: #e6be93; stroke-linejoin: miter"/>
   </g>
   <g id="patch_147">
    <path d="M 232.670097 173.52 
L 236.293474 173.52 
L 236.293474 173.52 
L 232.670097 173.52 
z
" clip-path="url(#p5555bf54c4)" style="fill: #e6be93; fill-opacity: 0.7; stroke: #e6be93; stroke-linejoin: miter"/>
   </g>
   <g id="patch_148">
    <path d="M 236.293474 173.52 
L 239.916851 173.52 
L 239.916851 173.52 
L 236.293474 173.52 
z
" clip-path="url(#p5555bf54c4)" style="fill: #e6be93; fill-opacity: 0.7; stroke: #e6be93; stroke-linejoin: miter"/>
   </g>
   <g id="patch_149">
    <path d="M 239.916851 173.474535 
L 243.540227 173.474535 
L 243.540227 173.474535 
L 239.916851 173.474535 
z
" clip-path="url(#p5555bf54c4)" style="fill: #e6be93; fill-opacity: 0.7; stroke: #e6be93; stroke-linejoin: miter"/>
   </g>
   <g id="patch_150">
    <path d="M 57.1175 173.52 
L 57.1175 7.2 
" style="fill: none; stroke: #262626; stroke-linejoin: miter; stroke-linecap: square"/>
   </g>
   <g id="patch_151">
    <path d="M 252.4175 173.52 
L 252.4175 7.2 
" style="fill: none; stroke: #262626; stroke-linejoin: miter; stroke-linecap: square"/>
   </g>
   <g id="patch_152">
    <path d="M 57.1175 173.52 
L 252.4175 173.52 
" style="fill: none; stroke: #262626; stroke-linejoin: miter; stroke-linecap: square"/>
   </g>
   <g id="patch_153">
    <path d="M 57.1175 7.2 
L 252.4175 7.2 
" style="fill: none; stroke: #262626; stroke-linejoin: miter; stroke-linecap: square"/>
   </g>
   <g id="legend_1">
    <g id="patch_154">
     <path d="M 185.623438 25.202188 
L 207.623438 25.202188 
L 207.623438 17.502188 
L 185.623438 17.502188 
z
" style="fill: #3a5377; fill-opacity: 0.7; stroke: #3a5377; stroke-linejoin: miter"/>
    </g>
    <g id="text_11">
     <!-- Train -->
     <g style="fill: #262626" transform="translate(216.423438 25.202188) scale(0.11 -0.11)">
      <defs>
       <path id="Lato-Regular-54" d="M 3686 4586 
L 3686 4064 
L 2202 4064 
L 2202 0 
L 1584 0 
L 1584 4064 
L 96 4064 
L 96 4586 
L 3686 4586 
z
" transform="scale(0.015625)"/>
      </defs>
      <use xlink:href="#Lato-Regular-54"/>
      <use xlink:href="#Lato-Regular-72" x="48.050003"/>
      <use xlink:href="#Lato-Regular-61" x="83.700012"/>
      <use xlink:href="#Lato-Regular-69" x="133.400024"/>
      <use xlink:href="#Lato-Regular-6e" x="157.400024"/>
     </g>
    </g>
    <g id="patch_155">
     <path d="M 185.623438 40.691563 
L 207.623438 40.691563 
L 207.623438 32.991563 
L 185.623438 32.991563 
z
" style="fill: #ca675f; fill-opacity: 0.7; stroke: #ca675f; stroke-linejoin: miter"/>
    </g>
    <g id="text_12">
     <!-- Valid. -->
     <g style="fill: #262626" transform="translate(216.423438 40.691563) scale(0.11 -0.11)">
      <defs>
       <path id="Lato-Regular-56" d="M 19 4586 
L 515 4586 
Q 598 4586 649 4544 
Q 701 4502 726 4438 
L 2019 1203 
Q 2061 1094 2099 966 
Q 2138 838 2173 701 
Q 2202 838 2238 966 
Q 2275 1094 2317 1203 
L 3606 4438 
Q 3626 4493 3682 4539 
Q 3738 4586 3818 4586 
L 4314 4586 
L 2445 0 
L 1888 0 
L 19 4586 
z
" transform="scale(0.015625)"/>
       <path id="Lato-Regular-64" d="M 2794 0 
Q 2672 0 2640 118 
L 2589 512 
Q 2381 259 2113 107 
Q 1846 -45 1501 -45 
Q 1222 -45 995 62 
Q 768 170 608 378 
Q 448 586 361 896 
Q 275 1206 275 1610 
Q 275 1968 371 2277 
Q 467 2586 646 2813 
Q 826 3040 1086 3169 
Q 1347 3299 1674 3299 
Q 1971 3299 2184 3198 
Q 2397 3098 2563 2915 
L 2563 4714 
L 3133 4714 
L 3133 0 
L 2794 0 
z
M 1686 416 
Q 1968 416 2177 544 
Q 2387 672 2563 906 
L 2563 2470 
Q 2403 2682 2217 2768 
Q 2032 2854 1802 2854 
Q 1350 2854 1107 2531 
Q 864 2208 864 1610 
Q 864 1293 918 1067 
Q 973 842 1078 696 
Q 1184 550 1337 483 
Q 1491 416 1686 416 
z
" transform="scale(0.015625)"/>
       <path id="Lato-Regular-2e" d="M 355 352 
Q 355 435 385 508 
Q 416 582 469 636 
Q 522 691 595 723 
Q 669 755 752 755 
Q 835 755 908 723 
Q 982 691 1036 636 
Q 1091 582 1123 508 
Q 1155 435 1155 352 
Q 1155 266 1123 194 
Q 1091 122 1036 67 
Q 982 13 908 -17 
Q 835 -48 752 -48 
Q 669 -48 595 -17 
Q 522 13 469 67 
Q 416 122 385 194 
Q 355 266 355 352 
z
" transform="scale(0.015625)"/>
      </defs>
      <use xlink:href="#Lato-Regular-56"/>
      <use xlink:href="#Lato-Regular-61" x="60.325012"/>
      <use xlink:href="#Lato-Regular-6c" x="110.025024"/>
      <use xlink:href="#Lato-Regular-69" x="133.625031"/>
      <use xlink:href="#Lato-Regular-64" x="157.625031"/>
      <use xlink:href="#Lato-Regular-2e" x="213.625031"/>
     </g>
    </g>
    <g id="patch_156">
     <path d="M 185.623438 56.180938 
L 207.623438 56.180938 
L 207.623438 48.480938 
L 185.623438 48.480938 
z
" style="fill: #e6be93; fill-opacity: 0.7; stroke: #e6be93; stroke-linejoin: miter"/>
    </g>
    <g id="text_13">
     <!-- Test -->
     <g style="fill: #262626" transform="translate(216.423438 56.180938) scale(0.11 -0.11)">
      <defs>
       <path id="Lato-Regular-74" d="M 1446 -51 
Q 1062 -51 856 163 
Q 650 378 650 781 
L 650 2765 
L 259 2765 
Q 208 2765 173 2795 
Q 138 2826 138 2890 
L 138 3117 
L 669 3184 
L 800 4186 
Q 810 4234 843 4264 
Q 877 4294 931 4294 
L 1219 4294 
L 1219 3178 
L 2157 3178 
L 2157 2765 
L 1219 2765 
L 1219 819 
Q 1219 614 1318 515 
Q 1418 416 1574 416 
Q 1664 416 1729 440 
Q 1795 464 1843 493 
Q 1891 522 1924 546 
Q 1958 570 1984 570 
Q 2029 570 2064 515 
L 2230 243 
Q 2083 106 1875 27 
Q 1667 -51 1446 -51 
z
" transform="scale(0.015625)"/>
      </defs>
      <use xlink:href="#Lato-Regular-54"/>
      <use xlink:href="#Lato-Regular-65" x="46.800003"/>
      <use xlink:href="#Lato-Regular-73" x="99.600006"/>
      <use xlink:href="#Lato-Regular-74" x="142.900009"/>
     </g>
    </g>
   </g>
  </g>
 </g>
 <defs>
  <clipPath id="p5555bf54c4">
   <rect x="57.1175" y="7.2" width="195.3" height="166.32"/>
  </clipPath>
 </defs>
</svg>
